<svg width="16" height="11" viewBox="0 0 16 11" fill="none" xmlns="http://www.w3.org/2000/svg">
<path d="M8.00112 1C5.5655 1 3.06706 2.40969 1.10019 5.22906C1.04404 5.31042 1.01328 5.4066 1.01178 5.50544C1.01027 5.60428 1.0381 5.70135 1.09175 5.78438C2.603 8.15 5.068 10 8.00112 10C10.9024 10 13.418 8.14438 14.9321 5.77344C14.9845 5.69203 15.0123 5.59727 15.0123 5.50047C15.0123 5.40366 14.9845 5.3089 14.9321 5.2275C13.4146 2.88375 10.8805 1 8.00112 1Z" stroke="white" stroke-linecap="round" stroke-linejoin="round"/>
<path d="M8.01172 7.99951C9.39243 7.99951 10.5117 6.88022 10.5117 5.49951C10.5117 4.1188 9.39243 2.99951 8.01172 2.99951C6.63101 2.99951 5.51172 4.1188 5.51172 5.49951C5.51172 6.88022 6.63101 7.99951 8.01172 7.99951Z" stroke="white" stroke-miterlimit="10"/>
</svg>
