<svg width="16" height="12" viewBox="0 0 16 12" fill="none" xmlns="http://www.w3.org/2000/svg">
<path d="M13.0104 12C12.9447 12.0001 12.8796 11.9872 12.8189 11.962C12.7582 11.9369 12.7031 11.8999 12.6567 11.8533L1.64843 0.845023C1.55855 0.750421 1.50919 0.624451 1.51086 0.493972C1.51253 0.363492 1.5651 0.238827 1.65737 0.146557C1.74964 0.0542867 1.87431 0.0017116 2.00479 4.10567e-05C2.13527 -0.00162949 2.26124 0.0477368 2.35584 0.137615L13.3641 11.1459C13.4341 11.2159 13.4817 11.305 13.501 11.4021C13.5203 11.4991 13.5104 11.5997 13.4725 11.6911C13.4347 11.7825 13.3706 11.8606 13.2883 11.9156C13.2061 11.9706 13.1094 12 13.0104 12ZM7.49565 9.99849C6.19811 9.99849 4.94685 9.61445 3.7766 8.857C2.71111 8.16899 1.75194 7.18355 1.00263 6.01111V6.00861C1.62622 5.11512 2.30924 4.35955 3.04292 3.75034C3.04956 3.74479 3.05497 3.73793 3.05882 3.73018C3.06267 3.72243 3.06487 3.71397 3.06528 3.70533C3.06569 3.69669 3.0643 3.68805 3.06121 3.67998C3.05811 3.6719 3.05338 3.66455 3.0473 3.6584L2.42433 3.03636C2.41326 3.0252 2.39839 3.01862 2.38268 3.01792C2.36698 3.01723 2.35159 3.02247 2.33958 3.03261C1.56024 3.68936 0.836879 4.49496 0.179196 5.43817C0.0660433 5.60058 0.00372573 5.79296 0.000161882 5.99086C-0.00340196 6.18877 0.0519489 6.38326 0.159181 6.54964C0.985116 7.84218 2.04811 8.93081 3.23275 9.69733C4.56657 10.5614 6.00203 10.9992 7.49565 10.9992C8.30187 10.9967 9.10238 10.8639 9.86619 10.6058C9.87627 10.6024 9.8853 10.5965 9.89245 10.5886C9.89959 10.5807 9.90461 10.5711 9.90702 10.5608C9.90943 10.5504 9.90916 10.5396 9.90623 10.5294C9.9033 10.5191 9.8978 10.5098 9.89027 10.5023L9.21539 9.82742C9.19985 9.81227 9.18064 9.80141 9.15964 9.79593C9.13864 9.79045 9.11657 9.79052 9.09561 9.79615C8.57295 9.93074 8.03537 9.99872 7.49565 9.99849ZM14.8506 5.45131C14.0231 4.1716 12.9495 3.08452 11.746 2.30738C10.4147 1.44673 8.94487 0.991696 7.49565 0.991696C6.69798 0.993111 5.90623 1.12875 5.15357 1.39294C5.14354 1.39643 5.13457 1.40241 5.12749 1.41033C5.12042 1.41824 5.11547 1.42783 5.11313 1.43819C5.11078 1.44854 5.11111 1.45933 5.11408 1.46952C5.11705 1.47971 5.12257 1.48898 5.13012 1.49645L5.80406 2.1704C5.81975 2.18582 5.83923 2.19683 5.86054 2.20232C5.88184 2.20781 5.90422 2.20759 5.92541 2.20167C6.43734 2.06318 6.96531 1.99284 7.49565 1.99245C8.76817 1.99245 10.0157 2.38118 11.2031 3.14957C12.2886 3.8501 13.2591 4.83459 14.0103 5.99547C14.0108 5.99618 14.0111 5.99707 14.0111 5.99797C14.0111 5.99888 14.0108 5.99976 14.0103 6.00047C13.465 6.85891 12.7883 7.62643 12.005 8.275C11.9983 8.28053 11.9928 8.28739 11.9889 8.29516C11.985 8.30292 11.9827 8.31142 11.9823 8.3201C11.9819 8.32878 11.9832 8.33745 11.9863 8.34558C11.9894 8.35369 11.9942 8.36108 12.0003 8.36726L12.6226 8.98929C12.6337 9.00041 12.6484 9.007 12.6641 9.00775C12.6797 9.0085 12.6951 9.00337 12.7071 8.99336C13.5433 8.28924 14.2672 7.46159 14.8537 6.53901C14.9574 6.37643 15.0122 6.18751 15.0116 5.9947C15.0111 5.80189 14.9552 5.61329 14.8506 5.45131Z" fill="white"/>
<path d="M7.50583 2.99365C7.28095 2.99353 7.05676 3.01871 6.83751 3.06871C6.82644 3.07101 6.81619 3.07627 6.80787 3.08393C6.79955 3.09159 6.79346 3.10136 6.79025 3.11221C6.78704 3.12305 6.78683 3.13456 6.78965 3.14552C6.79246 3.15647 6.7982 3.16646 6.80624 3.17441L10.3273 6.69457C10.3353 6.70261 10.3453 6.70834 10.3562 6.71116C10.3672 6.71397 10.3787 6.71377 10.3895 6.71056C10.4004 6.70735 10.4102 6.70126 10.4178 6.69294C10.4255 6.68461 10.4307 6.67437 10.433 6.6633C10.5333 6.2236 10.5332 5.76697 10.4328 5.32732C10.3323 4.88767 10.1341 4.47629 9.85291 4.12374C9.57169 3.77118 9.21465 3.48652 8.80832 3.29087C8.40199 3.09523 7.9568 2.99364 7.50583 2.99365ZM4.68432 5.29727C4.67637 5.28923 4.66638 5.28349 4.65543 5.28068C4.64447 5.27786 4.63296 5.27807 4.62212 5.28128C4.61127 5.28449 4.6015 5.29058 4.59384 5.2989C4.58618 5.30722 4.58092 5.31746 4.57862 5.32854C4.4652 5.82402 4.47945 6.34019 4.62001 6.82866C4.76057 7.31714 5.02285 7.76193 5.38227 8.12135C5.74169 8.48077 6.18648 8.74305 6.67496 8.88361C7.16343 9.02418 7.6796 9.03842 8.17508 8.925C8.18616 8.9227 8.1964 8.91744 8.20472 8.90978C8.21304 8.90212 8.21913 8.89235 8.22234 8.88151C8.22555 8.87066 8.22576 8.85915 8.22294 8.84819C8.22013 8.83724 8.2144 8.82725 8.20636 8.8193L4.68432 5.29727Z" fill="white"/>
</svg>
