<svg width="15" height="15" viewBox="0 0 15 15" fill="none" xmlns="http://www.w3.org/2000/svg">
<path d="M5.16116 2.12459L5.51379 1.77197C5.6457 1.90388 5.73482 2.07247 5.76953 2.25576C5.80425 2.43901 5.78297 2.62847 5.70847 2.79946C5.48577 3.31075 5.35712 3.99499 5.35712 4.78577C5.35712 7.46353 7.53646 9.64288 10.2142 9.64288C11.005 9.64288 11.6892 9.51425 12.2004 9.29157C12.3715 9.21704 12.561 9.19575 12.7442 9.23046C12.9275 9.26518 13.0961 9.35431 13.228 9.48621C13.3599 9.61812 13.4491 9.78671 13.4838 9.97L12.9925 10.0631L13.4838 9.97C13.5185 10.1533 13.4972 10.3428 13.4227 10.5138C12.3653 12.943 9.92284 14.5 7.21425 14.5C5.43352 14.5 3.72572 13.7926 2.46656 12.5334C1.20739 11.2743 0.5 9.56648 0.5 7.78575C0.5 5.07716 2.05696 2.63473 4.4862 1.57733L5.16116 2.12459ZM5.16116 2.12459L5.51378 1.77197C5.38187 1.64006 5.21329 1.55094 5.03 1.51622C4.84679 1.48152 4.65738 1.50278 4.48642 1.57723L5.16116 2.12459Z" stroke="black" stroke-opacity="0.8" stroke-linejoin="round"/>
</svg>
