<svg height="512" viewBox="0 0 52 56" width="512" xmlns="http://www.w3.org/2000/svg"><g id="Page-1" fill="none" fill-rule="evenodd"><g id="029---Gas-Maintenance" fill="rgb(0,0,0)" fill-rule="nonzero"><path id="Shape" d="m28.89 39.35c.0106627-.0723373.0308373-.1429484.06-.21.2420457-.7085324.5784015-1.381244 1-2 .3198669-.4792238.5785411-.9965722.77-1.54.51-1.69 0-3.53-1.6-5.49-.6808425-.8088739-1.4123114-1.5737431-2.19-2.29l-1-1-1.42-1.43-.05 2.06c0 .3 0 .59-.06.88-.1858111 1.9295497-1.0972113 3.7166088-2.55 5l-.63.59c-1.6350155 1.3802842-3.098779 2.9514799-4.36 4.68-1.1622608 1.6873273-2.0186438 3.5659541-2.53 5.55-.6551971 2.7124434-.0847242 5.5757785 1.56 7.83 1.88 2.53 5.38 4.02 9.54 4.02 1.4160679.0002195 2.8267435-.1744355 4.2-.52 2.417704-.559408 4.6121719-1.8308061 6.3-3.65 2.0235839-2.6385812 2.6354827-6.0973013 1.64-9.27l-.43-1.56-1 1.16c-.6899544.787774-1.6040694 1.3460121-2.62 1.6-1.3323314.3115728-2.7322109-.06373-3.73-1-.8319326-.8484173-1.1781374-2.0601341-.92-3.22zm-3.46 14.65c-3.52 0-6.44-1.19-8-3.28-1.2914929-1.7707482-1.7377542-4.0203442-1.22-6.15.0839574-.348334.3473712-.625417.691016-.7268748.3436447-.1014577.7153126-.0118762.975.235.2596873.2468763.3679414.6135408.283984.9618748-.3920542 1.5442109-.0848363 3.1827061.84 4.48 1.2 1.58 3.54 2.48 6.43 2.48.5522847 0 1 .4477153 1 1s-.4477153 1-1 1z"/><path id="Shape" d="m46.68 29.59c.0744246-.4293277.4182762-.7610434.85-.82l4.47-.64v-4.26l-4.47-.64c-.4317238-.0589566-.7755754-.3906723-.85-.82-.5149721-3.0601303-1.718611-5.9632251-3.52-8.49-.2567957-.3514198-.2567957-.8285802 0-1.18l2.71-3.62-3-3-3.61 2.71c-.3514198.25679567-.8285802.25679567-1.18 0-2.5291397-1.79711918-5.4312199-3.00033735-8.49-3.52-.4293277-.07442456-.7610434-.41827619-.82-.85l-.64-4.46h-4.26l-.64 4.47c-.0589566.43172381-.3906723.77557544-.82.85-3.0587801.51966265-5.9608603 1.72288082-8.49 3.52-.3514198.25679567-.8285802.25679567-1.18 0l-3.62-2.73-3 3 2.71 3.61c.25679567.3514198.25679567.8285802 0 1.18-1.80138898 2.5267749-3.00502785 5.4298697-3.52 8.49-.07442456.4293277-.41827619.7610434-.85.82l-4.46.66v4.26l4.47.64c.43172381.0589566.77557544.3906723.85.82.51497215 3.0601303 1.71861102 5.9632251 3.52 8.49.25679567.3514198.25679567.8285802 0 1.18l-2.71 3.62 3 3 3.23-2.43c.5730682-2.1455897 1.5136533-4.1756294 2.78-6 .15-.22.32-.42.48-.64-4.9310556-4.7268451-6.04586156-12.188258-2.7117813-18.1499929 3.3340804-5.9617349 10.274957-8.91803419 16.8837812-7.1912401 6.6088241 1.7267941 11.2164026 7.7005446 11.2080001 14.531233-.0247438 6.4386362-4.1399775 12.1493267-10.24 14.21-.0376067.4218006.1123567.8387718.41 1.14.4956018.4703191 1.1970037.655097 1.86.49.6149814-.1674597 1.1654505-.5158579 1.58-1l2.27-2.52c.2482899-.2835094.6348827-.4033532 1-.31.3584817.0825429.6427003.3552392.74.71l.9 3.3c.1476818.5186851.2612578 1.0464798.34 1.58l3.05 2.28 3-3-2.71-3.61c-.2567957-.3514198-.2567957-.8285802 0-1.18 1.7885747-2.5333209 2.9784958-5.4397373 3.48-8.5zm-24.57-20.13c-7.6986784 1.7715609-13.14291847 8.6401903-13.11 16.54 0 .5522847-.44771525 1-1 1s-1-.4477153-1-1c-.03362596-8.8260717 6.049058-16.49897271 14.65-18.48.5155742-.08002796 1.0060295.24977824 1.1264053.75745029s-.1697879 1.02257347-.6664053 1.18254971zm3.89-.46c-.5522847 0-1-.44771525-1-1s.4477153-1 1-1 1 .44771525 1 1-.4477153 1-1 1z"/></g></g></svg>