<svg width="27" height="27" viewBox="0 0 27 27" fill="none" xmlns="http://www.w3.org/2000/svg">
<path d="M23.736 5.72079H18.5889V3.14726C18.5889 1.73182 17.4308 0.57373 16.0154 0.57373H10.8683C9.45289 0.57373 8.29481 1.73182 8.29481 3.14726V5.72079H3.14775C1.73231 5.72079 0.574219 6.87888 0.574219 8.29432V23.7355C0.574219 25.1509 1.73231 26.309 3.14775 26.309H23.736C25.1514 26.309 26.3095 25.1509 26.3095 23.7355V8.29432C26.3095 6.87888 25.1514 5.72079 23.736 5.72079ZM10.8683 3.14726H16.0154V5.72079H10.8683V3.14726ZM18.5889 17.3017H14.7286V21.162H12.1551V17.3017H8.29481V14.7281H12.1551V10.8678H14.7286V14.7281H18.5889V17.3017Z" fill="#1294F8"/>
</svg>
