<svg width="17" height="37" viewBox="0 0 17 37" fill="none" xmlns="http://www.w3.org/2000/svg">
<path d="M0.0212459 34.8558C-0.0583952 35.1202 0.0913884 35.3991 0.355797 35.4788L4.66458 36.7766C4.92899 36.8562 5.2079 36.7064 5.28754 36.442C5.36718 36.1776 5.2174 35.8987 4.95299 35.8191L1.12296 34.6654L2.27658 30.8354C2.35622 30.571 2.20644 30.2921 1.94203 30.2125C1.67762 30.1328 1.39871 30.2826 1.31907 30.547L0.0212459 34.8558ZM3.99834 1.5C6.21288 1.5 8.75397 2.6441 10.918 4.64091C13.0749 6.6311 14.8128 9.4296 15.4467 12.6588C16.7021 19.0544 13.649 27.3709 0.263437 34.5595L0.736563 35.4405C14.351 28.1291 17.7979 19.4456 16.4279 12.4662C15.7491 9.0079 13.8929 6.02515 11.5962 3.90597C9.30666 1.7934 6.53463 0.5 3.99834 0.5V1.5Z" fill="#1294F8"/>
</svg>
