<svg width="24" height="24" fill="none" xmlns="http://www.w3.org/2000/svg"><g clip-path="url(#clip0_84_910)"><path fill-rule="evenodd" clip-rule="evenodd" d="M1.447.093a.948.948 0 00-.305.267l-.117.172-.012 4.363L1 9.258l.106.208c.059.114.166.252.24.305.13.095.186.096 4.171.12 4.468.026 4.182.005 4.453.326.157.187.153.169.266 1.197.054.49.181 1.513.283 2.274.354 2.653.378 3.007.256 3.82-.089.589-.148.794-.518 1.788-.37.997-.441 1.425-.335 2.032.087.497.218.847.452 1.21.486.751 1.151 1.21 2.022 1.392.492.104 9.296.103 9.735 0 1.23-.29 2.032-1.52 1.777-2.725-.282-1.333-1.648-2.189-2.88-1.805l-.28.087-1.518-1.073-1.517-1.072-.024-5.613-.023-5.612-.11-.49c-.303-1.347-.898-2.468-1.81-3.416C14.542.96 13.074.23 11.398.049 11.111.02 9.228 0 6.288 0c-4.554 0-4.657.002-4.84.093zm5.31 4.864l.011 3.387h-4.22V4.977c0-1.852.015-3.382.032-3.4.018-.017.962-.026 2.098-.019l2.066.012.012 3.387zm4.927-3.297c.191.04.355.08.366.091.01.01-.067.186-.171.391a4.944 4.944 0 00-.311.838c-.108.416-.119.53-.1 1.075.019.525.042.67.17 1.054.355 1.058 1.045 1.843 2.04 2.32.593.284.97.37 1.62.373a5.14 5.14 0 00.692-.031l.152-.034v3.747h-4.31l-.023-.105a11.742 11.742 0 01-.076-.621c-.069-.647-.18-1.014-.414-1.359a2.748 2.748 0 00-.866-.781c-.365-.19-.601-.235-1.377-.261l-.762-.025V1.534l1.512.027c1.087.02 1.61.047 1.858.1zm2.258 1.014c.386.286.991.916 1.242 1.293.393.59.789 1.552.826 2.007.014.166.003.185-.125.222-.252.073-.886.052-1.179-.038a2.403 2.403 0 01-1.687-2.009c-.035-.3.051-.867.174-1.146.116-.264.321-.566.384-.566.025 0 .19.107.365.237zm2.201 12.806c.001 2.448.001 2.45.106 2.633.084.148.485.455 2.05 1.564 1.07.758 2.013 1.408 2.096 1.445.235.102.458.08.776-.082.365-.185.62-.192.873-.025.451.298.445.988-.01 1.29l-.19.125-4.386.013c-3.024.01-4.48-.002-4.69-.037a1.533 1.533 0 01-1.303-1.454c-.02-.34-.01-.382.259-1.102.764-2.047.823-2.828.432-5.708a52.316 52.316 0 01-.139-1.066c0-.028.797-.045 2.063-.045h2.062l.001 2.45zm-2.74 3.939c-.21.12-.401.437-.401.664 0 .238.186.551.398.67.178.1.241.105 1.162.106.878 0 .993-.009 1.156-.092.53-.27.547-1.035.03-1.338-.196-.114-.22-.116-1.18-.116-.928.001-.99.007-1.164.106z" fill="#1294F8"/></g><defs><clipPath id="clip0_84_910"><path fill="#fff" d="M0 0h24v24H0z"/></clipPath></defs></svg>