<svg width="17" height="18" viewBox="0 0 17 18" fill="none" xmlns="http://www.w3.org/2000/svg">
<path d="M5.35179 10.125H3.90536C3.6667 10.125 3.47143 9.93516 3.47143 9.70312V8.29688C3.47143 8.06484 3.6667 7.875 3.90536 7.875H5.35179C5.59045 7.875 5.78571 8.06484 5.78571 8.29688V9.70312C5.78571 9.93516 5.59045 10.125 5.35179 10.125ZM9.25714 9.70312V8.29688C9.25714 8.06484 9.06188 7.875 8.82321 7.875H7.37679C7.13812 7.875 6.94286 8.06484 6.94286 8.29688V9.70312C6.94286 9.93516 7.13812 10.125 7.37679 10.125H8.82321C9.06188 10.125 9.25714 9.93516 9.25714 9.70312ZM12.7286 9.70312V8.29688C12.7286 8.06484 12.5333 7.875 12.2946 7.875H10.8482C10.6096 7.875 10.4143 8.06484 10.4143 8.29688V9.70312C10.4143 9.93516 10.6096 10.125 10.8482 10.125H12.2946C12.5333 10.125 12.7286 9.93516 12.7286 9.70312ZM9.25714 13.0781V11.6719C9.25714 11.4398 9.06188 11.25 8.82321 11.25H7.37679C7.13812 11.25 6.94286 11.4398 6.94286 11.6719V13.0781C6.94286 13.3102 7.13812 13.5 7.37679 13.5H8.82321C9.06188 13.5 9.25714 13.3102 9.25714 13.0781ZM5.78571 13.0781V11.6719C5.78571 11.4398 5.59045 11.25 5.35179 11.25H3.90536C3.6667 11.25 3.47143 11.4398 3.47143 11.6719V13.0781C3.47143 13.3102 3.6667 13.5 3.90536 13.5H5.35179C5.59045 13.5 5.78571 13.3102 5.78571 13.0781ZM12.7286 13.0781V11.6719C12.7286 11.4398 12.5333 11.25 12.2946 11.25H10.8482C10.6096 11.25 10.4143 11.4398 10.4143 11.6719V13.0781C10.4143 13.3102 10.6096 13.5 10.8482 13.5H12.2946C12.5333 13.5 12.7286 13.3102 12.7286 13.0781ZM16.2 3.9375V16.3125C16.2 17.2441 15.4225 18 14.4643 18H1.73571C0.777455 18 0 17.2441 0 16.3125V3.9375C0 3.00586 0.777455 2.25 1.73571 2.25H3.47143V0.421875C3.47143 0.189844 3.6667 0 3.90536 0H5.35179C5.59045 0 5.78571 0.189844 5.78571 0.421875V2.25H10.4143V0.421875C10.4143 0.189844 10.6096 0 10.8482 0H12.2946C12.5333 0 12.7286 0.189844 12.7286 0.421875V2.25H14.4643C15.4225 2.25 16.2 3.00586 16.2 3.9375ZM14.4643 16.1016V5.625H1.73571V16.1016C1.73571 16.2176 1.83335 16.3125 1.95268 16.3125H14.2473C14.3667 16.3125 14.4643 16.2176 14.4643 16.1016Z" fill="#1294F8"/>
</svg>
