<svg width="24" height="23" viewBox="0 0 24 23" fill="none" xmlns="http://www.w3.org/2000/svg">
<path d="M13.0629 2.0457C13.1539 2.05236 13.2382 2.05902 13.3093 2.069C18.3069 2.83813 20.6054 5.20544 21.2414 10.2419C21.2525 10.3274 21.2547 10.4317 21.2558 10.5416C21.2624 10.9356 21.2758 11.7547 22.1548 11.7713H22.1814C22.4578 11.7713 22.6764 11.6881 22.834 11.5238C23.107 11.2386 23.0893 10.8135 23.0726 10.4717C23.0693 10.3873 23.066 10.3085 23.066 10.2386C23.1303 5.08891 18.6709 0.417545 13.5257 0.244409C13.5035 0.244409 13.4835 0.244409 13.4635 0.247738C13.4433 0.250293 13.4229 0.251405 13.4025 0.251068C13.3503 0.251068 13.2882 0.246628 13.2205 0.242189C13.1406 0.23664 13.0484 0.22998 12.9541 0.22998C12.135 0.22998 11.9797 0.812652 11.9597 1.16004C11.9142 1.96246 12.69 2.01906 13.0629 2.0457ZM21.0005 16.7512C20.8933 16.6697 20.7871 16.5868 20.682 16.5026C20.136 16.0631 19.5555 15.6591 18.995 15.2674L18.6454 15.0232C17.9262 14.5182 17.2803 14.2729 16.6699 14.2729C15.8464 14.2729 15.1294 14.728 14.5368 15.6236C14.2748 16.0209 13.9563 16.2141 13.5645 16.2141C13.2924 16.2045 13.0254 16.1376 12.781 16.0176C10.4614 14.9655 8.80326 13.3518 7.85545 11.2219C7.39708 10.192 7.5458 9.51944 8.35155 8.97117C8.80992 8.66041 9.66117 8.08218 9.60235 6.97344C9.53354 5.71598 6.7578 1.93027 5.58802 1.50076C5.08794 1.31835 4.53978 1.31678 4.03867 1.49632C2.69464 1.94803 1.73129 2.74268 1.2485 3.79149C0.782365 4.8059 0.804562 5.99677 1.30843 7.23536C2.76789 10.8169 4.81889 13.94 7.40596 16.517C9.93753 19.0397 13.0496 21.1052 16.6543 22.6579C16.9795 22.7977 17.3203 22.8743 17.57 22.9298C17.6543 22.9486 17.7276 22.9653 17.7808 22.9797C17.8102 22.9876 17.8404 22.9917 17.8707 22.9919H17.8996C19.5955 22.9919 21.632 21.4426 22.2569 19.6768C22.8051 18.1297 21.8041 17.365 21.0005 16.7512ZM13.8131 6.13772C13.5235 6.14438 12.9186 6.15992 12.7066 6.77477C12.6067 7.06333 12.6189 7.31194 12.7421 7.51726C12.9219 7.81692 13.2671 7.91015 13.5801 7.9612C14.7177 8.14322 15.3025 8.77139 15.4191 9.94007C15.4735 10.4839 15.8408 10.8646 16.3103 10.8646C16.3459 10.8645 16.3815 10.8623 16.4168 10.8579C16.9829 10.7913 17.257 10.3751 17.2326 9.62154C17.2415 8.83577 16.8308 7.94345 16.1305 7.23314C15.4291 6.52062 14.5834 6.11885 13.8131 6.13772Z" fill="#1294F8"/>
</svg>
