<svg width="53" height="53" viewBox="0 0 53 53" fill="none" xmlns="http://www.w3.org/2000/svg">
<rect width="53" height="53" fill="#E5E5E5"/>
<rect x="-293" y="-56" width="640" height="361" fill="white"/>
<circle cx="26.5" cy="26.5" r="25.5" stroke="#1294F8" stroke-width="2"/>
<path d="M21.7509 38.1111C22.748 38.1111 23.5564 37.3027 23.5564 36.3056C23.5564 35.3084 22.748 34.5 21.7509 34.5C20.7537 34.5 19.9453 35.3084 19.9453 36.3056C19.9453 37.3027 20.7537 38.1111 21.7509 38.1111Z" fill="#1294F8"/>
<path d="M31.1376 38.1111C32.1348 38.1111 32.9431 37.3027 32.9431 36.3056C32.9431 35.3084 32.1348 34.5 31.1376 34.5C30.1404 34.5 29.332 35.3084 29.332 36.3056C29.332 37.3027 30.1404 38.1111 31.1376 38.1111Z" fill="#1294F8"/>
<path d="M35.9043 19.615C35.837 19.5276 35.7506 19.4568 35.6517 19.408C35.5528 19.3592 35.444 19.3336 35.3337 19.3334H18.6504L18.3254 18.3006C18.2897 18.1897 18.2277 18.0891 18.1447 18.0074C18.0617 17.9256 17.9601 17.8652 17.8487 17.8312L14.8876 16.9212C14.7966 16.8932 14.7009 16.8834 14.6061 16.8924C14.5112 16.9014 14.4191 16.929 14.3349 16.9736C14.165 17.0636 14.0377 17.2176 13.9812 17.4014C13.9247 17.5853 13.9436 17.7841 14.0336 17.9541C14.1237 18.1241 14.2776 18.2513 14.4615 18.3078L17.0543 19.1023L20.362 29.5528L19.1848 30.5206L19.0909 30.6145C18.7998 30.9516 18.6349 31.3794 18.6243 31.8247C18.6138 32.27 18.7583 32.7051 19.0332 33.0556C19.23 33.295 19.4801 33.485 19.7636 33.6104C20.047 33.7358 20.3558 33.7931 20.6654 33.7778H32.7193C32.9108 33.7778 33.0945 33.7017 33.23 33.5663C33.3654 33.4308 33.4415 33.2471 33.4415 33.0556C33.4415 32.8641 33.3654 32.6804 33.23 32.5449C33.0945 32.4095 32.9108 32.3334 32.7193 32.3334H20.5498C20.4667 32.3305 20.3856 32.3063 20.3146 32.263C20.2435 32.2197 20.1848 32.1588 20.1442 32.0862C20.1035 32.0136 20.0822 31.9317 20.0825 31.8485C20.0827 31.7653 20.1043 31.6836 20.1454 31.6112L21.8859 30.1667H33.0298C33.1948 30.1715 33.3565 30.1197 33.4879 30.0198C33.6193 29.9199 33.7125 29.7781 33.752 29.6178L36.0632 20.2289C36.0851 20.1213 36.0822 20.01 36.0547 19.9036C36.0272 19.7972 35.9757 19.6985 35.9043 19.615Z" fill="#1294F8"/>
</svg>
