<svg width="24" height="24" fill="none" xmlns="http://www.w3.org/2000/svg"><g clip-path="url(#clip0_147_3413)"><path fill-rule="evenodd" clip-rule="evenodd" d="M16.254.411c-.457.224-.832.42-.832.434 0 .016.19.359.422.764.232.404.421.75.421.77 0 .018-1.778 1.82-3.95 4.004-2.174 2.184-4.07 4.119-4.215 4.3a11.06 11.06 0 00-1.585 2.754c-.104.268-.422 1.269-.707 2.225L5.29 17.4l-2.645 2.655-2 2.007a.915.915 0 000 1.293c.38.378.986.36 1.37-.014.503-.491 1.239-1.214 2.04-2.016l2.672-2.674 1.617-.47c.89-.258 1.807-.537 2.039-.619a11.641 11.641 0 001.851-.89c.929-.566 1.176-.795 5.321-4.94C19.773 9.514 21.601 7.7 21.62 7.7c.018 0 .278.148.577.33.701.423.916.532.96.484.018-.022.216-.39.438-.817l.403-.778-.878-.527c-2.355-1.413-3.665-2.618-4.926-4.528a19.523 19.523 0 01-.961-1.622A1.674 1.674 0 0017.097 0c-.006.002-.386.187-.843.411zM6.78.22c-.266.567-.96 1.668-1.546 2.454-.5.67-1.403 1.618-1.998 2.099A21.25 21.25 0 01.88 6.392l-.878.527.403.778c.222.428.42.795.439.817.043.048.258-.06.959-.485.3-.181.56-.33.578-.33.018 0 .76.73 1.648 1.62l1.615 1.618.3-.456c.165-.25.403-.588.529-.749.126-.16.23-.309.23-.329 0-.02-.612-.65-1.36-1.398-.748-.749-1.36-1.376-1.36-1.394 0-.017.229-.22.507-.452.747-.62 1.47-1.364 2.105-2.168.01-.012.623.585 1.363 1.327.74.741 1.367 1.348 1.392 1.348.062 0 1.29-1.23 1.29-1.291 0-.027-.654-.703-1.453-1.504-.8-.8-1.453-1.472-1.453-1.491 0-.02.19-.367.421-.771.232-.405.422-.748.422-.764 0-.034-1.598-.804-1.667-.803-.027 0-.087.08-.132.177zm10.916 4.128c.395.499 1.197 1.3 1.804 1.804.284.236.516.443.516.46 0 .018-1.044 1.078-2.32 2.357l-2.32 2.325-1.324-1.327-1.324-1.327 2.32-2.325c1.276-1.28 2.33-2.325 2.343-2.324.013.001.15.162.305.357zm-4.969 6.97l1.312 1.315-.585.592c-1.358 1.374-2.278 2.021-3.586 2.524-.495.191-2.268.71-2.303.674-.032-.031.459-1.665.673-2.24.277-.747.597-1.331 1.131-2.067.224-.307 1.95-2.114 2.02-2.114.015 0 .617.592 1.338 1.316zm4.272 3.658l-.74.743.1.34c.056.188.091.351.079.364-.013.012-.175-.02-.361-.073l-.339-.096-.52.48c-.287.264-.654.584-.815.71-.16.126-.293.243-.293.26 0 .017.715.239 1.588.493l1.588.46 2.666 2.672a251.7 251.7 0 002.034 2.013c.384.374.99.393 1.37.014a.915.915 0 000-1.293l-2-2.008L18.71 17.4l-.454-1.527c-.25-.84-.468-1.552-.485-1.584-.02-.038-.295.206-.773.686z" fill="#1294F8"/></g><defs><clipPath id="clip0_147_3413"><path fill="#fff" d="M0 0h24v24H0z"/></clipPath></defs></svg>