<svg width="20" height="21" fill="none" xmlns="http://www.w3.org/2000/svg"><path d="M18.912 16.913l-2.585 2.542c-.381.388-.887.519-1.38.52-2.178-.065-4.237-1.126-5.927-2.215-2.775-2.001-5.32-4.482-6.919-7.48C1.488 9.021.77 7.416.838 6.013c.006-.528.15-1.046.525-1.387l2.585-2.56c.536-.453 1.055-.297 1.399.23l2.08 3.91c.218.462.093.959-.234 1.29l-.952.943a.461.461 0 00-.097.27c.365 1.401 1.471 2.692 2.448 3.581.978.89 2.028 2.093 3.392 2.378.168.047.375.063.495-.048l1.108-1.117c.382-.286.933-.427 1.341-.192h.02l3.75 2.195c.55.342.608 1.004.214 1.406z" fill="#FFF500"/></svg>