<svg width="76" height="76" fill="none" xmlns="http://www.w3.org/2000/svg"><path fill-rule="evenodd" clip-rule="evenodd" d="M2.334 1.367C1.161 2.083 1.001 2.603 1 5.712c0 3.116.108 3.46 1.086 3.46.322 0 .686-.1.81-.223.146-.146.256-1.164.316-2.934l.092-2.711 2.71-.092c1.771-.06 2.789-.17 2.935-.317.123-.123.223-.488.223-.81C9.172 1.108 8.827 1 5.712 1c-2.445 0-2.848.044-3.378.367zM66.17 1.25c-.392.287-.465 1.297-.119 1.645.146.147 1.164.256 2.934.317l2.711.092.092 2.71c.06 1.771.17 2.79.317 2.935.123.123.487.224.81.224.977 0 1.085-.345 1.085-3.461 0-2.446-.045-2.849-.367-3.378-.716-1.173-1.236-1.333-4.344-1.334-2.05 0-2.866.065-3.119.25zM4.502 4.502c-.73.731-.537 1.02 3.185 4.743 1.955 1.954 3.7 3.554 3.88 3.554.421 0 1.23-.81 1.23-1.231 0-.18-1.599-1.925-3.553-3.88-3.722-3.723-4.01-3.917-4.742-3.186zm61.254 3.186c-1.955 1.955-3.554 3.7-3.554 3.88 0 .421.81 1.23 1.231 1.23.498 0 7.434-7.014 7.434-7.517 0-.527-.62-1.147-1.148-1.147-.285 0-1.48 1.07-3.963 3.554zm-31.39 1.244c-9.94 1.204-18.54 7.34-22.752 16.23-4.347 9.18-3.55 19.803 2.127 28.382 1.568 2.368 5.354 6.154 7.721 7.722 12.923 8.555 29.775 5.665 39.102-6.708 5.524-7.328 7.114-17.172 4.197-25.992-3.35-10.126-11.92-17.57-22.284-19.352-2.133-.367-6.233-.51-8.11-.282zm-4.19 11.204c1.672.74 2.986 2.588 3.654 5.14.572 2.183.509 5.834-.195 11.308-.743 5.777-.765 9.186-.082 12.627.677 3.413.49 4.825-.82 6.24-.84.905-1.82 1.309-3.16 1.3-1.756-.01-3.08-.771-4.128-2.373-2.584-3.946-6.01-17.2-6.01-23.241 0-3.706 1.02-6.72 2.998-8.857 2.178-2.353 5.31-3.22 7.743-2.144zm18.47-.233c3.08.803 5.44 3.386 6.49 7.108.264.934.334 1.842.331 4.317-.003 2.767-.073 3.497-.6 6.233-1.622 8.397-4.093 15.72-5.954 17.638-1.957 2.016-4.905 2.128-6.645.252-1.329-1.433-1.493-2.718-.803-6.304.479-2.494.5-2.826.402-6.353-.067-2.438-.24-4.582-.498-6.212-.563-3.546-.708-9.049-.287-10.94.66-2.965 2.283-5.094 4.386-5.75 1.056-.33 1.878-.328 3.178.011zM7.676 65.77c-1.948 1.958-3.543 3.691-3.543 3.852 0 .518.638 1.116 1.19 1.116.434 0 1.119-.598 4-3.49 3.635-3.65 3.83-3.944 3.106-4.669-.743-.743-1.03-.55-4.753 3.191zm54.895-3.19c-.724.724-.529 1.017 3.107 4.668 2.88 2.892 3.565 3.49 3.998 3.49.553 0 1.19-.598 1.19-1.116 0-.16-1.594-1.894-3.542-3.852-3.722-3.74-4.01-3.934-4.753-3.19zm-61.203 3.5c-.335.336-.368.614-.368 3.088 0 3.002.17 3.635 1.165 4.366.46.338.838.389 3.278.445 2.27.052 2.837.012 3.2-.226.6-.394.747-.955.39-1.5-.285-.436-.364-.449-3.011-.499l-2.718-.05-.092-2.735c-.082-2.433-.132-2.764-.45-2.996-.496-.363-.96-.327-1.394.107zm70.87-.107c-.318.232-.368.563-.45 2.996l-.092 2.734-2.718.052c-2.647.05-2.726.062-3.01.498-.358.545-.212 1.106.39 1.5.362.238.93.278 3.199.226 2.44-.056 2.818-.107 3.278-.445.996-.731 1.165-1.364 1.165-4.366 0-2.474-.033-2.752-.368-3.088-.434-.434-.898-.47-1.394-.107z" fill="#1294F8"/></svg>