<svg width="76" height="76" fill="none" xmlns="http://www.w3.org/2000/svg"><g clip-path="url(#clip0_99_1417)"><path fill-rule="evenodd" clip-rule="evenodd" d="M18.687 7.126c-3.907.61-7.907 2.767-10.735 5.789-1.17 1.252-2.817 3.593-3.437 4.887-.27.564-.45.74-.891.873-.766.23-1.737 1.108-2.13 1.924-.186.387-.35 1.065-.378 1.561-.03.546-.204 1.214-.46 1.769-.302.656-.426 1.2-.469 2.056-.032.64-.1 1.828-.15 2.64-.079 1.246-.043 1.64.227 2.537.177.584.322 1.222.324 1.418.006.67.739 2.455 1.505 3.665.42.664.764 1.265.764 1.335 0 .29 1.42 4.531 1.901 5.678l.52 1.241-.358.389c-.851.919-.91 1.751-.243 3.439 2.184 5.528 5.996 9.264 11.4 11.172 1.035.365 1.658.72 2.816 1.602 5.548 4.225 11.326 7.187 16.692 8.557 2.022.516 3.428.458 5.81-.241 5.106-1.499 10.566-4.389 15.73-8.325 1.143-.872 1.774-1.232 2.801-1.596 5.435-1.929 9.208-5.626 11.398-11.17.668-1.69.608-2.52-.247-3.443l-.363-.393.386-.878c.478-1.088 1.513-4.09 1.82-5.28.127-.493.567-1.422.99-2.091.765-1.207 1.497-2.991 1.503-3.66.002-.197.147-.835.324-1.42.272-.9.306-1.285.224-2.536a292.85 292.85 0 01-.16-2.66c-.047-.87-.172-1.418-.47-2.057a5.186 5.186 0 01-.462-1.77c-.03-.497-.198-1.197-.373-1.562-.383-.796-1.36-1.673-2.119-1.901-.442-.133-.621-.309-.891-.873-.62-1.294-2.266-3.635-3.437-4.887-3.81-4.072-8.697-6.1-14.219-5.902-5.397.195-9.868 2.177-13.86 6.144-.957.952-1.844 1.73-1.969 1.73-.125-.001-1.046-.807-2.045-1.79-1-.984-2.33-2.131-2.954-2.55a22.574 22.574 0 00-7.499-3.203c-1.271-.285-5.518-.42-6.816-.218zm1.838 5.29c.504.41.612.726 1.27 3.71 2.134 9.688 4.033 14.482 7.62 19.244 1.18 1.566 3.78 4.164 5.332 5.33.665.498 1.268.956 1.341 1.016.162.134-1.757 1.113-3.644 1.86-4.581 1.811-9.228 2.696-14.168 2.697h-2.688l-1.101-.798c-3.155-2.288-5.848-4.557-7.862-6.624-1.504-1.543-2.924-3.233-2.813-3.345.035-.035.258.01.495.101.551.211 1.07.08 1.285-.325.308-.578.051-1-.927-1.524-1.144-.613-2.15-1.721-2.557-2.814-.48-1.288-.407-1.39.451-.634.882.776 2.975 1.942 3.485 1.942.426 0 .903-.408.903-.773 0-.563-.227-.785-1.417-1.387-1.65-.834-3.147-2.315-3.41-3.372-.1-.404-.139-.964-.086-1.245l.095-.511 1.073.905c.625.528 1.788 1.27 2.787 1.779 1.655.842 1.728.864 2.131.639.468-.261.636-.934.326-1.309-.103-.126-.812-.533-1.574-.906-1.442-.706-3.136-1.985-3.628-2.74-.573-.88-.286-2.164.618-2.76.651-.429 1.304-.303 2.515.483 1.492.968 4.49 2.418 5.845 2.826.754.227 1.348.312 1.852.263 2.468-.238 3.718-3.233 3.602-8.623-.05-2.281.067-2.682.919-3.147.548-.3 1.537-.278 1.93.042zm36.85-.05c.88.458 1 .856.95 3.155-.116 5.39 1.134 8.385 3.602 8.623.504.049 1.098-.036 1.852-.263 1.354-.408 4.353-1.858 5.845-2.826 1.201-.78 1.875-.904 2.537-.468.882.58 1.163 1.875.596 2.745-.492.755-2.186 2.034-3.629 2.74-.761.373-1.47.78-1.573.906-.31.375-.142 1.048.326 1.309.403.225.477.203 2.131-.64.999-.508 2.162-1.25 2.787-1.777l1.073-.906.095.512c.29 1.553-1.143 3.427-3.554 4.646-1.121.567-1.36.8-1.36 1.33 0 .378.463.8.877.8.533 0 2.61-1.149 3.512-1.942.858-.756.93-.654.451.634-.407 1.093-1.413 2.2-2.557 2.814-.978.524-1.235.946-.927 1.524.213.402.733.536 1.274.33.611-.234.612-.228.077.554-.66.965-3.529 3.927-5.206 5.374-4.564 3.94-12.163 8.916-17.571 11.506-8.977 4.297-18.244 6.462-25.698 6.002-8.338-.515-13.976-4.24-16.785-11.09-.525-1.28-.56-1.573-.222-1.855.197-.164.324-.165.72-.001 2.876 1.19 5.5 1.788 8.643 1.97 5.212.303 10.37-.422 15.694-2.205 6.947-2.326 12.12-6.07 16.098-11.644.564-.79 1.602-2.603 2.305-4.027 1.875-3.794 2.896-7.007 4.478-14.09.346-1.55.699-2.955.783-3.122.403-.799 1.486-1.08 2.376-.617zm12.492 33.93c.191.309.037.812-.825 2.682-2.358 5.119-6.683 8.39-12.73 9.63-3.76.77-9.195.63-13.991-.362l-.907-.187 1.058-.355c5.202-1.745 10.556-4.433 16.466-8.27 2.02-1.31 2.113-1.352 3.325-1.505 2.335-.294 4.444-.855 6.185-1.644.789-.357 1.19-.354 1.419.012z" fill="#1294F8"/></g><defs><clipPath id="clip0_99_1417"><path fill="#fff" d="M0 0h76v76H0z"/></clipPath></defs></svg>