<svg width="76" height="76" fill="none" xmlns="http://www.w3.org/2000/svg"><path fill-rule="evenodd" clip-rule="evenodd" d="M24.03 6.16c-.34.079-.853.288-1.14.464-.709.435-1.745 1.628-1.942 2.236-.166.514-8.756 38.808-8.924 39.786-.13.76.292 2.267.845 3.013.495.669 1.21 1.246 1.876 1.517.233.095 4.538 1.08 9.566 2.19l9.143 2.016-.098-.711c-.054-.392-.123-.736-.152-.765-.03-.03-3.862-.895-8.517-1.923-4.654-1.028-8.735-2.008-9.069-2.178-.334-.17-.763-.475-.953-.678-.518-.552-.99-1.698-.994-2.416-.004-.802 8.433-38.481 8.756-39.1.325-.625 1.065-1.334 1.707-1.637 1.207-.568 1.234-.564 12.522 1.926 5.909 1.303 11.15 2.481 11.646 2.618 1.672.46 2.81 1.857 2.81 3.45 0 .453-1.543 7.657-3.643 17.005a11070.66 11070.66 0 00-3.728 16.626c-.077.373-.024.424.597.58.375.095.712.142.749.105.037-.037 1.803-7.779 3.923-17.204 4.22-18.752 4.073-17.877 3.273-19.521-.424-.872-1.008-1.446-1.963-1.93C49.67 11.3 25.798 5.975 25.087 6a6.85 6.85 0 00-1.057.16zm.95 2.81c-.56.167-1.278.829-1.502 1.385-.272.676-8.547 37.85-8.54 38.364.009.606.427 1.373.986 1.807.337.262 2.314.757 8.521 2.13 4.445.984 8.202 1.789 8.35 1.789.245 0 .25-.083.06-.98-.64-3.039-.943-6.894-.707-9.015.33-2.961 1.012-4.34 2.522-5.1 1.29-.649 2.542-.519 3.56.37.649.564.784.957 1.102 3.198.135.949.504 3.054.82 4.678.55 2.821.59 2.949.91 2.85.184-.056.546-.153.805-.214l.47-.112 3.747-16.696c2.061-9.183 3.751-16.968 3.756-17.3.01-.77-.38-1.59-.951-1.993-.378-.267-4.767-1.403-5.421-1.403-.111 0-.429.347-.706.771-.608.933-1.664 1.66-2.764 1.903-.733.162-1.089.124-3.56-.382-2.933-.6-3.741-.93-4.53-1.857-.562-.66-.964-1.576-1.102-2.508-.071-.483-.199-.767-.369-.818-.578-.174-4.615-1.029-4.8-1.016a4.32 4.32 0 00-.656.15zm7.097 1.758c.185.881.834 1.812 1.542 2.212.41.231 1.622.576 3.146.894 2.25.47 2.541.5 3.159.315.752-.223 2.177-1.495 1.932-1.724-.122-.115-9.371-2.206-9.756-2.206-.072 0-.082.23-.023.51zm6.255 11.579c.566.4.98 1.155.852 1.555-.11.346-1.571 1.705-2.172 2.02-.489.258-1.021.153-1.505-.294-.483-.447-.441-.988.145-1.854 1.18-1.742 1.781-2.063 2.68-1.427zm24.744 1.732c-.233.205-.514.655-.624 1-.2.626-.204.628-1.094.674-1.086.057-1.605.46-1.876 1.458-.465 1.716-.212 2.388 1.145 3.035.662.316.678.34.758 1.24.067.741.163.987.501 1.276.511.436 2.273.785 2.857.564.464-.175 1.063-.888 1.063-1.265 0-.47.528-.787 1.307-.787 1.073 0 1.522-.444 1.769-1.749.287-1.516.094-1.974-1.062-2.53l-.908-.438-.004-.817c-.005-1.325-.575-1.798-2.342-1.945-.966-.08-1.105-.054-1.49.284zm-30.01 2.892c.676.47 1.034 1.698.727 2.492-.168.436-.938.728-1.628.618-.585-.093-.647-.065-.95.43-.841 1.369-.106 3.601 1.445 4.387.774.391 1.224.3 1.574-.317.365-.644 1.2-.8 1.843-.345.561.396 1.026 1.465.895 2.057-.215.972-1.555 1.725-3.07 1.725-2.104 0-3.967-1.27-5.03-3.43-.572-1.161-.59-1.248-.59-2.922 0-1.568.039-1.797.421-2.51.458-.852 1.359-1.78 2.107-2.17.615-.321 1.806-.329 2.257-.015zm8.97 1.553c.306.727.298 2.031-.013 2.34-.346.343-1.168.46-2.64.375-1.058-.06-1.325-.13-1.55-.406-.402-.493-.532-1.4-.26-1.808.285-.425 2.229-1.017 3.396-1.033.81-.011.845.006 1.067.532zm14.173 7.023c-.085.108-.202.39-.259.628-.065.268-.209.431-.382.431-.152 0-.435.11-.628.244-.282.196-.352.397-.352 1.01 0 .615.07.816.352 1.011.193.134.479.244.635.244.191 0 .317.157.381.476.117.58.59.936 1.244.936.626 0 .997-.275 1.153-.854.089-.33.257-.497.589-.585.603-.16.86-.526.858-1.218-.003-.722-.18-.983-.811-1.193-.36-.12-.549-.304-.633-.618-.066-.245-.212-.503-.325-.574-.319-.201-1.649-.156-1.822.063zM35.18 40.44c-2.084 1.02-2.292 4.745-.806 14.398.713 4.635.023 6.636-2.336 6.778-.93.055-1.103.007-4.624-1.285-1.386-.51-3.084-.687-3.788-.398-1.092.45-1.806 1.912-1.511 3.097.18.725 1.797 2.12 3.87 3.336a42.63 42.63 0 013.712 2.515c2.237 1.736 3.227 2.363 5.212 3.301 1.996.944 3.978 1.518 6.033 1.748 4.784.534 9.795-1.98 11.882-5.963 1.505-2.872 1.523-5.847.056-9.375-1.144-2.753-2.956-4.72-4.893-5.315-.334-.103-.358-.068-.323.452.025.364-.058.658-.234.833-.412.41-.787.075-1.004-.897-.421-1.882-2.54-2.832-4.69-2.104-.558.188-.726.316-.668.51.164.55.566 2.405.566 2.614 0 .121-.143.296-.316.388-.523.278-.881-.045-1.078-.974-1.072-5.05-1.799-8.739-2.078-10.553-.185-1.208-.404-2.358-.487-2.557-.16-.386-1.014-.817-1.605-.811-.199.002-.6.12-.89.262z" fill="#1294F8"/></svg>