<svg width="76" height="76" fill="none" xmlns="http://www.w3.org/2000/svg"><g clip-path="url(#clip0_99_1410)"><path fill-rule="evenodd" clip-rule="evenodd" d="M37.524 13.145c-.315.118-3.663 2.569-7.44 5.446-5.49 4.182-6.927 5.354-7.168 5.844-.29.586-.305 1.336-.346 16.336l-.042 15.721.484.107c.631.14 1.055.703 1.382 1.838.145.505.405 1.195.576 1.533.371.734.736.783 2.159.29 1.9-.66 3.485-.25 4.115 1.063.47.977.387 1.282-.367 1.345-.521.044-.603.004-.603-.292 0-.188-.178-.522-.396-.741-.497-.502-1.28-.524-2.55-.075-1.22.433-2.365.43-2.83-.006-.448-.42-.858-1.245-1.312-2.636-.355-1.092-.36-1.098-.952-1.098-.457 0-.777.152-1.378.652-.43.36-.962.698-1.18.754-.79.2-1.598-.22-2.581-1.34-1.333-1.518-2.239-1.907-2.851-1.224-.234.26-.258.518-.165 1.762l.109 1.457-.492.555c-.431.486-.584.553-1.234.54-.575-.012-.934-.15-1.597-.61-1.245-.864-1.739-.792-2.214.325-.173.407-.47.786-.697.891-.596.273-1.468.037-2.052-.556-.867-.882-1.287-1.09-2.205-1.09-1.039-.002-1.801.3-2.266.895-.363.465-.469 1.286-.188 1.461.407.254.075.407-.882.407-.865 0-1.07.053-1.21.315-.215.406-.213.428.087.73.23.231 4.015.256 39.261.256 35.247 0 39.033-.025 39.262-.255.306-.31.313-.415.052-.77-.174-.237-.57-.279-2.875-.299-1.47-.013-2.918-.104-3.218-.204-.334-.11-.76-.464-1.097-.912-.69-.917-.965-1.02-2.367-.89-1.01.093-1.167.067-1.492-.241-.415-.395-.432-.578-.178-1.856.227-1.138.067-1.571-.718-1.947-1.27-.607-2.015-.307-3.982 1.6-1.41 1.369-2.147 1.87-2.742 1.87-.499 0-1.205-.412-1.51-.883-.47-.723-.978-.961-1.605-.752-.685.227-1.144.727-1.395 1.518a3.88 3.88 0 01-.599 1.098c-.5.599-1.32.646-2.611.152-.81-.31-.89-.315-1.269-.065-.222.146-.522.551-.667.899-.247.594-.305.633-.949.634-.377.001-.685-.053-.684-.12 0-.067.237-.594.524-1.171.8-1.604 1.979-2.07 3.542-1.403.967.413 1.178.345 1.491-.482.154-.406.455-.948.67-1.205l.39-.467-.044-16.4c-.04-15.687-.055-16.427-.346-17.016-.242-.492-1.623-1.625-6.84-5.611-3.595-2.747-6.801-5.159-7.126-5.36-.748-.462-1.847-.597-2.592-.317zm1.992 8.736c.228.181.437.529.465.773.04.346.147.455.49.495.612.07 1.093.743 1.093 1.526 0 .89-.225 1.226-.97 1.451-.512.155-.643.272-.643.575 0 .648-.54 1.032-1.452 1.032-.92 0-1.451-.385-1.451-1.05 0-.328-.102-.418-.569-.507-.712-.135-1.044-.6-1.044-1.466 0-.82.468-1.489 1.092-1.561.344-.04.451-.149.49-.495.07-.604.739-1.101 1.482-1.101.36 0 .769.132 1.017.328zm-24.46 6.117c-.744.406-10.458 7.84-11.02 8.433-.281.298-.59.823-.684 1.166-.114.413-.172 4.099-.173 10.83v10.206h.73c.968 0 1.672.316 2.577 1.158.602.56.776.649.895.46.08-.13.148-.32.15-.422.004-.335 1.11-1.177 1.69-1.287.779-.147 1.313.014 2.295.692 1.235.854 1.39.723 1.252-1.06-.129-1.662.075-2.267.942-2.8 1.187-.73 2.67-.22 4.084 1.405 1.186 1.361 1.456 1.425 2.419.57.413-.367.814-.667.89-.667.077 0 .139-5.883.139-13.073V30.537L19.74 29.4c-.825-.626-1.73-1.257-2.008-1.402-.638-.333-2.067-.333-2.677 0zm44.173.01c-.264.143-1.153.771-1.976 1.395l-1.496 1.134v26.639l.395-.1c.625-.159 1.42.2 2.188.99.39.401.804.73.92.73.115 0 .933-.699 1.818-1.552.884-.853 1.917-1.693 2.296-1.867 1.87-.855 4.295.186 4.555 1.955.06.403.038 1.04-.047 1.419l-.154.687.91-.092c1.35-.135 2.059.165 2.822 1.198.568.767.694.854 1.241.854 1.225 0 1.12 1.106 1.113-11.768-.008-12.215-.014-12.33-.744-13.143-.416-.464-10.539-8.174-11.151-8.493-.64-.334-2.067-.327-2.69.013zM31.49 33.823c.353.356.396.537.396 1.677 0 1.8-.193 1.99-2.023 1.99-1.843 0-2.01-.162-2.01-1.96 0-1.172.042-1.35.397-1.707.35-.354.535-.4 1.62-.4s1.27.046 1.62.4zm8.651.094c.47.474.487.538.429 1.693-.086 1.716-.267 1.88-2.072 1.88-1.805 0-1.985-.164-2.071-1.88-.058-1.155-.042-1.219.429-1.693.453-.457.573-.493 1.642-.493 1.07 0 1.19.036 1.643.493zm8.606-.094c.355.358.396.535.396 1.708 0 1.797-.166 1.959-2.01 1.959-1.83 0-2.022-.19-2.022-1.99 0-1.14.043-1.32.396-1.677.35-.354.535-.4 1.62-.4s1.27.046 1.62.4zm-37.74 7.904c.373.416.523 2.215.242 2.9-.253.617-.776.832-2.022.832-.858 0-1.108-.066-1.485-.393-.427-.37-.452-.467-.452-1.722 0-1.767.197-1.951 2.09-1.951 1.135 0 1.371.048 1.628.334zm8.621-.009c.272.274.323.542.323 1.696 0 1.287-.026 1.391-.425 1.708-.343.272-.655.337-1.62.337-1.054 0-1.242-.047-1.591-.4-.35-.351-.396-.541-.396-1.604 0-.973.064-1.288.334-1.634.314-.402.417-.428 1.693-.428 1.145 0 1.41.051 1.682.325zm41.116.103c.27.346.334.661.334 1.634 0 1.063-.047 1.253-.396 1.604-.349.353-.537.4-1.59.4-.966 0-1.278-.065-1.62-.337-.4-.317-.426-.42-.426-1.708 0-1.154.051-1.422.323-1.696.271-.274.537-.325 1.681-.325 1.277 0 1.38.026 1.694.428zm8.582-.117c.344.28.38.44.38 1.64 0 1.255-.024 1.352-.452 1.722-.376.327-.626.393-1.484.393-1.78 0-2.176-.397-2.176-2.181 0-.794.076-1.126.335-1.457.313-.401.418-.428 1.675-.428 1.08 0 1.415.06 1.722.31zm-38.267 1.17c.692.243.827.567.827 1.987 0 1.784-.2 1.98-2.016 1.98-1.811 0-2.016-.199-2.016-1.956 0-.654.047-1.312.104-1.464.238-.625 1.996-.936 3.1-.547zm9.09.274c.292.295.37.588.42 1.575.059 1.17.044 1.231-.428 1.707-.453.457-.573.492-1.643.492-1.06 0-1.192-.038-1.625-.475-.422-.426-.471-.582-.469-1.504.004-1.81.51-2.296 2.297-2.21.867.042 1.162.127 1.448.415zm8.167-.274c.693.243.827.567.827 1.987 0 1.784-.2 1.98-2.016 1.98-1.811 0-2.016-.199-2.016-1.956 0-.654.047-1.312.105-1.464.238-.625 1.995-.936 3.1-.547zm-37.401 6.81c.427.43.54.96.454 2.148-.098 1.37-.39 1.596-2.063 1.596-1.605 0-1.943-.235-2.057-1.424-.106-1.115.062-1.923.482-2.317.503-.473 2.716-.476 3.184-.004zm8.61.015c.4.317.426.42.426 1.708 0 1.154-.051 1.422-.323 1.696-.271.273-.537.325-1.682.325-1.276 0-1.38-.026-1.693-.429-.27-.346-.334-.66-.334-1.633 0-1.063.046-1.253.396-1.605.349-.352.537-.399 1.59-.399.966 0 1.278.065 1.62.337zm41.157.062c.35.352.396.542.396 1.605 0 .973-.064 1.287-.334 1.633-.314.403-.417.429-1.694.429-1.144 0-1.41-.052-1.681-.325-.272-.274-.323-.542-.323-1.696 0-1.287.026-1.391.425-1.708.343-.272.655-.337 1.62-.337 1.054 0 1.242.047 1.591.4zm8.584-.074c.42.394.588 1.202.481 2.317-.113 1.19-.451 1.424-2.056 1.424-1.674 0-1.965-.225-2.063-1.596-.146-2.024.222-2.47 2.032-2.47 1.037 0 1.322.058 1.606.325zM31.514 52.48c.328.312.373.506.373 1.634 0 1.142-.043 1.323-.396 1.68-.35.351-.537.399-1.591.399-.965 0-1.277-.065-1.62-.338-.397-.314-.425-.424-.425-1.656 0-1.13.05-1.373.35-1.696.31-.332.501-.376 1.643-.376 1.105 0 1.346.051 1.666.353zm8.609-.052c.291.238.383.508.44 1.295.144 2.01-.245 2.47-2.094 2.47-1.81 0-2.178-.447-2.033-2.47.099-1.371.39-1.596 2.063-1.596.981 0 1.335.066 1.624.3zm8.648.052c.332.314.373.503.373 1.696 0 1.257-.027 1.364-.425 1.68-.343.272-.655.337-1.62.337-1.054 0-1.242-.048-1.591-.4-.352-.354-.396-.538-.396-1.656 0-1.067.053-1.314.35-1.634.31-.332.502-.376 1.643-.376 1.105 0 1.347.051 1.666.353z" fill="#1294F8"/></g><defs><clipPath id="clip0_99_1410"><path fill="#fff" d="M0 0h76v76H0z"/></clipPath></defs></svg>