<svg width="20" height="20" fill="none" xmlns="http://www.w3.org/2000/svg"><path d="M10 1.652a6.697 6.697 0 00-4.69 1.912 6.58 6.58 0 00-1.976 4.63c0 4.528 5.875 9.567 6.125 9.782a.838.838 0 001.083 0c.292-.215 6.125-5.254 6.125-9.781a6.58 6.58 0 00-1.976-4.63A6.697 6.697 0 0010 1.651zm0 9.087a2.94 2.94 0 01-1.62-.487 2.897 2.897 0 01-1.074-1.298 2.868 2.868 0 01.632-3.15 2.94 2.94 0 013.179-.627c.532.218.988.589 1.308 1.064a2.873 2.873 0 01-.362 3.651A2.93 2.93 0 0110 10.74z" fill="#FFF500"/></svg>