<svg width="83" height="37" fill="none" xmlns="http://www.w3.org/2000/svg"><path d="M16.981.007C13.235.16 9.654.782 5.864 1.934c-1.165.354-2.914.954-2.95 1.013a1.88 1.88 0 00-.083.213l-.26.754C1.239 7.764.4 11.679.119 15.367a41.484 41.484 0 00-.014 6.091c.263 3.499.93 6.832 2.118 10.578.22.694.67 1.976.705 2.013.037.037.978.374 1.807.646 7.098 2.33 13.74 2.882 20.572 1.708 2.612-.45 5.599-1.253 8.266-2.225l.311-.113.11-.298c.167-.447.605-1.763.8-2.397 1.173-3.835 1.81-7.428 1.982-11.177.034-.742.034-2.633 0-3.395-.18-4.034-.926-7.987-2.297-12.165-.271-.828-.568-1.666-.601-1.7-.037-.036-1.149-.43-1.94-.686C27.983.965 24.484.286 20.575.041A91.296 91.296 0 0016.98.007zM32.587 15.68c0 3.757.01 3.524-.17 4.116a3.343 3.343 0 01-1.68 2.026c-.56.28-1.347.422-2.035.366-1.666-.137-2.814-1.15-3.162-2.79-.084-.394-.084-1.17-.002-1.556.066-.307.208-.732.321-.96.308-.62.901-1.208 1.514-1.502 1.016-.488 2.355-.472 3.36.04.07.036.133.065.14.065.008 0 .015-.722.015-1.605v-1.605l.85.007.849.007v3.391zm-21.616.307l-.366.371.085.118c.222.303.424.753.532 1.185.328 1.305-.036 2.709-.93 3.58l-.195.192.204.201c.518.515.848 1.165.991 1.95.06.326.058.985-.003 1.33-.233 1.315-1.046 2.296-2.238 2.702-.421.143-.746.192-1.267.192a4.05 4.05 0 01-.7-.044c-.762-.141-1.373-.449-1.856-.934-.594-.598-.945-1.42-1.003-2.353l-.016-.254h1.72v.141c0 .306.122.741.288 1.026.049.083.176.239.283.347.336.34.726.496 1.248.498.405.001.586-.04.918-.206.256-.128.563-.443.706-.723.177-.347.243-.636.244-1.073.002-.817-.421-1.546-1.08-1.862-.237-.114-.424-.152-.83-.17-1.087-.045-1.828-.344-2.48-1-.502-.504-.793-1.071-.949-1.844-.072-.357-.065-1.182.012-1.543.275-1.273 1.074-2.203 2.224-2.588.455-.152.724-.194 1.245-.194.503 0 .781.041 1.197.177l.264.086.45-.453.45-.453.61.613.609.613-.367.372zm5.232-.908c.364.064.67.164.999.327.81.4 1.414 1.097 1.702 1.962.408 1.224.181 2.634-.576 3.58-.649.811-1.615 1.243-2.787 1.246-.668 0-1.145-.104-1.69-.37a3.05 3.05 0 01-.926-.68c-.449-.479-.736-1.061-.878-1.78a4.792 4.792 0 01-.01-1.454c.143-.75.467-1.392.948-1.879.551-.558 1.262-.891 2.115-.991a5.39 5.39 0 011.103.039zm7.513-.035c.684.068 1.462.376 1.868.74l.117.105-.583.585-.583.585-.138-.106c-.168-.13-.4-.248-.607-.311-.213-.065-.737-.066-.97-.002-.51.14-.883.461-1.13.97-.215.446-.203.299-.219 2.57l-.014 2.021h-1.713l-.007-1.682c-.009-1.766.009-2.239.1-2.69.204-1.022.777-1.848 1.62-2.337.64-.372 1.44-.53 2.259-.448zM7.382 16.617c-.729.154-1.248.707-1.415 1.507a3.318 3.318 0 000 .98c.15.716.573 1.226 1.19 1.433.194.065.246.07.614.07.369 0 .42-.005.615-.07.616-.207 1.055-.74 1.19-1.448a2.823 2.823 0 00-.016-.996 2.384 2.384 0 00-.424-.865 1.913 1.913 0 00-.872-.581c-.194-.06-.667-.075-.882-.03zm7.874-.02c-.737.119-1.25.587-1.482 1.354-.064.211-.07.273-.072.65-.002.478.03.648.19.992.19.409.438.666.82.851.256.125.498.178.811.179.321 0 .594-.059.862-.187.677-.326 1.09-1.195.987-2.076-.094-.801-.578-1.444-1.27-1.683a1.352 1.352 0 00-.495-.085 3.11 3.11 0 00-.351.005zm13.374.02c-.734.157-1.263.733-1.415 1.541-.058.31-.04.828.04 1.104.104.367.343.76.578.953.324.264.645.383 1.084.402.593.026 1.015-.127 1.388-.501.378-.38.564-.877.562-1.501a1.985 1.985 0 00-.201-.937c-.244-.519-.646-.878-1.153-1.032-.196-.059-.668-.074-.883-.029zM73.535 3.615l-.877.46-.142.88c-.48 2.973-.71 5.883-.68 8.541l.02 1.617-.368.144c-.766.301-1.579.948-2.161 1.722-1.035 1.375-1.249 3.032-.519 4.028.346.472.692.647 1.2.61.632-.046 1.478-.695 2.153-1.653l.341-.484.179.528c.098.29.291.76.429 1.045.723 1.498 1.642 2.362 2.867 2.694l.367.1.135-.127c.163-.153.171-.217.028-.217-.058 0-.248-.053-.421-.118-.85-.317-1.637-1.65-2.02-3.42-.696-3.232-.621-8.627.212-15.19.09-.703.177-1.359.195-1.456.018-.097.011-.174-.015-.17-.025.004-.441.214-.923.466zM60.517 7.161l-.897.31-.092 1.034c-.05.568-.133 1.49-.184 2.048l-.093 1.014-1.556.386c-1.31.326-2.81.75-3.73 1.053l-.215.072-.15.653c-.082.36-.144.693-.138.742.01.074.111.05.638-.152a45.826 45.826 0 013.562-1.217c1.11-.335 1.418-.41 1.431-.349.01.043-.032.782-.094 1.643-.369 5.16-.46 8.727-.27 10.466.098.89.325 1.328.82 1.584.252.13.727.136 1.135.017.668-.196 1.672-.834 2.492-1.585.331-.303.345-.325.279-.453a1.692 1.692 0 00-.088-.155c-.01-.011-.153.11-.318.267-.92.878-1.955 1.317-2.498 1.06-.26-.124-.29-.189-.4-.856-.076-.455-.093-.925-.091-2.52.001-1.886.035-2.63.217-4.817.107-1.291.503-5.128.532-5.157.042-.042 2.674-.615 4.303-.937 1.584-.313 3.54-.642 4.596-.772.45-.055.55-.088.788-.256a5.44 5.44 0 00.326-.244c.128-.121-3.08.134-5.383.43-.936.119-4.129.627-4.465.709-.133.033-.142.128.174-1.83.183-1.13.348-2.285.348-2.433 0-.096.04-.106-.98.245zm-5.357.498c-1.673.194-4.037.838-6.018 1.64-2.97 1.202-4.665 2.302-5.5 3.568-.534.81-.712 1.694-.47 2.333.315.834 1.328 1.44 2.914 1.747.235.045 1.469.215 2.742.377 3.08.392 3.898.576 4.912 1.107 1.127.59 1.757 1.603 1.64 2.633-.118 1.053-.958 2.398-2.178 3.488-1.517 1.355-3.203 2.106-4.248 1.89-.63-.13-1.193-.524-1.354-.947-.104-.272-.053-.556.165-.934.19-.33.814-.89 1.477-1.33.662-.437 2.216-1.218 3.2-1.607.464-.184.776-.35 1.083-.578.237-.176.418-.32.402-.32-.094 0-1.916.65-2.616.933-.927.375-2.335 1.062-3.022 1.476-1.413.85-2.479 1.914-2.782 2.778-.142.404-.145 1.016-.007 1.32.201.44.813.867 1.49 1.042.465.12 1.363.07 2.026-.11 2.05-.561 4.716-2.538 6.36-4.716 1.263-1.672 1.884-2.87 2.052-3.953.255-1.636-1.22-2.979-3.93-3.58-1.032-.228-3.035-.487-4.265-.551-2.035-.106-3.578-.377-4.313-.757-.242-.126-.546-.403-.64-.583-.126-.245-.099-.693.06-1.014.175-.35.776-.927 1.387-1.332 1.532-1.014 4.241-2.005 6.595-2.41 2.082-.357 3.192-.167 3.192.547 0 .196-.133.432-.49.873-.249.305-.34.47-.426.776l-.11.39.157-.113c.226-.16.944-.96 1.367-1.524 1.223-1.625 1.182-2.483-.124-2.578a4.701 4.701 0 00-.728.02zm21.046 6.367c-.18.054-.449.145-.598.202l-.272.105v1.249l.136-.013c.16-.015 1.355-.442 1.455-.52.044-.034.068-.207.068-.505 0-.407-.013-.462-.121-.538-.15-.105-.256-.102-.668.02zm5.03.467c-.236.241-.245.245-.598.245-1.272 0-2.338.847-2.646 2.102-.13.535-.13 1.704 0 2.28.142.62.428 1.19.77 1.53.228.23.354.307.65.398.6.186 1.053.13 1.752-.213.785-.386 1.328-1.133 1.683-2.313.132-.437.148-.582.152-1.334.005-.742-.01-.893-.123-1.252-.24-.767-.483-1.125-.995-1.467-.182-.122-.347-.221-.367-.221-.02 0-.145.11-.277.245zm-5.147 1.324l-.715.254-.04 1.005c-.05 1.292-.006 2.494.108 2.915.327 1.207 1.165 1.976 2.32 2.13.246.032.266.026.266-.081 0-.064-.035-.116-.077-.116-.136 0-.413-.277-.552-.552-.165-.326-.375-1.195-.466-1.925-.07-.575-.085-3.146-.02-3.621.03-.21.021-.27-.035-.267-.04.002-.395.118-.789.258zm4.118.012c.107.054.226.137.265.184.1.12.182.107.33-.05.07-.075.143-.136.161-.136.104 0 .499 1.037.63 1.65.104.489.102 1.556-.002 1.96-.102.391-.322.83-.438.874-.563.217-1.35-.702-1.79-2.089-.38-1.196-.393-1.967-.041-2.359.188-.21.515-.223.885-.034zm-8.298.147c.018.143.044.37.059.504.014.135.091.667.171 1.183.143.927.144.943.048 1.253-.287.93-.679 1.43-1.124 1.43-.602 0-1.073-1.035-1.014-2.23.042-.879.337-1.553.862-1.976.162-.13.777-.408.928-.42.02 0 .052.114.07.256zm-8.804.58c-.928.261-.84.17-1.012 1.052-.162.829-.198 1.869-.087 2.505.132.759.312 1.158.67 1.484.341.313.45.352.882.313.499-.045.88-.267 1.496-.87.298-.292.555-.53.572-.53.016 0 .112.123.212.27.506.746 1.546 1.474 1.863 1.304.094-.05.088-.072-.09-.32-.26-.361-.448-.844-.584-1.499-.094-.45-.113-.736-.112-1.634.001-.6.026-1.242.056-1.43.033-.209.034-.34.003-.34-.088 0-1.207.334-1.247.372-.02.02-.088.294-.151.608-.317 1.586-.797 2.796-1.332 3.355-.533.557-.845.115-.852-1.205-.004-.88.162-1.892.579-3.524.02-.083.017-.148-.009-.144-.025.003-.41.108-.857.233z" opacity=".3" fill-rule="evenodd" clip-rule="evenodd" fill="#1C2539"/></svg>