<svg width="142" height="118" fill="none" xmlns="http://www.w3.org/2000/svg"><mask id="a" style="mask-type:alpha" maskUnits="userSpaceOnUse" x="9" y="7" width="124" height="53"><path fill="#C4C4C4" d="M9 7h123.327v53H9z"/></mask><g mask="url(#a)" fill-rule="evenodd" clip-rule="evenodd"><path d="M94.673 12.389a61.875 61.875 0 00-23.5-4.634v27.202c4.46 0 8.878.87 12.999 2.563a33.99 33.99 0 0111.02 7.3 33.655 33.655 0 017.363 10.923 33.42 33.42 0 012.586 12.886h10.113a42.3 42.3 0 00-1.856-13.23 42.547 42.547 0 00-8.864-15.761A42.994 42.994 0 0089.89 28.92a43.345 43.345 0 00-17.804-3.756l-.031-8.759a52.248 52.248 0 0121.46 4.527 51.834 51.834 0 0117.652 12.918 51.296 51.296 0 0110.684 18.997 51.005 51.005 0 012.24 15.781h8.49c0-7.994-1.589-15.91-4.675-23.295a60.845 60.845 0 00-13.311-19.75A61.447 61.447 0 0094.673 12.39z" fill="#FFF500"/><path d="M14.59 44.977a60.42 60.42 0 00-4.825 23.652h10.617a50.996 50.996 0 012.24-15.78A51.29 51.29 0 0133.307 33.85a51.835 51.835 0 0117.652-12.918 52.246 52.246 0 0121.46-4.527l-.014 4.282.331-12.914a61.887 61.887 0 00-23.975 4.18A61.47 61.47 0 0028.307 25.04 60.857 60.857 0 0014.59 44.977zm57.7-19.812a43.345 43.345 0 00-17.705 3.756A43.003 43.003 0 0039.94 39.638a42.552 42.552 0 00-8.863 15.76 42.31 42.31 0 00-1.857 13.231h7.944c0-4.5.909-8.953 2.672-13.1a33.704 33.704 0 017.597-11.04A34.044 34.044 0 0158.76 37.24a34.277 34.277 0 0113.278-2.315l.25-9.76z" fill="url(#paint0_linear_327_14498)"/></g><path fill="#16327B" d="M0 57h142v44H0zm17.672 54.899h-.924v-6.172h-1.275v6.179h-3.267v-6.179h-1.264V113h5.355v1.719h1.279l.096-2.82zM18.945 113h4.758v-1.104h-3.44v-1.986h3.167v-1.104h-3.168v-1.974h3.413v-1.105h-4.73V113zm6.275 0h1.317v-3.09h3.37V113h1.32v-7.273h-1.32v3.079h-3.37v-3.079h-1.318V113zm7.32-6.168h2.249V113h1.307v-6.168h2.248v-1.105H32.54v1.105zM39.662 113h1.318v-2.457h1.392c1.68 0 2.581-1.009 2.581-2.408 0-1.389-.891-2.408-2.564-2.408h-2.727V113zm1.318-3.541v-2.631h1.207c.987 0 1.424.533 1.424 1.307 0 .774-.437 1.324-1.417 1.324h-1.215zm13.932-3.732h-5.795V113h1.306v-6.179h3.182V113h1.307v-7.273zM56.688 113h1.317v-2.457h1.392c1.68 0 2.582-1.009 2.582-2.408 0-1.389-.891-2.408-2.564-2.408h-2.727V113zm1.317-3.541v-2.631h1.208c.987 0 1.424.533 1.424 1.307 0 .774-.437 1.324-1.417 1.324h-1.215zm11.817-.095c0-2.351-1.435-3.736-3.342-3.736-1.91 0-3.341 1.385-3.341 3.736 0 2.347 1.43 3.735 3.341 3.735 1.907 0 3.342-1.385 3.342-3.735zm-1.325 0c0 1.654-.83 2.553-2.017 2.553-1.182 0-2.017-.899-2.017-2.553 0-1.655.835-2.554 2.017-2.554 1.186 0 2.017.899 2.017 2.554zm2.138-2.532h2.248V113h1.307v-6.168h2.248v-1.105h-5.803v1.105zM77.757 113h4.758v-1.104h-3.44v-1.986h3.167v-1.104h-3.168v-1.974h3.413v-1.105h-4.73V113zm8.813.099c1.555 0 2.688-.891 2.684-2.12.004-.909-.564-1.562-1.583-1.708v-.057c.788-.17 1.317-.756 1.314-1.573.003-1.108-.941-2.013-2.394-2.013-1.413 0-2.507.841-2.535 2.059h1.267c.022-.61.59-.99 1.261-.99.678 0 1.13.412 1.126 1.022.003.636-.522 1.059-1.275 1.059h-.643v1.015h.643c.92 0 1.467.462 1.463 1.119.004.643-.554 1.083-1.332 1.083-.731 0-1.296-.38-1.328-.973h-1.335c.035 1.229 1.133 2.077 2.667 2.077zm4.824 0h.519c1.165 0 1.594-.674 1.939-1.441l2.507-5.931h-1.357l-1.566 3.892-1.81-3.892h-1.379l2.6 5.348-.096.245c-.15.409-.377.671-.941.671h-.416v1.108zm6.103-.099h2.944c1.666 0 2.482-.849 2.482-1.982 0-1.1-.781-1.747-1.555-1.786v-.071c.71-.167 1.271-.664 1.271-1.548 0-1.083-.781-1.886-2.358-1.886h-2.784V113zm1.318-1.101v-2.131h1.452c.813 0 1.318.498 1.318 1.147 0 .579-.398.984-1.353.984h-1.417zm0-3.079v-2.006h1.331c.775 0 1.176.408 1.176.969 0 .64-.519 1.037-1.204 1.037h-1.303zm6.388 4.18l.601-1.793h2.734l.604 1.793h1.406l-2.564-7.273h-1.626L103.797 113h1.406zm.956-2.852l.983-2.929h.057l.984 2.929h-2.024zm5.547 2.852h1.317v-3.09h3.37V113h1.321v-7.273h-1.321v3.079h-3.37v-3.079h-1.317V113zm7.641 0h1.318v-3.09h3.37V113h1.321v-7.273h-1.321v3.079h-3.37v-3.079h-1.318V113zm12.713 0v-7.273h-2.728c-1.669 0-2.564.938-2.564 2.326 0 .987.451 1.719 1.307 2.063L126.502 113h1.47l1.428-2.663h1.342V113h1.318zm-1.318-3.757h-1.214c-.977 0-1.417-.416-1.417-1.19s.44-1.225 1.424-1.225h1.207v2.415z"/><path d="M89.126 57.68c1.672-.02 3.02-1.38 3-3.05-.02-1.668-1.4-2.997-3.07-2.977-1.672.019-3.02 1.38-3 3.048.02 1.669 1.399 2.998 3.07 2.978zM82.16 47.572c1.895-.022 3.421-1.564 3.399-3.454-.022-1.89-1.585-3.396-3.48-3.374-1.894.022-3.42 1.564-3.398 3.454.022 1.89 1.584 3.396 3.479 3.374z" stroke="#76C5F0" stroke-width="1.095"/><path d="M71.62 5.177c-.638-1.74.328-4.058 1.99-4.776.545-.235 2.452-.165 3.497.128.56.157.804.388 1.22 1.16.287.529.524 1.233.528 1.564.004.33.19 1.06.412 1.619.38.952.385 1.032.08 1.258-.18.132-.273.37-.21.529.065.158 0 .517-.143.797s-.22.613-.171.74c.186.484-.27.769-1.429.896-.65.071-1.2.21-1.223.308-.022.098.412.393.964.656 2.086.991 2.624 1.999 2.157 4.04-.15.655-.289 2.125-.308 3.266l-.035 2.074.872.26c.92.273 2.82.185 3.456-.161.192-.104.397-.44.455-.745.12-.634.34-.752 1.73-.93l.997-.127.408.733c.382.688.486 1.695.22 2.133-.065.106-.615.296-1.222.422s-2.186.53-3.509.9c-3.63 1.012-4.654 1.17-5.468.846-.387-.154-.81-.52-.99-.853-.173-.321-.377-.582-.454-.581-.178.003-.713 1.368-.976 2.488-.11.473-.443 1.635-.738 2.581-.295.947-.618 2.104-.718 2.571l-.18.85 1.743 1.585c.959.873 1.95 1.743 2.204 1.935.254.193 1.307 1.578 2.342 3.08 1.947 2.826 2.109 3.238 1.835 4.668-.108.563-.053.74.345 1.1.26.237.435.59.529.573.637-.124 1.536-.285 2.211 1.08.4.806.98 2.362 1.575 3.3.597.938 1.328 2.054 1.566 2.47 1.353 2.373 1.256 2.765 2.136 3.571.279.255.984.542 1.132 1.231.146.552-.205.635-.002.877.33.394.404.41.707.156.232-.195.848-.297 1.964-.326 1.416-.037 1.775-.121 2.788-.652.64-.335 1.316-.611 1.501-.613.552-.007.59.495.094 1.236-.634.946-1.3 1.52-2.705 2.335a23.9 23.9 0 00-2.294 1.556c-.649.51-1.262.845-1.492.815-.454-.059-1.397-1.596-1.6-2.61-.074-.366-.25-.878-.393-1.139-.142-.26-.783.01-1.076-1.19-.297-1.518-.602-1.666-1.712-3.023-.904-.874-4.957-5.888-5.525-6.71-.568-.824-.077-1.364-.018-1.522.135-.36-.574-1.333-.574-1.333-.001-.067-1.256.11-2.52-.567-.43-.323-3.233-1.767-3.713-1.96-.48-.194-1.413-.715-2.075-1.16-.66-.444-1.237-.807-1.28-.807-.042 0-.396.64-.786 1.422-.39.78-1.351 2.228-2.136 3.217-.785.988-1.514 1.968-1.62 2.18-.404.8-1.363 1.635-1.885 1.641-.686.008-4.513-1.936-8.991-4.567-2.483-1.459-5.417-2.463-5.724-1.96-.095.156-.898.176-2.922.073-1.535-.079-3.333-.088-3.995-.02-1.106.111-1.205.09-1.209-.253-.01-.838 1.404-1.657 3.798-2.202 1.426-.323 1.761-.477 2.272-1.038 1.616-1.777 2.63-1.756 3.418.069.17.39.437.71.595.707.158-.001 1.512.491 3.009 1.095 1.874.757 3.189 1.161 4.225 1.301 1.048.142 1.865.395 2.693.836 1.12.597 1.205.614 1.488.297.351-.392.676-1.727.684-2.811.003-.42.199-1.537.434-2.483.411-1.652.415-1.739.085-2.192-.837-1.152-.855-3.22-.043-5.145.3-.712.367-1.087.23-1.296-.141-.216.005-.685.557-1.784.675-1.343.762-1.685.87-3.456.067-1.081.262-2.795.434-3.809.407-2.4.366-2.499-.907-2.152-.543.148-1.566.332-2.275.409-1.632.176-1.961.274-1.958.578.002.134-.35 1.312-.78 2.616-.701 2.121-.781 2.557-.756 4.123.026 1.61.071 1.805.567 2.431l.539.681-.328.936c-.333.948-.669 1.187-1.515 1.079-1.42-.183-1.634-.624-1.226-2.52.208-.965.246-1.985.15-4.052-.117-2.525-.088-2.924.344-4.652.26-1.04.592-2.075.737-2.299.323-.499 4.4-2.757 5.691-3.152.516-.157 1.179-.49 1.473-.738.813-.685 1.68-1.083 2.685-1.231.5-.073 1.258-.37 1.684-.658a42.295 42.295 0 011.302-.845c.457-.28.525-.443.514-1.223a6.404 6.404 0 00-.327-1.755z" fill="#16327B"/><ellipse rx=".548" ry=".543" transform="rotate(-.663 4764.614 -7665.202) skewX(.012)" fill="#fff"/><ellipse rx=".548" ry=".543" transform="rotate(-.663 3853.813 -7068.55) skewX(.012)" fill="#fff"/><path d="M12.545 69.793h-.3v20.2h3.904v-7.42h2.304c2.197 0 3.98-.555 5.319-1.695h0l.002-.002c1.342-1.165 2.007-2.736 2.007-4.679 0-1.298-.301-2.438-.915-3.408-.61-.966-1.468-1.703-2.56-2.211-1.095-.527-2.382-.785-3.853-.785h-5.908zm35.112 20.022l.08.178h4.389l-.198-.426-9.576-20.692-.272-.588-.273.588-9.576 20.692-.197.426h4.389l.079-.178 2.16-4.862h6.835l2.16 4.862zm14.059-2.597l.001.002c.596.953 1.494 1.707 2.674 2.268 1.19.566 2.666.841 4.413.841 2.408 0 4.304-.511 5.646-1.577l.002-.001c1.343-1.086 2.016-2.526 2.016-4.294 0-1.388-.413-2.54-1.258-3.426-.647-.693-1.465-1.23-2.446-1.614.833-.392 1.522-.894 2.061-1.51.719-.818 1.083-1.765 1.083-2.83a4.94 4.94 0 00-.834-2.797c-.557-.855-1.368-1.532-2.416-2.037-1.06-.51-2.338-.758-3.826-.758-1.434 0-2.692.249-3.766.756-1.07.486-1.908 1.163-2.502 2.035-.597.876-.892 1.888-.892 3.025v.3h3.708v-.3c0-.678.291-1.236.913-1.69h0l.004-.003c.625-.473 1.46-.723 2.535-.723 1.098 0 1.872.253 2.375.707h0l.004.003c.51.445.765 1.014.765 1.734 0 .732-.327 1.358-1.03 1.889-.691.523-1.736.807-3.178.807h-.3v3.092h.3c1.536 0 2.703.284 3.533.82h0l.006.004c.828.507 1.229 1.215 1.229 2.152 0 .89-.312 1.554-.921 2.032-.617.483-1.557.748-2.867.748-1.307 0-2.268-.272-2.924-.776-.64-.506-.993-1.175-1.061-2.028l-.022-.276h-3.909v.3c0 1.12.295 2.163.884 3.125zm38.18 2.597l.08.178h4.388l-.197-.426-9.576-20.692-.273-.588-.272.588-9.576 20.692-.197.426h4.388l.08-.178 2.16-4.862h6.834l2.161 4.862zm14.118-20.022h-.3v20.2h3.904v-8.988h9.256v8.988h3.904v-20.2h-3.904v7.56h-9.256v-7.56h-3.604zm-92.081 6.404c0 .972-.317 1.67-.92 2.142-.623.472-1.467.722-2.56.722h-2.304v-5.756h2.304c1.092 0 1.935.26 2.559.748.604.474.92 1.171.92 2.144zm22.352 5.356h-4.41L42.08 76.4l2.205 5.153zm52.239 0h-4.411l2.205-5.153 2.206 5.153z" fill="#fff" stroke="#fff" stroke-width=".6"/><defs><linearGradient id="paint0_linear_327_14498" x1="10" y1="57" x2="66" y2="38" gradientUnits="userSpaceOnUse"><stop stop-color="#1294F8"/><stop offset="1" stop-color="#47BBFA"/></linearGradient></defs></svg>