<svg width="87" height="28" viewBox="0 0 87 28" fill="none" xmlns="http://www.w3.org/2000/svg">
<rect width="87" height="28" fill="#E5E5E5"/>
<g clip-path="url(#clip0_156_4891)">
<rect width="360" height="5083" transform="translate(-12 -10)" fill="white"/>
<path d="M3.09424 6.42072H2.7879V6.72705V22.338V22.6444H3.09424H5.7258H6.03214V22.338V16.7345H7.79984C9.56113 16.7345 10.999 16.2896 12.0798 15.3678L12.0798 15.3678L12.0818 15.3661C13.1677 14.4238 13.7038 13.1533 13.7038 11.5888C13.7038 10.5439 13.4615 9.62277 12.965 8.83802C12.471 8.05713 11.7783 7.4619 10.897 7.05228C10.0146 6.62731 8.97907 6.42072 7.79984 6.42072H3.09424ZM27.8769 22.4625L27.9578 22.6444H28.1568H31.1229H31.6023L31.4009 22.2094L23.7739 5.72864L23.4958 5.12791L23.2178 5.72864L15.5908 22.2094L15.3894 22.6444H15.8688H18.8349H19.0339L19.1148 22.4625L20.818 18.6301H26.1736L27.8769 22.4625ZM35.956 20.4017L35.9575 20.4041C36.44 21.1761 37.1658 21.7842 38.1151 22.2356C39.0752 22.692 40.261 22.912 41.6588 22.912C43.5852 22.912 45.1128 22.5031 46.1981 21.6413L46.2002 21.6396C47.2855 20.7617 47.8304 19.5951 47.8304 18.1677C47.8304 17.048 47.4972 16.1131 46.8101 15.3927C46.3188 14.8659 45.7061 14.4523 44.9788 14.1479C45.5883 13.8425 46.0991 13.4593 46.5054 12.9952C47.0881 12.3315 47.3844 11.5614 47.3844 10.6967C47.3844 9.86565 47.1597 9.1079 46.7094 8.43192C46.2578 7.73892 45.6019 7.19202 44.7578 6.78556C43.9029 6.37397 42.8734 6.1754 41.6811 6.1754C40.5319 6.1754 39.5196 6.37444 38.653 6.78368C37.7922 7.17532 37.1145 7.7219 36.6332 8.4278C36.1494 9.13739 35.9109 9.95697 35.9109 10.8751V11.1815H36.2172H38.6927H38.999V10.8751C38.999 10.3584 39.219 9.9336 39.6984 9.58378L39.6984 9.58381L39.7027 9.5806C40.1858 9.21501 40.8361 9.01822 41.6811 9.01822C42.5465 9.01822 43.144 9.21731 43.5275 9.56365L43.5274 9.56369L43.5316 9.56732C43.9223 9.90759 44.1178 10.3421 44.1178 10.8974C44.1178 11.4559 43.8704 11.9356 43.325 12.348C42.7904 12.7522 41.9752 12.9773 40.8336 12.9773H40.5273V13.2837V15.2685V15.5748H40.8336C42.0497 15.5748 42.9652 15.8 43.6112 16.2172L43.6112 16.2172L43.6175 16.2211C44.2579 16.6132 44.5638 17.1551 44.5638 17.8778C44.5638 18.5682 44.3235 19.0767 43.8561 19.4431C43.3819 19.8147 42.6506 20.0246 41.6142 20.0246C40.5821 20.0246 39.8334 19.8091 39.3269 19.4201C38.8325 19.0292 38.5603 18.5145 38.5074 17.8533L38.4849 17.5714H38.2021H35.5482H35.2418V17.8778C35.2418 18.7821 35.4807 19.6254 35.956 20.4017ZM63.2394 22.4625L63.3203 22.6444H63.5194H66.4855H66.9648L66.7635 22.2094L59.1364 5.72864L58.8584 5.12791L58.5804 5.72864L50.9533 22.2094L50.752 22.6444H51.2313H54.1974H54.3965L54.4773 22.4625L56.1806 18.6301H61.5362L63.2394 22.4625ZM71.4237 6.42072H71.1173V6.72705V22.338V22.6444H71.4237H74.0552H74.3616V22.338V15.4856H81.599V22.338V22.6444H81.9053H84.5369H84.8432V22.338V6.72705V6.42072H84.5369H81.9053H81.599V6.72705V12.4421H74.3616V6.72705V6.42072H74.0552H71.4237ZM10.5042 11.5888C10.5042 12.3462 10.2586 12.88 9.79844 13.2417C9.31634 13.6056 8.65976 13.8025 7.79984 13.8025H6.03214V9.35274H7.79984C8.65879 9.35274 9.31443 9.55649 9.7964 9.93425C10.2579 10.296 10.5042 10.8302 10.5042 11.5888ZM25.1502 15.7873H21.8415L23.4958 11.9214L25.1502 15.7873ZM60.5127 15.7873H57.204L58.8584 11.9214L60.5127 15.7873Z" fill="#16327B" stroke="#16327B" stroke-width="0.612676"/>
<rect y="0.894409" width="87" height="26.9577" fill="#16327B"/>
<path d="M12.4897 8.08913H12.2753V8.30356V20.312V20.5265H12.4897H14.514H14.7285V20.312V15.9804H16.1094C17.4607 15.9804 18.5614 15.6391 19.3879 14.9341L19.388 14.9341L19.3893 14.9329C20.2195 14.2126 20.6298 13.2414 20.6298 12.0433C20.6298 11.2429 20.4442 10.5385 20.0647 9.93872C19.687 9.34166 19.1573 8.8864 18.4828 8.57291C17.8075 8.24764 17.0142 8.08913 16.1094 8.08913H12.4897ZM31.5727 20.3991L31.6293 20.5265H31.7687H34.0503H34.3858L34.2449 20.222L28.3779 7.54446L28.1833 7.12395L27.9887 7.54446L22.1217 20.222L21.9808 20.5265H22.3163H24.5979H24.7373L24.7939 20.3991L26.1097 17.4386H30.2569L31.5727 20.3991ZM37.7861 18.8114L37.7871 18.8131C38.1558 19.403 38.7106 19.8683 39.438 20.214C40.1728 20.5634 41.0817 20.7323 42.1548 20.7323C43.634 20.7323 44.8037 20.4183 45.6333 19.7594L45.6348 19.7582C46.4645 19.0872 46.881 18.1959 46.881 17.104C46.881 16.2473 46.6261 15.5337 46.102 14.9841C45.7167 14.5709 45.2334 14.2484 44.6573 14.0137C45.1427 13.7764 45.5475 13.4763 45.8672 13.1109C46.312 12.6042 46.5379 12.0169 46.5379 11.3571C46.5379 10.7219 46.3662 10.1432 46.0223 9.62678C45.6773 9.09736 45.176 8.67898 44.5294 8.36768C43.8754 8.0528 43.0869 7.90042 42.1719 7.90042C41.2904 7.90042 40.5148 8.05312 39.8516 8.36633C39.1925 8.66621 38.6742 9.08434 38.3064 9.62378C37.9369 10.1658 37.7545 10.792 37.7545 11.4944V11.7088H37.969H39.8732H40.0876V11.4944C40.0876 11.0894 40.2606 10.7566 40.6343 10.4839L40.6343 10.4839L40.6373 10.4817C41.0136 10.197 41.5187 10.0448 42.1719 10.0448C42.8405 10.0448 43.3061 10.1986 43.6064 10.4698L43.6064 10.4699L43.6093 10.4724C43.9147 10.7384 44.0675 11.0785 44.0675 11.5115C44.0675 11.9488 43.8733 12.3237 43.4493 12.6443C43.0329 12.9591 42.4005 13.1327 41.52 13.1327H41.3056V13.3471V14.8739V15.0883H41.52C42.4577 15.0883 43.1666 15.2619 43.6682 15.5858L43.6681 15.5859L43.6725 15.5886C44.1713 15.8939 44.4106 16.3176 44.4106 16.881C44.4106 17.4178 44.2234 17.8155 43.8581 18.1018C43.4881 18.3918 42.9201 18.5536 42.1205 18.5536C41.3239 18.5536 40.7427 18.3873 40.348 18.0842C39.9628 17.7797 39.7507 17.3782 39.7095 16.8639L39.6937 16.6666H39.4958H37.4543H37.2399V16.881C37.2399 17.5728 37.4225 18.2176 37.7861 18.8114ZM58.7747 20.3991L58.8313 20.5265H58.9706H61.2522H61.5878L61.4468 20.222L55.5798 7.54446L55.3852 7.12395L55.1906 7.54446L49.3237 20.222L49.1827 20.5265H49.5183H51.7999H51.9392L51.9958 20.3991L53.3116 17.4386H57.4589L58.7747 20.3991ZM65.0508 8.08913H64.8364V8.30356V20.312V20.5265H65.0508H67.0751H67.2896V20.312V15.0197H72.8992V20.312V20.5265H73.1137H75.1379H75.3524V20.312V8.30356V8.08913H75.1379H73.1137H72.8992V8.30356V12.721H67.2896V8.30356V8.08913H67.0751H65.0508ZM18.2109 12.0433C18.2109 12.6312 18.02 13.0486 17.6598 13.3316C17.2842 13.6152 16.7742 13.7674 16.1094 13.7674H14.7285V10.3021H16.1094C16.7735 10.3021 17.2829 10.4597 17.6583 10.7539C18.0195 11.037 18.2109 11.4547 18.2109 12.0433ZM29.488 15.2942H26.8786L28.1833 12.2453L29.488 15.2942ZM56.69 15.2942H54.0805L55.3852 12.2453L56.69 15.2942Z" fill="white" stroke="white" stroke-width="0.428873"/>
</g>
<defs>
<clipPath id="clip0_156_4891">
<rect width="360" height="5083" fill="white" transform="translate(-12 -10)"/>
</clipPath>
</defs>
</svg>
