<svg width="142" height="118" fill="none" xmlns="http://www.w3.org/2000/svg"><path d="M58.69 70.843l-.003-.004a7.756 7.756 0 01-1.166-4.12v-.5h5.294l.036.461c.087 1.08.531 1.92 1.338 2.557.827.635 2.049.987 3.733.987 1.692 0 2.885-.343 3.66-.95.762-.597 1.155-1.427 1.155-2.554 0-1.18-.5-2.064-1.545-2.704l-.01-.006h0c-1.055-.681-2.549-1.049-4.534-1.049h-.5v-4.24h.5c1.863 0 3.194-.367 4.067-1.027.89-.673 1.294-1.456 1.294-2.367 0-.907-.32-1.616-.957-2.171l-.007-.006h0c-.626-.566-1.601-.89-3.014-.89-1.379 0-2.44.32-3.229.917l-.007.006h0c-.782.57-1.141 1.264-1.141 2.107v.5h-5.04v-.5c0-1.498.389-2.836 1.178-3.994.786-1.152 1.892-2.044 3.297-2.684 1.415-.668 3.067-.992 4.942-.992 1.947 0 3.627.324 5.022.995 1.378.664 2.448 1.556 3.186 2.688.734 1.103 1.101 2.34 1.101 3.696 0 1.411-.483 2.668-1.434 3.751 0 0 0 0 0 0l-.376-.33c-.705.806-1.626 1.46-2.764 1.965L58.689 70.843zm0 0c.787 1.26 1.971 2.253 3.521 2.99 1.567.745 3.503 1.104 5.784 1.104 3.144 0 5.638-.668 7.409-2.074l.003-.003c1.772-1.433 2.661-3.337 2.661-5.667 0-1.827-.543-3.353-1.665-4.529-.802-.86-1.802-1.535-2.99-2.032L58.69 70.843zM5.05 48.02h-.5V74.5h5.296v-9.646h2.885c2.875 0 5.222-.726 6.986-2.23h0l.003-.004c1.772-1.537 2.647-3.611 2.647-6.165 0-1.705-.395-3.209-1.206-4.49-.806-1.274-1.937-2.246-3.375-2.914-1.44-.694-3.13-1.031-5.055-1.031H5.05zM45.5 74.203l.132.297h5.949l-.329-.71-12.449-26.9-.453-.98-.454.98-12.449 26.9-.328.71h5.948l.132-.297 2.78-6.255h8.741l2.78 6.255zm57.719 0l.132.297h5.948l-.329-.71-12.448-26.9-.454-.98-.454.98-12.449 26.9-.328.71h5.948l.132-.297 2.78-6.255h8.742l2.78 6.255zm13.358-26.183h-.5V74.5h5.295V62.816h11.813V74.5h5.295V48.02h-5.295v9.828h-11.813V48.02h-4.795zm-99.432 8.435c0 1.236-.4 2.108-1.152 2.698-.787.594-1.859.915-3.262.915H9.846v-7.262h2.885c1.402 0 2.472.332 3.259.949.753.59 1.155 1.462 1.155 2.7zm23.905 6.853h-5.4l2.7-6.31 2.7 6.31zm57.718 0h-5.4l2.7-6.31 2.7 6.31z" fill="#16327B" stroke="#16327B"/><path fill="#16327B" d="M0 39h142v44H0z"/><path d="M20.385 50.743h-.35v20.3h4.004v-7.42h2.254c2.206 0 4.002-.557 5.351-1.707h0l.002-.002c1.355-1.176 2.025-2.761 2.025-4.717 0-1.306-.303-2.456-.922-3.435-.617-.974-1.481-1.718-2.582-2.23-1.103-.53-2.397-.789-3.874-.789h-5.908zm31.147 20.092l.092.208h4.499l-.23-.497-9.576-20.692-.317-.686-.318.686-9.576 20.692-.23.497h4.499l.093-.208 2.147-4.832h6.77l2.147 4.832zm10.141-2.591l.002.003c.602.963 1.507 1.722 2.695 2.286 1.199.57 2.682.846 4.434.846 2.414 0 4.323-.512 5.677-1.588l.003-.002c1.354-1.095 2.034-2.55 2.034-4.332 0-1.398-.416-2.563-1.272-3.46-.628-.674-1.417-1.2-2.358-1.584.792-.387 1.453-.877 1.975-1.473.726-.827 1.095-1.786 1.095-2.863a4.99 4.99 0 00-.842-2.824c-.563-.864-1.381-1.547-2.436-2.055-1.068-.514-2.355-.763-3.848-.763-1.44 0-2.705.25-3.787.76-1.076.49-1.922 1.173-2.522 2.053-.604.885-.901 1.907-.901 3.053v.35h3.808v-.35c0-.66.282-1.204.892-1.65v.001l.005-.004c.614-.464 1.439-.713 2.505-.713 1.091 0 1.851.251 2.341.694h0l.005.004c.498.434.748.99.748 1.696 0 .714-.317 1.326-1.01 1.849-.679.514-1.711.797-3.148.797h-.35v3.192h.35c1.53 0 2.687.283 3.506.812h0l.007.005c.814.498 1.205 1.19 1.205 2.11 0 .875-.306 1.524-.902 1.992-.604.473-1.531.737-2.836.737-1.3 0-2.249-.271-2.893-.766-.629-.497-.975-1.152-1.042-1.992l-.026-.322h-4.005v.35c0 1.13.298 2.182.891 3.151zm34.257 2.591l.093.208h4.499l-.23-.497-9.576-20.692-.318-.686-.317.686-9.576 20.692-.23.497h4.499l.092-.208 2.148-4.832h6.769l2.147 4.832zm10.244-20.092h-.35v20.3h4.004v-8.988h9.156v8.988h4.004v-20.3h-4.004v7.56h-9.156v-7.56h-3.654zm-76.451 6.454c0 .96-.312 1.641-.9 2.103-.613.463-1.445.711-2.53.711h-2.254v-5.656h2.254c1.084 0 1.915.257 2.528.738.59.462.902 1.143.902 2.104zm18.406 5.306H43.87L46 57.527l2.13 4.976zm44.399 0h-4.26l2.13-4.976 2.13 4.976z" fill="#fff" stroke="#fff" stroke-width=".7"/></svg>