<svg width="142" height="118" viewBox="0 0 142 118" fill="none" xmlns="http://www.w3.org/2000/svg">
<mask id="mask0_235_11234" style="mask-type:alpha" maskUnits="userSpaceOnUse" x="9" y="7" width="124" height="53">
<rect x="9" y="7" width="123.327" height="53" fill="#C4C4C4"/>
</mask>
<g mask="url(#mask0_235_11234)">
<path fill-rule="evenodd" clip-rule="evenodd" d="M94.6728 12.3886C87.2225 9.32934 79.2373 7.75476 71.1731 7.75476L71.1731 34.9566C75.6338 34.9566 80.0508 35.8276 84.1719 37.5198C88.2931 39.2121 92.0377 41.6924 95.1918 44.8192C98.346 47.946 100.848 51.6581 102.555 55.7435C104.262 59.8289 105.141 64.2076 105.141 68.6295H115.254C115.34 64.1598 114.717 59.6943 113.398 55.3985C111.611 49.5784 108.589 44.2045 104.534 39.6377C100.48 35.0709 95.4865 31.4167 89.8899 28.9206C84.2932 26.4245 78.2227 25.1441 72.0858 25.1654L72.0548 16.4064C79.452 16.3807 86.7692 17.924 93.5151 20.9328C100.261 23.9415 106.28 28.3461 111.167 33.8507C116.054 39.3554 119.697 45.8328 121.851 52.8482C123.424 57.9727 124.176 63.2976 124.091 68.6295H132.581C132.581 60.6354 130.992 52.7194 127.906 45.3338C124.82 37.9481 120.297 31.2373 114.595 25.5846C108.893 19.9318 102.123 15.4478 94.6728 12.3886Z" fill="#FFF500"/>
<path fill-rule="evenodd" clip-rule="evenodd" d="M14.5903 44.9765C11.4059 52.4626 9.7653 60.505 9.7653 68.6295H20.3821C20.2971 63.2975 21.0493 57.9726 22.6226 52.8481C24.7764 45.8327 28.4193 39.3553 33.3065 33.8506C38.1938 28.346 44.2124 23.9414 50.9584 20.9327C57.7043 17.9239 65.0215 16.3806 72.4187 16.4063L72.4036 20.6882L72.7351 7.77442C64.5421 7.56774 56.3903 8.98894 48.76 11.9543C41.1298 14.9196 34.1755 19.3691 28.307 25.0404C22.4386 30.7118 17.7747 37.4903 14.5903 44.9765ZM72.2887 25.1651C66.1855 25.1578 60.1501 26.4378 54.5836 28.9205C48.987 31.4166 43.9938 35.0708 39.9392 39.6376C35.8846 44.2044 32.8624 49.5783 31.0755 55.3984C29.7566 59.6942 29.1333 64.1597 29.2191 68.6295H37.1631C37.1631 64.1298 38.0717 59.6757 39.8354 55.5296C41.599 51.3835 44.1821 47.6293 47.4322 44.4883C50.6824 41.3473 54.5339 38.883 58.7598 37.2407C62.9857 35.5984 67.5005 34.8113 72.0381 34.9257L72.2887 25.1651Z" fill="url(#paint0_linear_235_11234)"/>
</g>
<path d="M17.6715 111.899H16.7482V105.727H15.4734V111.906H12.2063V105.727H10.9421V113H16.2973V114.719H17.5757L17.6715 111.899Z" fill="#16327B"/>
<path d="M18.9449 113H23.7034V111.896H20.2623V109.91H23.43V108.806H20.2623V106.832H23.675V105.727H18.9449V113Z" fill="#16327B"/>
<path d="M25.2191 113H26.5366V109.91H29.9066V113H31.2276V105.727H29.9066V108.806H26.5366V105.727H25.2191V113Z" fill="#16327B"/>
<path d="M32.5409 106.832H34.7888V113H36.0956V106.832H38.3435V105.727H32.5409V106.832Z" fill="#16327B"/>
<path d="M39.6621 113H40.9795V110.543H42.3716C44.0513 110.543 44.9533 109.534 44.9533 108.135C44.9533 106.746 44.0619 105.727 42.3893 105.727H39.6621V113ZM40.9795 109.459V106.828H42.1869C43.1741 106.828 43.6109 107.361 43.6109 108.135C43.6109 108.909 43.1741 109.459 42.194 109.459H40.9795Z" fill="#16327B"/>
<path d="M54.912 105.727H49.1166V113H50.4234V106.821H53.6052V113H54.912V105.727Z" fill="#16327B"/>
<path d="M56.6878 113H58.0053V110.543H59.3974C61.077 110.543 61.979 109.534 61.979 108.135C61.979 106.746 61.0877 105.727 59.4151 105.727H56.6878V113ZM58.0053 109.459V106.828H59.2127C60.1999 106.828 60.6367 107.361 60.6367 108.135C60.6367 108.909 60.1999 109.459 59.2198 109.459H58.0053Z" fill="#16327B"/>
<path d="M69.822 109.364C69.822 107.013 68.3873 105.628 66.4803 105.628C64.5698 105.628 63.1387 107.013 63.1387 109.364C63.1387 111.711 64.5698 113.099 66.4803 113.099C68.3873 113.099 69.822 111.714 69.822 109.364ZM68.4974 109.364C68.4974 111.018 67.6664 111.917 66.4803 111.917C65.2978 111.917 64.4633 111.018 64.4633 109.364C64.4633 107.709 65.2978 106.81 66.4803 106.81C67.6664 106.81 68.4974 107.709 68.4974 109.364Z" fill="#16327B"/>
<path d="M70.6354 106.832H72.8833V113H74.1901V106.832H76.438V105.727H70.6354V106.832Z" fill="#16327B"/>
<path d="M77.7566 113H82.5151V111.896H79.0741V109.91H82.2417V108.806H79.0741V106.832H82.4867V105.727H77.7566V113Z" fill="#16327B"/>
<path d="M86.5699 113.099C88.1253 113.099 89.2581 112.208 89.2545 110.979C89.2581 110.07 88.6899 109.417 87.6707 109.271V109.214C88.4591 109.044 88.9882 108.458 88.9846 107.641C88.9882 106.533 88.0436 105.628 86.5912 105.628C85.1778 105.628 84.0841 106.469 84.0557 107.687H85.3234C85.3447 107.077 85.9129 106.697 86.5841 106.697C87.2624 106.697 87.7133 107.109 87.7098 107.719C87.7133 108.355 87.1878 108.778 86.4349 108.778H85.7922V109.793H86.4349C87.3547 109.793 87.9016 110.255 87.898 110.912C87.9016 111.555 87.344 111.995 86.5663 111.995C85.8348 111.995 85.2702 111.615 85.2382 111.022H83.903C83.9385 112.251 85.0358 113.099 86.5699 113.099Z" fill="#16327B"/>
<path d="M91.3943 113.099H91.9128C93.0776 113.099 93.5073 112.425 93.8517 111.658L96.3588 105.727H95.0023L93.4362 109.619L91.6252 105.727H90.2473L92.8468 111.075L92.7509 111.32C92.6017 111.729 92.3745 111.991 91.8098 111.991H91.3943V113.099Z" fill="#16327B"/>
<path d="M97.4972 113H100.441C102.107 113 102.923 112.151 102.923 111.018C102.923 109.918 102.142 109.271 101.368 109.232V109.161C102.078 108.994 102.639 108.497 102.639 107.613C102.639 106.53 101.858 105.727 100.281 105.727H97.4972V113ZM98.8147 111.899V109.768H100.267C101.08 109.768 101.585 110.266 101.585 110.915C101.585 111.494 101.187 111.899 100.232 111.899H98.8147ZM98.8147 108.82V106.814H100.146C100.921 106.814 101.322 107.222 101.322 107.783C101.322 108.423 100.803 108.82 100.118 108.82H98.8147Z" fill="#16327B"/>
<path d="M105.203 113L105.804 111.207H108.538L109.142 113H110.548L107.984 105.727H106.358L103.797 113H105.203ZM106.159 110.148L107.142 107.219H107.199L108.183 110.148H106.159Z" fill="#16327B"/>
<path d="M111.706 113H113.023V109.91H116.393V113H117.714V105.727H116.393V108.806H113.023V105.727H111.706V113Z" fill="#16327B"/>
<path d="M119.347 113H120.665V109.91H124.035V113H125.356V105.727H124.035V108.806H120.665V105.727H119.347V113Z" fill="#16327B"/>
<path d="M132.06 113V105.727H129.332C127.663 105.727 126.768 106.665 126.768 108.053C126.768 109.04 127.219 109.772 128.075 110.116L126.502 113H127.972L129.4 110.337H130.742V113H132.06ZM130.742 109.243H129.528C128.551 109.243 128.111 108.827 128.111 108.053C128.111 107.279 128.551 106.828 129.535 106.828H130.742V109.243Z" fill="#16327B"/>
<path d="M89.1262 57.6791C90.7978 57.6597 92.1453 56.2993 92.1256 54.6307C92.1059 52.962 90.7268 51.6332 89.0552 51.6525C87.3836 51.6719 86.0362 53.0323 86.0558 54.701C86.0755 56.3696 87.4546 57.6985 89.1262 57.6791Z" stroke="#76C5F0" stroke-width="1.09544"/>
<path d="M82.16 47.572C84.0549 47.55 85.5812 46.0081 85.5589 44.1181C85.5366 42.2281 83.9744 40.722 82.0796 40.7439C80.1847 40.7659 78.6584 42.3078 78.6807 44.1978C78.703 46.0878 80.2652 47.5939 82.16 47.572Z" stroke="#76C5F0" stroke-width="1.09544"/>
<path d="M71.6202 5.17712C70.9822 3.43727 71.9479 1.11891 73.6099 0.401371C74.1549 0.16598 76.0622 0.235559 77.1074 0.529146C77.6676 0.686366 77.9106 0.917204 78.3274 1.68823C78.6135 2.21778 78.8509 2.9219 78.855 3.2527C78.8589 3.58369 79.0445 4.31223 79.2675 4.87167C79.647 5.8238 79.652 5.90417 79.3473 6.12953C79.1677 6.26235 79.0737 6.49957 79.1378 6.65873C79.2016 6.81731 79.1369 7.17616 78.9939 7.45626C78.8509 7.73616 78.774 8.06923 78.8229 8.19655C79.0085 8.67981 78.5533 8.96504 77.3941 9.09205C76.7441 9.16324 76.1941 9.30168 76.1715 9.3999C76.1489 9.49793 76.5827 9.79307 77.1351 10.0558C79.2206 11.047 79.7586 12.0549 79.2916 14.0963C79.1419 14.7515 79.0034 16.221 78.984 17.3618L78.949 19.4363L79.8207 19.6953C80.7409 19.969 82.6402 19.8809 83.2765 19.535C83.4687 19.4307 83.6736 19.0951 83.7318 18.7895C83.8523 18.1558 84.0723 18.0376 85.4624 17.86L86.4592 17.7326L86.8668 18.466C87.2492 19.154 87.353 20.1615 87.0865 20.5986C87.0218 20.7047 86.472 20.8948 85.8649 21.0209C85.2578 21.1469 83.6788 21.5519 82.3562 21.9207C78.7252 22.9332 77.7022 23.0914 76.8877 22.7666C76.5015 22.6125 76.0774 22.2469 75.8978 21.9138C75.725 21.5929 75.5208 21.3317 75.4438 21.333C75.266 21.336 74.7307 22.7014 74.4682 23.8211C74.3572 24.294 74.025 25.4557 73.7299 26.4025C73.4347 27.3493 73.1119 28.506 73.0124 28.9731L72.8319 29.8223L74.575 31.4082C75.5336 32.2806 76.5256 33.1515 76.779 33.3435C77.0325 33.5358 78.0861 34.9213 79.1205 36.4223C81.068 39.249 81.2299 39.6608 80.9557 41.0913C80.8477 41.6545 80.9031 41.8311 81.3011 42.1919C81.5619 42.428 81.7357 42.7818 81.8297 42.7636C82.4666 42.6398 83.3656 42.4792 84.0414 43.8441C84.4406 44.6504 85.0201 46.2064 85.6164 47.1442C86.2129 48.0822 86.9442 49.1983 87.1817 49.6148C88.5349 51.9869 88.4377 52.3789 89.3185 53.185C89.5968 53.4398 90.3025 53.7266 90.4503 54.4162C90.5964 54.9676 90.245 55.051 90.4481 55.2928C90.7789 55.6865 90.8522 55.7028 91.1552 55.4487C91.3872 55.2539 92.0029 55.1517 93.1188 55.1226C94.5353 55.0856 94.8943 55.0018 95.9074 54.4709C96.547 54.1359 97.2226 53.8599 97.4084 53.8577C97.9602 53.8513 97.998 54.3535 97.5016 55.0941C96.8676 56.0401 96.2023 56.6144 94.7967 57.4294C94.1412 57.8093 93.1093 58.5095 92.5034 58.9853C91.8541 59.4952 91.241 59.8297 91.0106 59.7998C90.5567 59.741 89.6142 58.2037 89.4106 57.1902C89.3369 56.8242 89.1603 56.3117 89.018 56.0513C88.8756 55.7909 88.2352 56.0604 87.9418 54.8601C87.6446 53.3426 87.3403 53.1954 86.2304 51.8381C85.3263 50.9637 81.2732 45.9501 80.7049 45.1271C80.1366 44.3041 80.628 43.7636 80.687 43.6064C80.8221 43.2464 80.1127 42.2727 80.1127 42.2727C80.1119 42.2056 78.8571 42.3832 77.5923 41.7065C77.1638 41.3826 74.3604 39.9395 73.8804 39.746C73.4004 39.5525 72.4666 39.0305 71.8054 38.5863C71.1441 38.1419 70.5683 37.7786 70.5259 37.7791C70.4832 37.7796 70.1292 38.4193 69.7391 39.2006C69.3489 39.9818 68.3876 41.4295 67.6026 42.4176C66.8179 43.4055 66.0886 44.3865 65.9822 44.5974C65.579 45.3971 64.6197 46.2331 64.0982 46.2391C63.4123 46.2471 59.5854 44.3033 55.1068 41.6721C52.6238 40.2134 49.6904 39.2087 49.3835 39.712C49.2884 39.8678 48.4855 39.888 46.461 39.7847C44.9256 39.7064 43.1277 39.6973 42.4657 39.7645C41.3604 39.8762 41.2613 39.8556 41.2573 39.5118C41.2474 38.6742 42.6615 37.8547 45.0551 37.3105C46.4806 36.9866 46.8165 36.8329 47.3266 36.272C48.9429 34.4952 49.9567 34.5156 50.7452 36.3406C50.9143 36.7319 51.1821 37.0503 51.3402 37.0484C51.4984 37.0466 52.8525 37.5392 54.3489 38.1432C56.2234 38.8996 57.538 39.3044 58.5742 39.4441C59.622 39.5856 60.4388 39.8391 61.2666 40.2797C62.3878 40.8767 62.4718 40.8935 62.7549 40.5773C63.106 40.185 63.4311 38.8497 63.4392 37.7659C63.4423 37.3466 63.6376 36.2294 63.8734 35.2833C64.2845 33.6314 64.2879 33.5444 63.9579 33.0907C63.1205 31.9394 63.1035 29.8712 63.9152 27.9464C64.2157 27.2344 64.2823 26.8589 64.1457 26.6503C64.0036 26.4337 64.1498 25.9651 64.7024 24.8659C65.3774 23.5229 65.4637 23.1806 65.5723 21.4096C65.6387 20.3286 65.8337 18.6147 66.0059 17.6011C66.4135 15.2008 66.3718 15.102 65.0992 15.4493C64.5565 15.5974 63.5329 15.7811 62.8245 15.8578C61.1924 16.0343 60.8628 16.1317 60.8663 16.4356C60.8679 16.5703 60.5166 17.748 60.0857 19.0524C59.3848 21.1734 59.305 21.6089 59.3302 23.1746C59.3559 24.7853 59.4013 24.9799 59.8972 25.6063L60.436 26.2873L60.1075 27.2233C59.7749 28.1711 59.439 28.4103 58.5934 28.3016C57.1732 28.1191 56.9587 27.6782 57.3674 25.782C57.5753 24.8172 57.6131 23.7967 57.5171 21.7304C57.3997 19.2052 57.4292 18.8064 57.8614 17.0776C58.1213 16.0376 58.4527 15.0033 58.5978 14.7792C58.9206 14.2802 62.9974 12.0224 64.289 11.6274C64.8052 11.4696 65.468 11.1373 65.7622 10.8892C66.5746 10.2036 67.4416 9.80594 68.4466 9.65803C68.9469 9.58458 69.7048 9.2886 70.1311 9.00046C70.5574 8.71232 71.1433 8.33161 71.4331 8.15464C71.8898 7.87548 71.9583 7.71231 71.9466 6.93183C71.9392 6.43641 71.7923 5.64682 71.6202 5.17712Z" fill="#16327B"/>
<ellipse rx="0.547717" ry="0.542965" transform="matrix(0.999933 -0.0115811 0.0117847 0.999931 89.0907 54.6659)" fill="white"/>
<ellipse rx="0.547717" ry="0.542966" transform="matrix(0.999933 -0.0115811 0.0117847 0.999931 82.1198 44.1578)" fill="white"/>
<path d="M12.5449 69.7932H12.2449V70.0932V89.6932V89.9932H12.5449H15.8489H16.1489V89.6932V82.5732H18.4529C20.65 82.5732 22.4339 82.0184 23.7716 80.8775L23.7716 80.8775L23.7735 80.8758C25.1163 79.7108 25.7809 78.14 25.7809 76.1972C25.7809 74.8988 25.48 73.7586 24.8664 72.7888C24.2553 71.8229 23.3983 71.086 22.3053 70.578C21.2112 70.051 19.924 69.7932 18.4529 69.7932H12.5449ZM47.6575 89.8151L47.7367 89.9932H47.9317H51.6557H52.1251L51.9279 89.5672L42.3519 68.8752L42.0797 68.2869L41.8074 68.8752L32.2314 89.5672L32.0343 89.9932H32.5037H36.2277H36.4226L36.5018 89.8151L38.6626 84.9532H45.4967L47.6575 89.8151ZM61.7158 87.2179L61.7173 87.2202C62.3131 88.1734 63.2107 88.9271 64.3909 89.4882C65.5816 90.0542 67.0571 90.3292 68.8037 90.3292C71.2118 90.3292 73.1082 89.8179 74.4503 88.7522L74.4524 88.7505C75.7945 87.665 76.4677 86.2247 76.4677 84.4572C76.4677 83.0693 76.0552 81.9176 75.21 81.0314C74.5634 80.3379 73.7453 79.8015 72.764 79.4173C73.5966 79.0251 74.2861 78.5231 74.8251 77.9072C75.5437 77.0889 75.9077 76.1417 75.9077 75.0772C75.9077 74.0498 75.6302 73.1147 75.0743 72.2802C74.517 71.425 73.7063 70.7477 72.6578 70.2429C71.5989 69.7331 70.3197 69.4852 68.8317 69.4852C67.3984 69.4852 66.1401 69.7335 65.0656 70.241C63.9967 70.7272 63.1584 71.4042 62.5638 72.2762C61.9668 73.1518 61.6717 74.1639 61.6717 75.3012V75.6012H61.9717H65.0797H65.3797V75.3012C65.3797 74.6227 65.6711 74.065 66.2925 73.6116L66.2926 73.6116L66.2967 73.6084C66.9218 73.1354 67.7578 72.8852 68.8317 72.8852C69.9297 72.8852 70.7038 73.1377 71.2066 73.5919L71.2066 73.5919L71.2107 73.5954C71.7206 74.0395 71.9757 74.6088 71.9757 75.3292C71.9757 76.0609 71.6493 76.6868 70.9468 77.2179C70.2548 77.7411 69.2101 78.0252 67.7677 78.0252H67.4677V78.3252V80.8172V81.1172H67.7677C69.3036 81.1172 70.4712 81.4014 71.3009 81.9372L71.3009 81.9373L71.3071 81.9411C72.1355 82.4483 72.5357 83.1556 72.5357 84.0932C72.5357 84.9829 72.2244 85.6472 71.6146 86.1251C70.9983 86.6082 70.0584 86.8732 68.7477 86.8732C67.4413 86.8732 66.4802 86.6006 65.824 86.0965C65.1838 85.5905 64.831 84.9222 64.7628 84.0693L64.7407 83.7932H64.4637H61.1317H60.8317V84.0932C60.8317 85.213 61.1272 86.2564 61.7158 87.2179ZM99.8961 89.8151L99.9753 89.9932H100.17H103.894H104.364L104.167 89.5672L94.5905 68.8752L94.3183 68.2869L94.046 68.8752L84.47 89.5672L84.2729 89.9932H84.7423H88.4663H88.6612L88.7404 89.8151L90.9012 84.9532H97.7353L99.8961 89.8151ZM114.014 69.7932H113.714V70.0932V89.6932V89.9932H114.014H117.318H117.618V89.6932V81.0052H126.874V89.6932V89.9932H127.174H130.478H130.778V89.6932V70.0932V69.7932H130.478H127.174H126.874V70.0932V77.3532H117.618V70.0932V69.7932H117.318H114.014ZM21.9329 76.1972C21.9329 77.169 21.6165 77.8662 21.0139 78.3395C20.3898 78.811 19.5456 79.0612 18.4529 79.0612H16.1489V73.3052H18.4529C19.5446 73.3052 20.3879 73.5643 21.0119 74.0533C21.6158 74.5267 21.9329 75.2244 21.9329 76.1972ZM44.285 81.5532H39.8744L42.0797 76.3998L44.285 81.5532ZM96.5236 81.5532H92.113L94.3183 76.3998L96.5236 81.5532Z" fill="white" stroke="white" stroke-width="0.6"/>
<defs>
<linearGradient id="paint0_linear_235_11234" x1="10" y1="57" x2="66" y2="38" gradientUnits="userSpaceOnUse">
<stop stop-color="#1294F8"/>
<stop offset="1" stop-color="#47BBFA"/>
</linearGradient>
</defs>
</svg>
