<svg width="28" height="8" viewBox="0 0 28 8" fill="none" xmlns="http://www.w3.org/2000/svg">
<path d="M27.2587 5.52287C27.495 5.37999 27.5707 5.0726 27.4279 4.83629L25.0995 0.985481C24.9566 0.749176 24.6492 0.67344 24.4129 0.816319C24.1766 0.959199 24.1009 1.26659 24.2438 1.50289L26.3134 4.92584L22.8905 6.99549C22.6542 7.13837 22.5784 7.44576 22.7213 7.68206C22.8642 7.91837 23.1716 7.9941 23.4079 7.85122L27.2587 5.52287ZM1.19367 7.46097C5.28512 5.74203 16.1912 2.94682 26.8804 5.58048L27.1196 4.60952C16.1598 1.90919 5.0278 4.76547 0.806333 6.53903L1.19367 7.46097Z" fill="#1294F8"/>
</svg>
