<svg width="24" height="24" viewBox="0 0 24 24" fill="none" xmlns="http://www.w3.org/2000/svg">
<path d="M12.1637 0.923547C10.7007 0.871212 9.242 1.11097 7.87545 1.62841C6.5089 2.14584 5.26271 2.93025 4.21186 3.93446C3.161 4.93866 2.3272 6.1419 1.76061 7.47179C1.19401 8.80169 0.906336 10.2307 0.914885 11.673C0.896033 13.1704 1.2013 14.6545 1.81036 16.0265C2.41941 17.3985 3.31826 18.6269 4.44702 19.6298C4.53664 19.7085 4.6096 19.8038 4.66172 19.9103C4.71384 20.0168 4.74409 20.1324 4.75074 20.2504V22.223C4.7569 22.3684 4.79887 22.5102 4.87301 22.636C4.94716 22.7619 5.05126 22.8682 5.17635 22.9456C5.30144 23.023 5.44376 23.0693 5.59106 23.0805C5.73835 23.0917 5.8862 23.0674 6.02186 23.0098L8.27162 22.0457C8.46373 21.9742 8.67571 21.9742 8.86781 22.0457C9.93132 22.3285 11.0284 22.4701 12.13 22.4668C15.0298 22.4712 17.8127 21.3406 19.8663 19.3236C21.92 17.3067 23.0762 14.5686 23.0807 11.7118C23.0852 8.85498 21.9375 6.11343 19.8902 4.09024C17.8429 2.06705 15.0636 0.927956 12.1637 0.923547ZM18.913 9.19066L15.6171 14.3548C15.4928 14.5493 15.3289 14.7162 15.1358 14.8451C14.9428 14.974 14.7246 15.062 14.4953 15.1037C14.2659 15.1453 14.0302 15.1397 13.8032 15.0871C13.5761 15.0345 13.3626 14.9361 13.1761 14.7981L10.5439 12.8588C10.4271 12.7725 10.285 12.7258 10.1389 12.7258C9.9929 12.7258 9.8508 12.7725 9.73397 12.8588L6.17934 15.5184C6.08034 15.5937 5.95749 15.6319 5.8326 15.6263C5.70771 15.6208 5.58886 15.5718 5.49715 15.4881C5.40544 15.4044 5.34681 15.2914 5.33167 15.1691C5.31652 15.0468 5.34584 14.9233 5.41442 14.8203L8.71033 9.6561C8.83463 9.46167 8.9985 9.29475 9.1916 9.16586C9.38469 9.03697 9.60281 8.94892 9.83218 8.90726C10.0616 8.86561 10.2972 8.87126 10.5243 8.92385C10.7513 8.97644 10.9648 9.07484 11.1513 9.21282L13.7836 11.1522C13.9004 11.2385 14.0425 11.2851 14.1885 11.2851C14.3345 11.2851 14.4766 11.2385 14.5935 11.1522L18.1481 8.4925C18.2471 8.41728 18.3699 8.37906 18.4948 8.38462C18.6197 8.39018 18.7386 8.43916 18.8303 8.52287C18.922 8.60657 18.9806 8.71958 18.9958 8.84184C19.0109 8.96409 18.9816 9.08768 18.913 9.19066Z" fill="#1294F8"/>
</svg>
