<svg width="24" height="24" fill="none" xmlns="http://www.w3.org/2000/svg"><g clip-path="url(#clip0_84_911)"><path fill-rule="evenodd" clip-rule="evenodd" d="M2.42.108a.716.716 0 00-.312.312L2 .624v10.647c0 9.278.009 10.681.07 10.915.224.86.885 1.52 1.744 1.744.405.105 16.311.105 16.715 0a2.425 2.425 0 001.745-1.744c.105-.402.103-5.35-.002-5.758a2.23 2.23 0 00-.628-1.105c-.538-.54-.972-.698-1.922-.699h-.636l-.132-.283c-.188-.404-.62-.828-1.063-1.044-1.15-.561-2.483-.119-3.113 1.033-.114.208-.164.27-.144.178.093-.427.113-.695.074-.969-.125-.871-.681-1.58-1.47-1.873l-.27-.1v-.732l.294-.155a2.437 2.437 0 001.183-1.521c.269-1.032-.291-2.215-1.254-2.652l-.222-.1V4.557l.27-.131c.375-.183.847-.665 1.034-1.056.642-1.35-.106-2.905-1.58-3.282C12.361.004 12.108 0 7.484 0h-4.86L2.42.108zm4.268 2.236v.797H3.546v-.766c0-.421.014-.78.031-.797.017-.017.724-.031 1.57-.031h1.54v.797zm5.793-.694c.623.34.62 1.116-.004 1.402-.173.08-.348.087-2.192.088H8.281V1.542l2.028.015c1.802.013 2.043.023 2.172.094zm-7.34 7.409c.001 4.564.008 4.734.209 5.52a7.72 7.72 0 001.073 2.343c.348.509 1.23 1.375 1.762 1.729a7.466 7.466 0 002.58 1.103c.194.04 2.483.285 5.087.544 2.604.26 4.784.483 4.845.496.11.023.111.026.091.552-.016.418-.04.562-.114.689-.13.222-.354.36-.641.394-.134.016-3.767.022-8.072.015-7.731-.014-7.83-.015-7.987-.108a.776.776 0 01-.382-.52c-.025-.106-.043-3.738-.044-8.656l-.001-8.473H5.14V9.06zm6.234-3.574v.797L9.043 6.27l-2.332-.012-.013-.785-.013-.785h4.69v.797zm1.094 2.407c.586.245.63 1.107.073 1.392-.171.087-.3.091-3.017.091H6.687V7.828h2.814c2.271 0 2.844.012 2.968.064zm-1.104 3.458l-.013.38-2.22 1.287c-1.22.708-2.227 1.278-2.239 1.267a2.364 2.364 0 01-.094-.344c-.055-.236-.081-.678-.098-1.647l-.024-1.324h4.702l-.014.38zm1.205 1.733a.78.78 0 01.495 1.116c-.11.216-.032.166-2.528 1.62L8.55 16.977l-.234-.227c-.3-.291-.8-.957-.752-1.002.02-.019 1.037-.617 2.26-1.33 1.883-1.097 2.348-1.35 2.535-1.382.013-.002.108.019.211.047zm4.755 1.68a.88.88 0 01.242.303c.08.176.087.338.088 2.008l.001 1.817-.129-.001c-.07 0-.413-.032-.761-.07a75.99 75.99 0 00-.67-.07c-.022 0-.032-.796-.024-1.77.014-1.76.015-1.77.125-1.962.16-.279.387-.4.712-.38.18.01.31.05.416.125zm-3.29 1.409h.48v2.431l-.152-.021a114.12 114.12 0 00-1.573-.162 37.159 37.159 0 01-1.664-.19c-.337-.067-1.017-.281-1.017-.32 0-.017.67-.425 1.489-.907 1.481-.872 1.489-.876 1.722-.854.13.012.45.022.715.023zm6.262.064c.195.081.389.311.45.535.028.098.05.676.05 1.317v1.143l-.223-.028a44.806 44.806 0 00-.797-.083l-.574-.055v-2.893h.47c.292 0 .529.024.624.064z" fill="#1294F8"/></g><defs><clipPath id="clip0_84_911"><path fill="#fff" d="M0 0h24v24H0z"/></clipPath></defs></svg>