<svg width="70" height="70" fill="none" xmlns="http://www.w3.org/2000/svg"><path fill-rule="evenodd" clip-rule="evenodd" d="M20.424 8.054v2.054l-.515.13c-.835.21-2.288.733-2.902 1.044-.314.158-.625.288-.69.288-.065 0-.667-.65-1.337-1.446-.67-.796-1.263-1.474-1.319-1.509-.056-.034-1.05.733-2.21 1.705l-2.448 2.053-.341.285 1.291 1.518c.825.969 1.266 1.583 1.222 1.698-.038.1-.286.5-.55.89a18.415 18.415 0 00-.988 1.722c-.28.559-.524 1.035-.544 1.058-.02.024-.91-.109-1.98-.294-1.07-.185-1.97-.31-2.001-.28-.076.077-1.163 6.197-1.11 6.25.023.023.88.184 1.904.36 1.025.175 1.906.355 1.957.399.052.044.148.567.215 1.16a19.5 19.5 0 00.37 2.09c.138.556.214 1.046.17 1.09-.045.045-.799.498-1.676 1.008-.877.51-1.594 1-1.594 1.09 0 .218 3 5.426 3.126 5.429.055 0 .862-.44 1.794-.98l1.694-.983.87.838a18.02 18.02 0 001.696 1.422c.608.43.803.635.746.78-.617 1.56-1.274 3.566-1.192 3.637.058.05 1.359.544 2.89 1.096 1.533.553 2.845 1.028 2.917 1.055.076.029.425-.765.822-1.867l.691-1.916 1.127.09c.62.05 1.602.05 2.183-.001.896-.079 1.072-.064 1.152.094.052.104.357.924.677 1.823.32.899.615 1.673.655 1.72.062.074 5.864-1.964 6.01-2.111.03-.029-.246-.866-.611-1.86-.366-.993-.663-1.86-.662-1.927.001-.067.341-.35.755-.629.415-.279 1.17-.892 1.68-1.361l.927-.855 1.716.983c.975.559 1.762.938 1.821.878.116-.117 3.147-5.334 3.147-5.416 0-.028-.792-.506-1.759-1.061-1.311-.754-1.74-1.057-1.686-1.195.212-.549.548-2.25.617-3.123.07-.885.108-1.008.333-1.058a184.25 184.25 0 013.729-.665c.026 0-.199-1.417-.5-3.149-.505-2.899-.567-3.148-.793-3.146-.134 0-.98.136-1.879.3-.899.166-1.701.301-1.782.302-.082 0-.332-.394-.557-.876a17.003 17.003 0 00-1.093-1.895l-.684-1.017 1.217-1.444c.67-.794 1.244-1.51 1.275-1.592.032-.083-1.017-1.049-2.385-2.195-2.369-1.985-2.447-2.039-2.637-1.805-1.23 1.512-2.367 2.833-2.438 2.833-.049 0-.498-.186-.999-.414-.773-.353-1.305-.535-2.904-.994-.191-.055-.212-.263-.212-2.112V6h-6.418v2.054zm34.94 6.438c-.034.091-.145.572-.248 1.068-.103.495-.204.918-.224.939-.021.02-.453.09-.96.154-.508.064-1.05.149-1.205.188-.25.063-.338-.036-.8-.905-.286-.536-.561-.975-.611-.975-.07 0-2.967 1.513-3.134 1.636-.018.013.209.477.505 1.03l.537 1.007-.807.886c-.444.487-.862.887-.929.887-.066.001-.549-.164-1.072-.368s-.966-.353-.985-.332c-.144.162-1.28 3.28-1.218 3.341.044.045.5.249 1.012.455l.931.373-.027 1.262-.026 1.262-.99.333c-.545.183-1.014.356-1.043.385-.047.047.665 2.45.94 3.173l.107.28 1.064-.362c1.046-.354 1.068-.357 1.247-.126.1.129.44.56.757.958.316.398.575.766.575.818 0 .052-.251.498-.558.99-.307.493-.539.913-.515.934.024.022.72.457 1.546.968 1.134.702 1.528.89 1.605.772.056-.087.326-.526.6-.975.274-.45.524-.818.556-.818.032 0 .34.078.683.173.343.094.873.205 1.178.246l.554.074.148 1.112c.081.611.16 1.123.175 1.139.03.03 3.515-.458 3.566-.5.018-.015-.042-.53-.133-1.145l-.166-1.118.678-.334c.373-.184.871-.45 1.107-.593l.43-.258.812.733c.447.404.858.715.913.693.138-.055 2.32-2.51 2.32-2.608 0-.045-.365-.415-.812-.825l-.813-.744.315-.716c.174-.395.379-.917.456-1.161l.14-.444 1.125.067 1.125.067.08-1.307c.044-.719.08-1.544.08-1.833v-.526l-.575-.01a12.213 12.213 0 01-1.169-.092l-.593-.08-.207-.726c-.114-.4-.269-.88-.345-1.068-.076-.187-.138-.384-.138-.436 0-.053.38-.39.843-.749.463-.36.845-.686.847-.726.007-.104-2.063-2.705-2.193-2.754-.06-.023-.484.262-.943.632l-.834.674-1.079-.672-1.079-.672.218-.99c.12-.544.22-1.046.22-1.116.002-.07-.637-.25-1.42-.403a935.42 935.42 0 01-1.753-.342c-.219-.044-.352-.01-.392.1zM25.57 17.455c.4.094 1.163.386 1.696.648 4.127 2.028 5.754 7.073 3.608 11.183-.691 1.324-2.217 2.81-3.548 3.458-1.359.66-2.238.87-3.649.874-1.42.004-2.547-.243-3.692-.808a8.18 8.18 0 01-4.276-5.136c-.67-2.42-.295-4.758 1.1-6.842 1.9-2.841 5.37-4.178 8.761-3.377zm31.346 3.747a4.906 4.906 0 012.205 2.175c.325.664.356.836.356 2 0 1.193-.026 1.326-.394 2.074a4.59 4.59 0 01-2.189 2.143c-.607.285-.835.322-1.958.322-1.162 0-1.334-.03-1.997-.356a4.9 4.9 0 01-2.186-2.19c-.314-.648-.351-.85-.355-1.934-.003-1.063.036-1.295.319-1.899a5.015 5.015 0 012.921-2.596c.839-.274 2.418-.149 3.278.261zM44.863 36.316c-.978.143-1.812.295-1.853.337-.042.043.01.691.114 1.441.105.75.176 1.378.158 1.395a9.982 9.982 0 01-.713.332c-.375.166-.982.493-1.349.727l-.667.427-1.073-.957c-.59-.527-1.103-.944-1.138-.928-.053.024-1.898 2.04-2.824 3.086l-.241.273.717.647c.394.356.878.786 1.075.954l.358.306-.376.833a17.27 17.27 0 00-.584 1.48l-.207.649-1.437-.043-1.436-.043-.057.303c-.031.167-.073 1.202-.094 2.3l-.037 1.999 1.442.06 1.442.061.262.969c.145.533.354 1.18.466 1.438.111.257.203.504.203.548 0 .044-.49.458-1.09.92-.6.462-1.09.882-1.09.933 0 .051.608.87 1.351 1.82l1.382 1.767c.016.021.518-.346 1.114-.818.597-.47 1.152-.856 1.235-.856.083 0 .35.157.592.349.243.192.81.552 1.263.8.598.33.805.505.764.65-.128.445-.562 2.595-.53 2.625.019.018 1.028.247 2.242.508 1.934.418 2.215.453 2.263.285.03-.105.17-.735.311-1.399.14-.664.267-1.214.28-1.222.013-.009.569-.086 1.235-.172a263.73 263.73 0 001.574-.206c.352-.05.385-.01 1.022 1.223l.658 1.274.613-.343a126.18 126.18 0 012.038-1.095l1.425-.752-.681-1.27-.68-1.268.714-.75c.393-.413.866-.951 1.05-1.196l.334-.445 1.332.549c.733.302 1.351.529 1.374.505.023-.023.427-.986.897-2.14l.856-2.096-.33-.12a58.824 58.824 0 01-1.298-.514l-.968-.395.018-1.612.018-1.611 1.314-.423c.723-.233 1.334-.441 1.358-.464.038-.035-1.293-4.301-1.367-4.38-.015-.017-.593.16-1.283.393-.691.232-1.32.423-1.398.423-.078 0-.294-.232-.479-.515a14.65 14.65 0 00-.933-1.208c-.367-.425-.563-.752-.51-.847.048-.085.379-.624.736-1.197.357-.574.649-1.072.649-1.107 0-.09-3.703-2.392-3.85-2.392-.066 0-.15.076-.186.17-.035.093-.365.634-.73 1.202l-.667 1.033-.762-.23a10.038 10.038 0 00-1.465-.311c-.468-.053-.737-.146-.803-.276-.054-.107-.167-.754-.251-1.437l-.153-1.24-.44.012c-.243.007-1.241.13-2.219.272zm3.407 7.948c2.108.4 3.99 2.183 4.542 4.305.948 3.636-1.882 7.313-5.631 7.32-1.647.003-3.214-.669-4.303-1.845-1.093-1.181-1.622-2.473-1.624-3.97a5.885 5.885 0 017.016-5.81z" fill="#1294F8"/></svg>