<svg width="70" height="70" fill="none" xmlns="http://www.w3.org/2000/svg"><path fill-rule="evenodd" clip-rule="evenodd" d="M20.47 7.171c-.442.138-1.252.908-6.866 6.533C6.98 20.342 7 20.319 7 21.194c0 .878-.033.84 6.825 7.71l6.586 6.596-6.586 6.596C6.968 48.966 7 48.928 7 49.806c0 .875-.016.856 6.549 7.438 3.47 3.48 6.433 6.39 6.587 6.47.46.24 1.067.3 1.634.164.51-.123.87-.462 7.134-6.71l6.597-6.58 6.54 6.535c4.543 4.54 6.665 6.587 6.953 6.706.55.227 1.157.212 1.701-.042.301-.142 2.483-2.253 6.754-6.538 6.564-6.587 6.549-6.569 6.549-7.443 0-.876.029-.843-6.826-7.71l-6.585-6.597 6.585-6.596c6.977-6.987 6.83-6.818 6.824-7.82-.005-.85-.264-1.145-6.544-7.434C51.054 7.24 50.778 7 49.835 7c-.235 0-.614.077-.841.17-.288.12-2.41 2.167-6.954 6.707l-6.54 6.536-6.596-6.58c-6.2-6.185-6.63-6.589-7.12-6.707-.633-.153-.683-.151-1.314.045zm17.529 17.813c.783.372.914 1.407.26 2.062-.386.385-1.026.444-1.538.141-.845-.5-.775-1.772.124-2.234.36-.185.718-.175 1.154.032zm-3.43 3.963c.283.266.435.836.332 1.247-.096.383-.599.838-1.01.915-.498.093-1.12-.189-1.335-.605-.692-1.338.919-2.585 2.013-1.557zm7.526.096c.915 1.009-.27 2.539-1.511 1.95-.415-.197-.743-.727-.743-1.199 0-.419.458-1.013.89-1.154.503-.164.977-.024 1.364.403zm-3.949 3.517c.418.274.63.892.478 1.398-.419 1.397-2.488 1.092-2.488-.366 0-1.05 1.111-1.62 2.01-1.032zm7.495-.033c.741.463.685 1.791-.092 2.207-.6.321-1.403.11-1.737-.457-.691-1.17.67-2.473 1.829-1.75zm-14.924.162c.445.398.558 1.073.263 1.573-.665 1.126-2.384.677-2.384-.622 0-.42.06-.56.379-.879.32-.32.457-.378.889-.378.4 0 .585.066.853.306zm3.644 3.656c.413.27.612.854.47 1.38-.291 1.082-1.814 1.26-2.342.273-.64-1.197.727-2.403 1.872-1.653zm7.662.056c.292.275.51.9.417 1.195-.229.722-.625 1.021-1.353 1.021-.964 0-1.56-1.238-.978-2.03.418-.566 1.406-.663 1.914-.186zm-15.182-.014a1.3 1.3 0 01.126 1.937c-.82.82-2.156.243-2.156-.932 0-.383.069-.535.379-.846.317-.317.458-.378.875-.378.326 0 .593.075.776.219zm3.76 3.773c.331.243.557.85.476 1.277-.033.17-.2.45-.374.623-1.015 1.015-2.66-.127-2.032-1.412.372-.762 1.253-.985 1.93-.488zm7.47-.064c.688.463.776 1.39.189 1.977-.611.612-1.72.384-2.057-.423-.27-.649-.032-1.316.587-1.638.454-.237.841-.211 1.28.084zm-3.688 3.845c.595.44.64 1.37.092 1.917-.277.277-.418.33-.886.33-.463 0-.61-.054-.874-.318-1.154-1.154.356-2.901 1.668-1.93z" fill="#1294F8"/></svg>