<svg width="70" height="70" fill="none" xmlns="http://www.w3.org/2000/svg"><path fill-rule="evenodd" clip-rule="evenodd" d="M31.35 4.27c-3.56 1.134-5.448 4.97-4.164 8.456 1.625 4.41 7.328 5.692 10.706 2.406 3.066-2.985 2.455-7.955-1.268-10.305-1.31-.827-3.651-1.074-5.275-.557zm-.054 15.14c-2.324.664-4.243 2.533-5.159 5.027l-.38 1.034V41.93l.349.947c.434 1.181 1.18 2.32 1.969 3.005.877.761 2.474 1.478 3.674 1.65.563.08 3.983.147 7.6.15l6.576.003 3.507 6.436c1.929 3.54 3.737 6.696 4.019 7.014.957 1.08 2.632 1.541 3.96 1.09 1.843-.626 2.947-2.591 2.483-4.425-.093-.37-2.22-4.642-4.724-9.493-4.19-8.113-4.593-8.836-5.032-9.019-.367-.153-1.488-.198-4.866-.198h-4.39v-3.877c0-3.622.018-3.872.257-3.806.14.04 2.557 1.076 5.37 2.303 5.88 2.565 6.15 2.634 7.525 1.93.521-.266.956-.63 1.238-1.035.87-1.252.624-3.357-.502-4.302-.458-.384-16.433-9.527-18.052-10.331-1.748-.87-3.653-1.067-5.422-.562zM22.1 28.657c-5.429 2.617-9.47 7.808-10.76 13.821-.423 1.977-.457 5.522-.07 7.457.801 4.011 2.437 7.154 5.231 10.054 2.797 2.903 6.166 4.79 10.148 5.686 1.575.354 5.389.438 7.108.157 5.431-.89 10.361-4.045 13.373-8.56l.654-.98-.682-1.246c-.374-.685-.702-1.245-.727-1.245-.025 0-.346.514-.712 1.142a17.322 17.322 0 01-9.975 7.866c-2.117.643-3.409.803-5.73.71-4.268-.17-7.923-1.704-11.047-4.638-2.684-2.52-4.371-5.528-5.153-9.188-.345-1.614-.348-5.136-.005-6.647 1.153-5.086 4.268-9.342 8.555-11.691l.892-.49v-1.35c0-.742-.018-1.35-.04-1.35-.023 0-.5.222-1.06.492z" fill="#1294F8"/></svg>