<svg width="16" height="16" fill="none" xmlns="http://www.w3.org/2000/svg"><g clip-path="url(#clip0_79_1902)"><path d="M2.867 14.85c-.078.444.36.791.746.593l4.39-2.256 4.389 2.256c.386.198.824-.149.746-.592l-.83-4.73 3.522-3.356c.33-.314.16-.888-.282-.95L10.65 5.12 8.466.792a.513.513 0 00-.927 0L5.355 5.12l-4.898.696c-.441.062-.612.636-.283.95l3.523 3.356-.83 4.73v-.002zm4.905-2.767l-3.686 1.894.694-3.957a.565.565 0 00-.163-.505L1.71 6.745l4.052-.576a.525.525 0 00.393-.288L8 2.223l1.847 3.658a.525.525 0 00.393.288l4.052.575-2.906 2.77a.565.565 0 00-.163.506l.694 3.957-3.686-1.894a.504.504 0 00-.461 0z" fill="#FFF500"/></g><defs><clipPath id="clip0_79_1902"><path fill="#fff" d="M0 0h16v16H0z"/></clipPath></defs></svg>