<svg width="70" height="70" fill="none" xmlns="http://www.w3.org/2000/svg"><path fill-rule="evenodd" clip-rule="evenodd" d="M32.713 7.161a11.256 11.256 0 00-9.074 9.138c-.24 1.374-.24 8.064 0 9.438a11.177 11.177 0 009.239 9.144c1.267.206 2.184.206 3.451 0a11.177 11.177 0 009.24-9.144c.239-1.374.239-8.064 0-9.438C44.63 10.919 39.9 6.944 34.504 7c-.527.005-1.334.078-1.792.16zm-6.96 29.799c-6.391 2.214-11.4 6.039-14.98 11.44-.425.641-.773 1.253-.773 1.36 0 .108.283.636.63 1.174A28.481 28.481 0 0024.276 62.03c6.785 2.604 13.868 2.604 20.653 0a28.48 28.48 0 0013.648-11.096c.346-.538.629-1.066.629-1.174 0-.272-1.36-2.296-2.483-3.693-1.84-2.29-4.629-4.728-7.202-6.298-1.284-.782-3.575-1.89-5.01-2.422-1.706-.632-1.565-.639-2.364.113-.923.869-1.784 1.587-3.203 2.67-1.128.862-3.561 2.53-4.106 2.816-.245.128-.388.055-1.888-.959-1.975-1.336-4.557-3.307-5.725-4.372-.907-.827-.938-.84-1.473-.655zm19.85 8.906c.092.093.133.668.133 1.87 0 1.203.041 1.779.134 1.871.092.093.668.134 1.87.134 1.203 0 1.778.04 1.87.133.186.186.186 3.11 0 3.295-.092.093-.658.134-1.828.134-1.393 0-1.727.031-1.87.175-.145.144-.176.478-.176 1.87 0 1.17-.041 1.737-.133 1.83-.091.09-.619.133-1.648.133s-1.557-.043-1.648-.134c-.092-.092-.133-.668-.133-1.87s-.041-1.778-.134-1.87c-.092-.093-.668-.134-1.87-.134s-1.778-.041-1.87-.133c-.186-.186-.186-3.11 0-3.296.092-.092.668-.133 1.87-.133s1.778-.041 1.87-.134c.093-.093.134-.668.134-1.87 0-1.203.04-1.778.133-1.87.186-.186 3.11-.186 3.296 0z" fill="#1294F8"/></svg>