<svg width="70" height="70" fill="none" xmlns="http://www.w3.org/2000/svg"><path fill-rule="evenodd" clip-rule="evenodd" d="M21.38 2.142c-.487.216-.996.834-1.086 1.32-.04.214-.055 1.789-.035 3.499.035 2.92.052 3.13.287 3.444.635.85 1.502 1.093 2.378.669.898-.435.996-.725 1.066-3.166l.06-2.119 2.12-.06c2.44-.07 2.73-.168 3.165-1.066.425-.877.18-1.743-.67-2.378-.315-.236-.513-.252-3.624-.278-2.553-.022-3.375.008-3.66.135zm33.428 0c-1.036.469-1.435 1.655-.885 2.633.472.84.62.885 3.065.953l2.18.061.06 2.18c.068 2.455.112 2.591.98 3.08.85.477 1.814.226 2.464-.644.238-.32.25-.49.25-3.768 0-3.28-.012-3.449-.25-3.768a3.468 3.468 0 00-.584-.584c-.316-.236-.514-.252-3.626-.278-2.56-.022-3.371.008-3.654.136zm-18.75 5.773c-.174.136-.367.45-.429.696-.062.246-.177 2.164-.255 4.262-.131 3.495-.165 3.86-.405 4.36-.22.455-.788.967-3.472 3.127-1.764 1.42-3.275 2.7-3.356 2.845-.216.387-.186.939.075 1.367.206.338.535.489 3.239 1.488 4.361 1.612 4.544 1.684 4.978 1.948.512.314.717.762 2.285 5.009 1.17 3.166 1.325 3.515 1.667 3.723.492.3 1.052.292 1.451-.022.177-.138 1.336-1.514 2.577-3.057 2.728-3.391 3.004-3.689 3.55-3.827.235-.06 1.98-.169 3.878-.243 4.627-.18 4.69-.189 5.109-.637.256-.274.34-.485.34-.851 0-.425-.288-.934-2.3-4.057-1.341-2.081-2.309-3.704-2.32-3.89-.035-.602.038-.931 1.06-4.74.661-2.471.997-3.929.951-4.139-.09-.42-.587-.912-1.015-1.006-.23-.05-1.573.259-4.182.961-2.293.618-4.077 1.036-4.422 1.036-.543 0-.786-.135-4.148-2.301-3.117-2.009-3.633-2.301-4.056-2.301-.305 0-.601.092-.8.249zm-19.96 36.412C5.853 54.584 1.535 58.983 1.348 59.358c-.624 1.25-.394 2.662.595 3.65.933.934 2.08 1.186 3.304.726.587-.22 1.844-1.445 15.255-14.864l14.615-14.624-.57-1.54c-.313-.847-.623-1.587-.69-1.645-.105-.094-3.077-1.235-3.215-1.235-.03 0-6.574 6.526-14.542 14.501zm44.155-8.695c-.858.437-.956.737-1.025 3.155l-.06 2.12-2.12.06c-2.44.07-2.73.167-3.166 1.065-.424.877-.18 1.744.67 2.378.32.239.489.25 3.768.25s3.448-.011 3.767-.25c.184-.137.447-.4.585-.584.238-.319.25-.489.25-3.767 0-3.28-.012-3.449-.25-3.768-.632-.847-1.556-1.098-2.419-.66z" fill="#1294F8"/></svg>