<svg width="16" height="16" fill="none" xmlns="http://www.w3.org/2000/svg"><g clip-path="url(#clip0_79_1901)"><path d="M5.355 5.119L7.539.792A.516.516 0 018.001.5c.183 0 .366.097.465.292l2.184 4.327 4.898.696a.537.537 0 01.453.505.548.548 0 01-.17.445l-3.523 3.356.83 4.73c.078.443-.36.79-.746.592l-4.391-2.256-4.389 2.256a.52.52 0 01-.146.05c-.342.06-.668-.254-.6-.642l.83-4.73L.174 6.765a.55.55 0 01-.172-.403.58.58 0 01.085-.302.513.513 0 01.37-.245l4.898-.696zm2.646 6.908a.5.5 0 01.232.056l3.686 1.894-.694-3.957a.565.565 0 01.162-.505l2.907-2.77-4.052-.576a.526.526 0 01-.393-.288L8.002 2.223l-.001.003v9.801z" fill="#FFF500"/></g><defs><clipPath id="clip0_79_1901"><path fill="#fff" d="M0 0h16v16H0z"/></clipPath></defs></svg>