<svg width="24" height="24" fill="none" xmlns="http://www.w3.org/2000/svg"><path fill-rule="evenodd" clip-rule="evenodd" d="M4.364.095a.68.68 0 00-.27.277C4.002.552 4 .642 4 4.321c0 4.179.004 4.245.303 5.082a4.892 4.892 0 002.132 2.565l.377.224v5.283l-.26.576a12.805 12.805 0 00-1.13 4.715c-.027.603-.023.66.072.845a.64.64 0 00.286.293c.183.093.263.094 6.657.094 6.395 0 6.475 0 6.658-.094.33-.169.374-.323.374-1.331 0-.477-.024-.979-.054-1.115a2.11 2.11 0 00-1.345-1.549c-.204-.072-.456-.103-1.086-.133-1.16-.055-1.755-.158-2.719-.471-.953-.31-2.086-.948-2.894-1.633l-.34-.288v-5.182l.456-.277c.886-.54 1.658-1.468 2.017-2.424.325-.864.31-.633.327-4.99.016-3.903.015-3.95-.08-4.135a.646.646 0 00-.281-.283C13.288 0 13.204-.002 8.912 0 4.65.002 4.534.005 4.364.095zm8.061 4.79c-.014 3.108-.024 3.509-.095 3.744-.4 1.323-1.417 2.277-2.715 2.545-1.876.387-3.743-.853-4.134-2.748-.064-.31-.075-.829-.075-3.691v-3.33h7.035l-.016 3.48zM8.476 4.28a2 2 0 00-1.114.863c-.256.392-.39.725-.48 1.2-.175.92-.005 1.831.48 2.573.241.368.496.591.883.772.236.11.34.13.677.13s.44-.02.676-.13a1.98 1.98 0 00.883-.772 3.03 3.03 0 00.48-1.2c.175-.92.006-1.83-.48-2.573a1.95 1.95 0 00-.88-.768c-.327-.15-.831-.192-1.125-.095zm.75 1.546c.267.279.375.627.375 1.204s-.108.925-.376 1.204c-.25.26-.357.26-.607 0-.267-.28-.376-.627-.376-1.204s.109-.925.376-1.204c.12-.126.235-.203.304-.203.068 0 .183.077.303.203zm.399 8.973v2.168H8.219v-4.336h1.406V14.8zm.827 3.931c1.78 1.53 4.28 2.456 6.636 2.456.755 0 .974.22.974.982v.424H6.86v-.223c0-.807.46-2.609.926-3.632l.165-.364h2.086l.416.357z" fill="#1294F8"/></svg>