<svg width="53" height="53" viewBox="0 0 53 53" fill="none" xmlns="http://www.w3.org/2000/svg">
<circle cx="26.5" cy="26.5" r="25.5" stroke="#1294F8" stroke-width="2"/>
<g clip-path="url(#clip0_196_4987)">
<path d="M34.6868 17.1228C34.9323 17.3013 35.0327 17.5394 34.9881 17.8371L32.131 34.9799C32.0938 35.1957 31.9747 35.3631 31.7738 35.4821C31.6697 35.5417 31.5543 35.5714 31.4278 35.5714C31.346 35.5714 31.2567 35.5528 31.16 35.5156L26.1042 33.4509L23.4033 36.7433C23.2694 36.9144 23.0871 37 22.8564 37C22.7597 37 22.6778 36.9851 22.6109 36.9554C22.4695 36.9033 22.356 36.8158 22.2705 36.6931C22.1849 36.5703 22.1421 36.4345 22.1421 36.2857V32.3906L31.785 20.5714L19.8542 30.8951L15.4457 29.0871C15.1704 28.9829 15.0216 28.7783 14.9993 28.4732C14.9844 28.1756 15.1035 27.9561 15.3564 27.8147L33.9278 17.1004C34.0394 17.0335 34.1585 17 34.285 17C34.4338 17 34.5677 17.0409 34.6868 17.1228Z" fill="#1294F8"/>
</g>
<defs>
<clipPath id="clip0_196_4987">
<rect width="20" height="20" fill="white" transform="translate(15 17)"/>
</clipPath>
</defs>
</svg>
