<svg width="72" height="69" viewBox="0 0 72 69" fill="none" xmlns="http://www.w3.org/2000/svg">
<path fill-rule="evenodd" clip-rule="evenodd" d="M65.4919 27.3601C69.2325 18.7211 71.1621 9.4102 71.1621 -0.000167847L59.2031 -0.000168892C59.3043 6.38583 58.3525 12.7622 56.3701 18.8702C53.6266 27.323 48.9819 35.0381 42.7911 41.4256C36.6002 47.8131 29.0271 52.7039 20.6509 55.7241C13.5222 58.2944 5.97244 59.4519 -1.57624 59.1461L-2.16326 68.8753C7.2532 69.4407 16.6861 68.0787 25.5553 64.873C34.4246 61.6673 42.5428 56.6857 49.4108 50.2346C56.2787 43.7834 61.7512 35.999 65.4919 27.3601ZM-0.978163 49.2335C5.21965 49.4598 11.4148 48.4974 17.2678 46.3871C24.2169 43.8815 30.4998 39.8239 35.6359 34.5247C40.772 29.2254 44.6254 22.8248 46.9014 15.8121C48.5623 10.6947 49.3512 5.35025 49.2491 -0.000177392L40.3011 -0.000178174C40.3011 5.21163 39.2324 10.3684 37.1607 15.1529C35.089 19.9375 32.0581 24.2488 28.2544 27.8217C24.4507 31.3945 19.9545 34.1535 15.0424 35.9289C10.1303 37.7044 4.90602 38.4587 -0.309163 38.1456L-0.978163 49.2335Z" fill="white"/>
</svg>
