<svg id="Ebene_1" data-name="Ebene 1" xmlns="http://www.w3.org/2000/svg" viewBox="0 0 145.276 145.276">
  <defs>
    <style>
      .cls-1 {
        fill: #282828;
      }
    </style>
  </defs>
  <title>270992dd-2541-4367-bcbd-7e9e1543d79e</title>
  <path class="cls-1" d="M18.159,22.7V4.539a4.54,4.54,0,0,1,9.08,0V22.7a4.54,4.54,0,0,1-9.08,0ZM95.337,27.24A4.538,4.538,0,0,0,99.878,22.7V4.539a4.541,4.541,0,0,0-9.082,0V22.7a4.538,4.538,0,0,0,4.541,4.539Zm49.938,81.716a36.318,36.318,0,1,1-36.318-36.319,36.32,36.32,0,0,1,36.318,36.319Zm-9.079,0a27.24,27.24,0,1,0-27.24,27.24,27.27,27.27,0,0,0,27.24-27.24ZM36.32,54.478H18.159V72.637H36.32Zm-18.161,45.4H36.32V81.717H18.159ZM45.4,72.637H63.558V54.478H45.4Zm0,27.24H63.558V81.717H45.4ZM9.08,108.053V45.4h99.877V63.558h9.08V28.144a9.907,9.907,0,0,0-9.834-9.985h-3.788V22.7a9.079,9.079,0,0,1-18.158,0V18.159H31.779V22.7a9.08,9.08,0,0,1-18.159,0V18.159H9.838A9.911,9.911,0,0,0,0,28.144v79.909a9.923,9.923,0,0,0,9.838,9.985h53.72v-9.082H9.838a.858.858,0,0,1-.758-.9ZM90.8,72.637V54.478H72.639V72.637Zm31.781,36.319h-13.62V95.335a4.54,4.54,0,0,0-9.079,0V113.5a4.537,4.537,0,0,0,4.538,4.541h18.161a4.541,4.541,0,0,0,0-9.082Zm0,0"/>
</svg>
