<svg id="Ebene_1" data-name="Ebene 1" xmlns="http://www.w3.org/2000/svg" xmlns:xlink="http://www.w3.org/1999/xlink" viewBox="0 0 153.296 140.521">
  <defs>
    <style>
      .cls-1 {
        fill: none;
      }

      .cls-2 {
        fill: #282828;
      }

      .cls-3 {
        clip-path: url(#clip-path);
      }
    </style>
    <clipPath id="clip-path" transform="translate(0 0)">
      <rect class="cls-1" width="153.296" height="140.521"/>
    </clipPath>
  </defs>
  <title>9b814241-692a-4587-9724-c10ba5457c41</title>
  <g>
    <path class="cls-2" d="M60.679,38.324a3.182,3.182,0,0,0,2.258-.936L69.325,31a3.193,3.193,0,1,0-4.516-4.516l-6.387,6.387a3.194,3.194,0,0,0,2.258,5.452Zm0,0" transform="translate(0 0)"/>
    <g class="cls-3">
      <path class="cls-2" d="M77.584,26.485,58.422,45.647a3.193,3.193,0,1,0,4.516,4.516L82.1,31a3.193,3.193,0,1,0-4.516-4.516Zm0,0" transform="translate(0 0)"/>
      <path class="cls-2" d="M151.193,11.009A19.811,19.811,0,0,0,133.376,0H71.488A41.553,41.553,0,0,0,40.454,13.935L10.465,47.668A41.594,41.594,0,0,0,0,75.662L5.344,116.88a27.244,27.244,0,0,0,7.719,15.694,26.959,26.959,0,0,0,19.187,7.947H140.519A12.788,12.788,0,0,0,153.3,127.746V19.917a20.02,20.02,0,0,0-2.1-8.908ZM24.807,60.4l29.984-33.73a22.386,22.386,0,0,1,16.71-7.5h61.877c.3,0,.543.15.755.755V70.26H19.418c.586-3.381,2.224-6.3,5.389-9.865Zm112.52,54.576H22.356a3.194,3.194,0,1,1,0-6.387H137.327a3.194,3.194,0,1,1,0,6.387Zm0-19.162H118.165a3.194,3.194,0,0,1,0-6.387h19.162a3.194,3.194,0,1,1,0,6.387Zm0,0" transform="translate(0 0)"/>
    </g>
  </g>
</svg>
