<svg id="Ebene_1" data-name="Ebene 1" xmlns="http://www.w3.org/2000/svg" viewBox="0 0 162.252 114.83">
  <defs>
    <style>
      .cls-1 {
        fill: #161616;
      }
    </style>
  </defs>
  <title>5841f9ee-c46b-4b8c-9950-e2cefbc83866</title>
  <path class="cls-1" d="M161.319,35.531A4.173,4.173,0,0,0,158.1,34H142.309c-3.9-10.278-8.973-20.348-14.744-24.149C107.6-3.283,54.656-3.283,34.694,9.849,28.919,13.654,23.863,23.737,19.946,34H4.155A4.158,4.158,0,0,0,.088,39L2.427,50.329A4.153,4.153,0,0,0,6.494,53.64h4.678A28.052,28.052,0,0,0,4.438,71.974,27.463,27.463,0,0,0,13.116,92.6c.062.054.125.091.183.145V108.6a6.237,6.237,0,0,0,6.232,6.232H34.1a6.237,6.237,0,0,0,6.232-6.232v-6.373h81.6V108.6a6.237,6.237,0,0,0,6.232,6.232H142.72a6.242,6.242,0,0,0,6.232-6.232V93.053a28.5,28.5,0,0,0,1.82-39.421h4.989a4.139,4.139,0,0,0,4.067-3.315l2.343-11.329A4.187,4.187,0,0,0,161.319,35.531ZM41.536,20.256c15.911-10.473,63.267-10.473,79.17,0,3.091,2.027,7.067,10.224,10.71,20.261H30.835C34.47,30.484,38.445,22.291,41.536,20.256ZM22.9,73.536A12.26,12.26,0,1,1,35.159,85.8,12.258,12.258,0,0,1,22.9,73.536ZM127.253,85.8a12.257,12.257,0,1,1,12.26-12.26A12.261,12.261,0,0,1,127.253,85.8Z"/>
</svg>
