<svg id="Ebene_1" data-name="Ebene 1" xmlns="http://www.w3.org/2000/svg" xmlns:xlink="http://www.w3.org/1999/xlink" viewBox="0 0 153.296 153.296">
  <defs>
    <style>
      .cls-1 {
        fill: none;
      }

      .cls-2 {
        fill: #282828;
      }

      .cls-3 {
        clip-path: url(#clip-path);
      }
    </style>
    <clipPath id="clip-path">
      <rect class="cls-1" width="153.296" height="153.296"/>
    </clipPath>
  </defs>
  <title>d3c57cb6-4e32-4156-a787-1b0e4089b32d</title>
  <rect class="cls-2" x="99.63" y="120.082" width="10.219" height="5.11"/>
  <path class="cls-2" d="M76.635,79.2v25.549h56.209V79.2Zm45.99,17.885a2.555,2.555,0,0,1-2.556,2.556H89.41a2.555,2.555,0,0,1-2.555-2.556V86.868a2.555,2.555,0,0,1,2.555-2.556h30.66a2.555,2.555,0,0,1,2.556,2.556Zm0,0"/>
  <rect class="cls-2" x="91.966" y="89.422" width="25.549" height="5.11"/>
  <path d="M76.635,109.861v7.664A17.906,17.906,0,0,0,94.52,135.411h20.439a17.905,17.905,0,0,0,17.885-17.885v-7.664Zm38.324,15.331a5.114,5.114,0,0,1-5.11,5.108H99.63a5.114,5.114,0,0,1-5.11-5.108v-5.11a5.116,5.116,0,0,1,5.11-5.11h10.219a5.114,5.114,0,0,1,5.11,5.11Zm0,0"/>
  <g class="cls-3">
    <path class="cls-2" d="M89.41,25.549a7.665,7.665,0,1,1-7.664-7.664,7.664,7.664,0,0,1,7.664,7.664Zm0,0"/>
    <path class="cls-2" d="M125.179,0H84.3A28.138,28.138,0,0,0,56.2,28.1v6.721L1,131.668a7.56,7.56,0,0,0,2.782,10.274L8.4,144.61a7.514,7.514,0,0,0,3.763,1.014,7.689,7.689,0,0,0,1.991-.265,7.5,7.5,0,0,0,4.586-3.56L56.193,75.834v49.358a28.137,28.137,0,0,0,28.1,28.1h40.878a28.138,28.138,0,0,0,28.105-28.1V28.1A28.135,28.135,0,0,0,125.179,0ZM56.193,65.486,14.3,139.277a2.4,2.4,0,0,1-1.481,1.149,2.428,2.428,0,0,1-1.86-.242l-4.622-2.668a2.443,2.443,0,0,1-.9-3.319L56.195,45.143V65.486ZM81.746,12.775A12.775,12.775,0,1,1,68.971,25.549,12.789,12.789,0,0,1,81.746,12.775Zm56.208,63.873v40.878a23.021,23.021,0,0,1-22.995,23H94.52a23.021,23.021,0,0,1-23-23v-51.1a23.021,23.021,0,0,1,23-22.993h20.439a23.02,23.02,0,0,1,22.995,22.993Zm0,0"/>
  </g>
  <path class="cls-2" d="M114.959,48.544H94.52A17.905,17.905,0,0,0,76.635,66.427v7.665h56.209V66.427a17.906,17.906,0,0,0-17.885-17.883Zm0,15.329a5.115,5.115,0,0,1-5.11,5.11H99.63a5.116,5.116,0,0,1-5.11-5.11v-5.11a5.116,5.116,0,0,1,5.11-5.11h10.219a5.115,5.115,0,0,1,5.11,5.11Zm0,0"/>
  <rect class="cls-2" x="99.63" y="58.763" width="10.219" height="5.11"/>
</svg>
