<svg id="Ebene_1" data-name="Ebene 1" xmlns="http://www.w3.org/2000/svg" viewBox="0 0 500 500">
  <defs>
    <style>
      .cls-1 {
        fill: #83131f;
      }

      .cls-2 {
        fill: #fff;
      }
    </style>
  </defs>
  <title>2f7bc416-bcef-4752-98de-c60cf4a07aec</title>
  <g>
    <path class="cls-1" d="M0,500Q0,250,0,0H500q0,250,0,500ZM104.653,342.877c47.679,76.576,154.009,106.541,238.016,52.887,86.565-55.288,94.211-158.043,64.237-216.476L343.84,342.618H309.031l71.081-173.584c-2.841,0-4.489,0-6.136,0q-80.744-.078-161.488-.162c-7.665-.009-15.329-.106-22.994-.132-13.64-.046-26.384,9.5-29.4,22-3.159,13.083,3.24,26.594,16.2,32.622,6.9,3.208,14.371,5.157,21.515,7.856,10.087,3.81,20.63,6.818,30.068,11.87,33.8,18.091,30.329,54.876,14.681,74.779-13.947,17.739-32.955,24.74-54.814,24.95-25,.241-50,.056-75,.056ZM382.361,140.123c-.221-.981-.2-1.353-.372-1.569-.935-1.171-1.871-2.348-2.893-3.441C336.115,89.142,283.4,69.8,221.218,79.845,115,97,49.509,207.912,88.447,311.629c1.324,3.525,2.923,4.764,6.746,4.743,30.664-.169,61.329-.091,91.994-.1,3.491,0,7.007.2,10.467-.145,12.392-1.221,22.73-10.624,24.951-22.454,2.112-11.245-2.814-20.335-15.125-26.327-6.243-3.038-12.982-5.076-19.541-7.441-9.531-3.437-19.475-5.974-28.587-10.282-25.717-12.159-36.756-39.336-27.626-66.2,8.862-26.075,33.926-43.274,63.278-43.291q90.5-.051,180.99-.01Z"/>
    <path class="cls-2" d="M104.653,342.877h8.095c25,0,50,.185,75-.056,21.859-.211,40.866-7.212,54.814-24.95,15.648-19.9,19.117-56.688-14.681-74.779-9.438-5.052-19.981-8.06-30.068-11.87-7.145-2.7-14.618-4.648-21.515-7.856-12.961-6.028-19.36-19.539-16.2-32.622,3.018-12.5,15.762-22.049,29.4-22,7.665.026,15.329.123,22.994.132q80.744.093,161.488.162c1.647,0,3.295,0,6.136,0L309.031,342.618H343.84l63.066-163.33c29.974,58.433,22.328,161.188-64.237,216.476C258.663,449.418,152.332,419.453,104.653,342.877Z"/>
    <path class="cls-2" d="M382.361,140.123H376q-90.5,0-180.99.01c-29.352.017-54.416,17.216-63.278,43.291-9.13,26.864,1.909,54.04,27.626,66.2,9.112,4.308,19.056,6.845,28.587,10.282,6.56,2.365,13.3,4.4,19.541,7.441,12.311,5.992,17.236,15.082,15.125,26.327-2.221,11.83-12.559,21.233-24.951,22.454-3.46.341-6.977.144-10.467.145-30.665.008-61.33-.071-91.994.1-3.823.021-5.422-1.217-6.746-4.743C49.509,207.912,115,97,221.218,79.845c62.183-10.041,114.9,9.3,157.879,55.268,1.022,1.093,1.958,2.271,2.893,3.441C382.163,138.77,382.14,139.142,382.361,140.123Z"/>
  </g>
</svg>
