<?xml version="1.0" encoding="utf-8"?>
<!-- Generator: Adobe Illustrator 23.0.1, SVG Export Plug-In . SVG Version: 6.00 Build 0)  -->
<svg version="1.1" id="Layer_1" xmlns:ns="&#38;ns_ai;"
	 xmlns="http://www.w3.org/2000/svg" xmlns:xlink="http://www.w3.org/1999/xlink" x="0px" y="0px" viewBox="0 0 46.4 115.1"
	 style="enable-background:new 0 0 46.4 115.1;" xml:space="preserve">
<style type="text/css">
	.st0{fill:#282828;}
</style>
<g ns:extraneous="self">
	<path class="st0" d="M23.1,0c-5.2,0-9.4,4.2-9.4,9.4c0,5.2,4.2,9.4,9.4,9.4c5.2,0,9.4-4.2,9.4-9.4C32.6,4.2,28.3,0,23.1,0z
		 M12.7,21.3c-6.7,0-12.1,5.4-12.1,12.1v29.2c0,2.3,1.8,4.1,4.1,4.1c2.3,0,4.1-1.8,4.1-4.1V36.2h2.1c0,0,0,68.8,0,73.3
		c0,3,2.5,5.5,5.5,5.5c3.1,0,5.5-2.5,5.5-5.5V67h2.3v42.6c0,3,2.5,5.5,5.5,5.5c3.1,0,5.5-2.5,5.5-5.5V36.2h2.1v26.4
		c0,2.3,1.8,4.1,4.1,4.1c2.3,0,4.1-1.8,4.1-4.1V33.3c0-6.7-5.5-12.1-12.1-12.1C33.6,21.3,12.7,21.3,12.7,21.3z"/>
</g>
</svg>
