<svg id="Ebene_1" data-name="Ebene 1" xmlns="http://www.w3.org/2000/svg" viewBox="0 0 153.183 131.299">
  <defs>
    <style>
      .cls-1 {
        fill: #282828;
      }
    </style>
  </defs>
  <title>82be4027-9cb8-4fb6-9124-2a4b34e9ad0d</title>
  <g>
    <path class="cls-1" d="M5.642,27.525A18.428,18.428,0,0,0,0,41.031v71.12a18.422,18.422,0,0,0,5.642,13.506A18.421,18.421,0,0,0,19.148,131.3h5.47V21.883h-5.47A18.423,18.423,0,0,0,5.642,27.525Zm0,0"/>
    <path class="cls-1" d="M109.417,8.206a7.913,7.913,0,0,0-2.394-5.812A7.915,7.915,0,0,0,101.211,0H51.973a7.914,7.914,0,0,0-5.812,2.394,7.907,7.907,0,0,0-2.394,5.812V21.883H32.826V131.3h87.534V21.883H109.417ZM98.476,21.883H54.709V10.941H98.476Zm0,0"/>
    <path class="cls-1" d="M147.543,27.525a18.432,18.432,0,0,0-13.508-5.642h-5.47V131.3h5.47a19.261,19.261,0,0,0,19.148-19.148V41.031a18.432,18.432,0,0,0-5.64-13.506Zm0,0"/>
  </g>
</svg>
