<svg id="Ebene_1" data-name="Ebene 1" xmlns="http://www.w3.org/2000/svg" xmlns:xlink="http://www.w3.org/1999/xlink" viewBox="0 0 146.11 146.11">
  <defs>
    <style>
      .cls-1 {
        fill: none;
      }

      .cls-2 {
        clip-path: url(#clip-path);
      }

      .cls-3 {
        fill: #000002;
      }

      .cls-4 {
        fill: #282828;
      }
    </style>
    <clipPath id="clip-path">
      <rect class="cls-1" width="146.11" height="146.11"/>
    </clipPath>
  </defs>
  <title>f495b829-7b6f-4028-b983-9feec6a4ffb2</title>
  <g>
    <g class="cls-2">
      <path class="cls-3" d="M4,122.476a13.654,13.654,0,0,0,19.314,19.305L68.141,96.945l-19.314-19.3Zm0,0"/>
    </g>
    <path class="cls-3" d="M116.034,39.4,135.557,29.3,145.778,9.54,136.248.011,116.5,10.242,106.386,29.747,82.639,53.52l9.631,9.648Zm0,0"/>
    <path class="cls-4" d="M120.311,91.211l-1.838-.182a27.053,27.053,0,0,0-9.438,1.776l-56.04-56.05a27.1,27.1,0,0,0,1.774-9.437l-.182-1.84A27.033,27.033,0,0,0,15.76,2.741L33.9,20.882a8.911,8.911,0,0,1,2.048,3.276A9.094,9.094,0,0,1,21.03,33.742L2.889,15.611A27.034,27.034,0,0,0,25.626,54.44l1.839.182A27.266,27.266,0,0,0,36.9,52.856L92.934,108.9a27.479,27.479,0,0,0-1.757,9.439l.192,1.838a27.2,27.2,0,0,0,27.113,25.467,26.73,26.73,0,0,0,11.7-2.731l-18.139-18.14a9.3,9.3,0,0,1-2.066-3.267,9.073,9.073,0,0,1,8.5-12.269,8.941,8.941,0,0,1,3.167.619,8.738,8.738,0,0,1,3.268,2.048l18.139,18.14a26.931,26.931,0,0,0,2.73-11.7,27.241,27.241,0,0,0-25.476-27.125Zm0,0"/>
  </g>
</svg>
