<svg width="60" height="61" viewBox="0 0 60 61" fill="none" xmlns="http://www.w3.org/2000/svg">
<g clip-path="url(#clip0_1140_1020)">
<path d="M20.4921 35.0813L18.9819 36.5471C18.7687 36.7543 18.6484 37.0387 18.6484 37.3359V37.9615C18.6484 38.5685 19.1408 39.0609 19.7481 39.0609H28.7659C29.3739 39.0609 29.8659 38.5685 29.8659 37.9615V37.1518C29.8659 36.5447 29.3739 36.0521 28.7659 36.0521H23.7832L23.9206 35.9258C27.1771 32.7884 29.482 30.319 29.482 27.1036C29.482 24.5328 27.8112 21.9387 24.0772 21.9387C22.4471 21.9387 20.8508 22.4619 19.5818 23.4112C19.1697 23.7204 19.0267 24.2744 19.2388 24.7443L19.5162 25.3577C19.6509 25.656 19.9107 25.8788 20.2267 25.9655C20.5408 26.0523 20.8799 25.9937 21.1479 25.8065C21.9639 25.2367 22.8038 24.9475 23.6453 24.9475C25.283 24.9475 26.113 25.7618 26.113 27.3564C26.0912 29.5175 24.2986 31.4574 20.4921 35.0813Z" fill="#222836"/>
<path d="M36.9285 22.2067C36.8992 22.204 36.8695 22.2029 36.8402 22.2029H36.5044C36.1448 22.2029 35.8085 22.3785 35.603 22.6726L28.8682 32.3106C28.7392 32.4953 28.6702 32.7153 28.6702 32.9405V33.7131C28.6702 34.3204 29.1621 34.8127 29.7694 34.8127H35.9186V37.9616C35.9186 38.5686 36.4106 39.061 37.0179 39.061H38.0679C38.6747 39.061 39.1677 38.5686 39.1677 37.9616V34.8127H40.2517C40.859 34.8127 41.3515 34.3204 41.3515 33.7131V32.9991C41.3515 32.3922 40.859 31.8997 40.2517 31.8997H39.1677V23.3025C39.1677 22.6956 38.6747 22.2031 38.0679 22.2031H37.0179C36.9878 22.2031 36.9578 22.2042 36.9285 22.2067ZM35.9186 31.8997H32.5982C33.4418 30.6748 34.8841 28.5728 35.9186 27.0192V31.8997Z" fill="#222836"/>
<path d="M30.0413 55.7438C17.1001 55.7438 6.57134 45.215 6.57134 32.2738C6.57134 20.0195 16.0124 9.93042 28.0023 8.89318V12.6344C28.0023 12.9002 28.1489 13.1445 28.3833 13.2693C28.4895 13.326 28.6057 13.3537 28.7216 13.3537C28.8618 13.3537 29.002 13.3127 29.1226 13.2314L37.6176 7.52396C37.8166 7.39041 37.9359 7.16648 37.9359 6.92677C37.9359 6.68725 37.8166 6.46314 37.6176 6.32958L29.1226 0.622126C28.9021 0.473922 28.6177 0.459083 28.3831 0.584457C28.1487 0.70945 28.0021 0.953729 28.0021 1.21932V4.12137C13.3866 5.17002 1.81494 17.3952 1.81494 32.2736C1.81494 47.8376 14.4775 60.4998 30.0412 60.4998C37.247 60.4998 44.107 57.7848 49.3575 52.855L46.1021 49.3876C41.7367 53.4865 36.033 55.7438 30.0413 55.7438Z" fill="#FFC50A"/>
<path d="M54.1355 17.5632C53.1631 15.9729 52.026 14.4713 50.7569 13.1007L47.267 16.3321C48.3232 17.4726 49.2688 18.722 50.0781 20.0448L54.1355 17.5632Z" fill="#FFC50A"/>
<path d="M53.2973 29.0864L58.0103 28.4465C57.7588 26.5935 57.3207 24.7609 56.7079 22.9993L52.2157 24.5615C52.7245 26.0243 53.0882 27.5467 53.2973 29.0864Z" fill="#FFC50A"/>
<path d="M46.2302 9.14849C44.6996 8.07492 43.0572 7.15165 41.3484 6.40378L39.4417 10.761C40.8618 11.3826 42.227 12.15 43.4992 13.0423L46.2302 9.14849Z" fill="#FFC50A"/>
<path d="M48.1724 47.178L51.8448 50.2005C53.0327 48.7571 54.0802 47.1913 54.9578 45.5467L50.7619 43.3072C50.0321 44.6747 49.161 45.9772 48.1724 47.178Z" fill="#FFC50A"/>
<path d="M53.4423 34.0887C53.324 35.6406 53.0502 37.1829 52.6294 38.6724L57.2062 39.9665C57.7134 38.1732 58.0425 36.3175 58.1852 34.4512L53.4423 34.0887Z" fill="#FFC50A"/>
</g>
<defs>
<clipPath id="clip0_1140_1020">
<rect width="60" height="60" fill="white" transform="translate(0 0.5)"/>
</clipPath>
</defs>
</svg>
