<svg width="36" height="36" viewBox="0 0 36 36" fill="none" xmlns="http://www.w3.org/2000/svg">
<g clip-path="url(#clip0_1125_19302)">
<path d="M12.2952 20.7488L11.3891 21.6283C11.2611 21.7526 11.189 21.9232 11.189 22.1015V22.4769C11.189 22.8411 11.4844 23.1365 11.8487 23.1365H17.2594C17.6242 23.1365 17.9194 22.8411 17.9194 22.4769V21.991C17.9194 21.6268 17.6242 21.3313 17.2594 21.3313H14.2699L14.3523 21.2555C16.3062 19.373 17.6891 17.8914 17.6891 15.9621C17.6891 14.4196 16.6866 12.8632 14.4462 12.8632C13.4682 12.8632 12.5104 13.1771 11.749 13.7467C11.5017 13.9322 11.4159 14.2646 11.5432 14.5466L11.7096 14.9146C11.7904 15.0936 11.9463 15.2272 12.1359 15.2793C12.3244 15.3314 12.5278 15.2962 12.6887 15.1839C13.1782 14.842 13.6822 14.6685 14.1871 14.6685C15.1697 14.6685 15.6677 15.157 15.6677 16.1138C15.6546 17.4105 14.5791 18.5744 12.2952 20.7488Z" fill="#222836"/>
<path d="M22.1571 13.024C22.1395 13.0224 22.1217 13.0217 22.1042 13.0217H21.9027C21.6869 13.0217 21.4851 13.127 21.3619 13.3035L17.321 19.0863C17.2436 19.1971 17.2021 19.3291 17.2021 19.4642V19.9278C17.2021 20.2922 17.4973 20.5876 17.8617 20.5876H21.5512V22.4769C21.5512 22.8411 21.8464 23.1365 22.2108 23.1365H22.8408C23.2049 23.1365 23.5007 22.8411 23.5007 22.4769V20.5876H24.1511C24.5154 20.5876 24.811 20.2922 24.811 19.9278V19.4994C24.811 19.1353 24.5154 18.8397 24.1511 18.8397H23.5007V13.6815C23.5007 13.3173 23.2049 13.0218 22.8408 13.0218H22.2108C22.1927 13.0218 22.1747 13.0225 22.1571 13.024ZM21.5512 18.8397H19.559C20.0651 18.1048 20.9305 16.8436 21.5512 15.9115V18.8397Z" fill="#222836"/>
<path d="M18.0247 33.1463C10.2599 33.1463 3.94271 26.829 3.94271 19.0643C3.94271 11.7117 9.60736 5.65824 16.8013 5.0359V7.28064C16.8013 7.44011 16.8893 7.58668 17.0299 7.66156C17.0936 7.69558 17.1633 7.71224 17.2329 7.71224C17.317 7.71224 17.4011 7.68759 17.4735 7.63884L22.5705 4.21437C22.6899 4.13424 22.7614 3.99988 22.7614 3.85606C22.7614 3.71234 22.6899 3.57788 22.5705 3.49774L17.4735 0.0732695C17.3412 -0.0156526 17.1705 -0.0245563 17.0298 0.050668C16.8892 0.125664 16.8011 0.272231 16.8011 0.431584V2.17281C8.03187 2.802 1.08887 10.1371 1.08887 19.0641C1.08887 28.4026 8.6864 35.9999 18.0246 35.9999C22.3481 35.9999 26.4641 34.3709 29.6144 31.413L27.6612 29.3325C25.0419 31.7919 21.6197 33.1463 18.0247 33.1463Z" fill="#222836"/>
<path d="M32.4812 10.2379C31.8978 9.28373 31.2155 8.38275 30.454 7.56042L28.3601 9.49924C28.9938 10.1836 29.5612 10.9332 30.0468 11.7269L32.4812 10.2379Z" fill="#222836"/>
<path d="M31.9783 17.1518L34.8061 16.7679C34.6552 15.6561 34.3923 14.5565 34.0246 13.4996L31.3293 14.4369C31.6346 15.3146 31.8528 16.228 31.9783 17.1518Z" fill="#222836"/>
<path d="M27.738 5.18909C26.8197 4.54495 25.8342 3.99098 24.809 3.54226L23.665 6.15662C24.517 6.52954 25.3361 6.99002 26.0994 7.52538L27.738 5.18909Z" fill="#222836"/>
<path d="M28.9034 28.0068L31.1068 29.8203C31.8195 28.9542 32.448 28.0148 32.9746 27.028L30.457 25.6843C30.0192 26.5048 29.4965 27.2863 28.9034 28.0068Z" fill="#222836"/>
<path d="M32.0653 20.1532C31.9943 21.0844 31.83 22.0098 31.5775 22.9034L34.3236 23.6799C34.6279 22.6039 34.8254 21.4905 34.911 20.3707L32.0653 20.1532Z" fill="#222836"/>
</g>
<defs>
<clipPath id="clip0_1125_19302">
<rect width="36" height="36" fill="white"/>
</clipPath>
</defs>
</svg>
