<svg width="18" height="18" viewBox="0 0 18 18" fill="none" xmlns="http://www.w3.org/2000/svg">
<path d="M15.2754 8.57461L8.63438 2.81074C8.5834 2.7668 8.51836 2.74219 8.4498 2.74219H6.89414C6.76406 2.74219 6.7043 2.90391 6.80273 2.98828L12.9586 8.33203H2.67188C2.59453 8.33203 2.53125 8.39531 2.53125 8.47266V9.52734C2.53125 9.60469 2.59453 9.66797 2.67188 9.66797H12.9568L6.80098 15.0117C6.70254 15.0979 6.7623 15.2578 6.89238 15.2578H8.50078C8.53418 15.2578 8.56758 15.2455 8.59219 15.2227L15.2754 9.42539C15.3362 9.37247 15.385 9.30712 15.4185 9.23373C15.4519 9.16035 15.4692 9.08064 15.4692 9C15.4692 8.91936 15.4519 8.83965 15.4185 8.76627C15.385 8.69288 15.3362 8.62753 15.2754 8.57461Z" fill="white"/>
</svg>
