<svg width="50" height="50" fill="none" xmlns="http://www.w3.org/2000/svg"><g clip-path="url(#clip0_910_27197)" fill="#222836"><path d="M49.167 10h-4.5L33 21.667h2.834v1.666h-3.5L20.667 35h9.917L42.25 23.333h-1.416v-1.666h1.583L50 14.083v-3.25a.835.835 0 00-.833-.833zm-10 13.333H37.5v-1.666h1.667v1.666zM40.833 7.5c1-.75 1.667-1.917 1.667-3.333A4.126 4.126 0 0038.333 0a4.126 4.126 0 00-4.166 4.167c0 1.333.666 2.583 1.666 3.333V10h-3.416L20.75 21.667h9.917L42.333 10h-1.5V7.5zM39.167 10H37.5V8.25c.25.083.583.083.833.083s.584 0 .834-.083V10zM.833 10c-.5 0-.833.333-.833.833v6.083L6.917 10H.833zM44.75 21.667h4.417c.5 0 .833-.334.833-.834v-4.416l-5.25 5.25z"/><path d="M14.167 10V7.5c1-.75 1.666-1.917 1.666-3.333A4.126 4.126 0 0011.667 0 4.126 4.126 0 007.5 4.167C7.5 5.5 8.167 6.75 9.167 7.5v2.667L0 19.333v1.5c0 .5.417.834.833.834H7L18.667 10h-4.5zM12.5 10h-1.667V8.25c.25.083.584.083.834.083s.583 0 .833-.083V10zm36.667 13.333h-4.5L33 35h4.5v4.167h-25V35h5.833L30 23.333h-8.917l-10 10H8.75l10-10h-4.583v-1.666h4.166L30 10h-8.917l-10 10H10c-.5 0-.833.333-.833.833v2.584L0 32.583v1.584c0 .5.333.833.833.833H7l.5-.5v14.667c0 .5.333.833.833.833h3.334c.5 0 .833-.333.833-.833v-3.334h25v3.334c0 .5.333.833.833.833h3.334c.5 0 .833-.333.833-.833v-14.25l7.5-7.5v-3.25a.835.835 0 00-.833-.834zm-38.334-1.666H12.5v1.666h-1.667v-1.666zm0 18.333v8.333H9.167V35h1.666v5zm30 8.333h-1.666V35h1.666v13.333zm-40-25c-.5 0-.833.334-.833.834v6.083l6.917-6.917H.833z"/><path d="M44.75 35h4.417c.5 0 .833-.333.833-.833V29.75L44.75 35z"/></g><defs><clipPath id="clip0_910_27197"><path fill="#fff" d="M0 0h50v50H0z"/></clipPath></defs></svg>