<svg width="51" height="56" viewBox="0 0 51 56" fill="none" xmlns="http://www.w3.org/2000/svg">
<path d="M46.72 30.723C48.694 28.056 50.558 25.537 50.62 21.028C50.6771 18.3553 50.3511 15.6883 49.652 13.108C48.7707 10.0748 46.9182 7.41466 44.379 5.536C37.888 0.430004 32.207 -1.613 19.161 1.4C15.98 2.134 12.714 3.153 10.378 5.627C8.79919 7.31626 7.58109 9.30946 6.798 11.485C6.45717 12.4766 6.17896 13.4886 5.965 14.515L5.885 14.864C5.63653 15.7965 5.30002 16.7032 4.88 17.572C4.55886 18.1688 4.33345 18.8123 4.212 19.479C4.255 19.787 4.635 20.137 5.039 20.507C5.86464 21.0898 6.39748 22.0016 6.5 23.007C6.48155 23.4978 6.34097 23.9762 6.091 24.399C6.03226 24.5068 5.98146 24.6188 5.939 24.734C5.74295 26.3202 5.0763 27.8112 4.025 29.015C2.842 30.29 0.642 32.663 0.625 33.241C0.831067 33.4384 1.05206 33.6196 1.286 33.783C1.52676 33.9435 1.77912 34.0859 2.041 34.209C2.895 34.646 4.065 35.244 4.297 36.471C4.44165 37.2259 4.34763 38.007 4.028 38.706C3.859 39.064 3.683 39.377 3.528 39.648C3.476 39.742 3.418 39.848 3.367 39.939C3.777 40.267 4.347 40.696 4.587 40.874C4.80351 41.0346 4.94599 41.2759 4.98214 41.543C5.01829 41.8102 4.94504 42.0806 4.779 42.293C4.63098 42.4867 4.50268 42.6948 4.396 42.914L4.609 43.037C5.4912 43.4188 6.16308 44.1663 6.449 45.084C6.60587 45.7701 6.57966 46.4853 6.373 47.158C6.12503 47.9621 6.16033 48.8268 6.473 49.608C6.68718 50.5337 7.59328 51.1257 8.527 50.95C11.4277 50.2401 14.2879 49.3738 17.095 48.355H17.101C18.072 48.023 18.959 47.711 19.676 47.455C20.442 47.186 21.02 46.983 21.313 46.891C25.457 45.591 26.298 44.084 26.274 43.053C26.2611 42.501 26.698 42.0431 27.25 42.03C27.5171 42.0166 27.7779 42.1135 27.9714 42.2981C28.1648 42.4826 28.2739 42.7386 28.273 43.006C28.332 45.506 26.192 47.452 21.915 48.798C21.635 48.886 21.078 49.082 20.339 49.342L19.592 49.604C21.1018 51.2324 22.224 53.181 22.875 55.304C23.0123 55.7141 23.3946 55.9919 23.827 55.996H36.398C34.543 50.8 32.879 44.865 33.969 38.735C34.047 38.292 34.141 37.843 34.236 37.389C34.758 35.6934 34.8171 33.8891 34.407 32.163C32.151 31.268 31.007 30.222 30.575 28.621C29.8661 28.5631 29.1658 28.4266 28.487 28.214C27.0601 29.5466 25.0935 30.1377 23.1683 29.8128C21.2432 29.4879 19.5795 28.2841 18.669 26.557C15.4262 27.3469 12.0304 26.0717 10.1089 23.3426C8.18751 20.6135 8.132 16.9866 9.969 14.2C9.52815 12.2684 10.5524 10.3019 12.388 9.55601C12.4813 8.04478 13.2567 6.65798 14.4954 5.78721C15.734 4.91644 17.3014 4.65621 18.755 5.08C20.0629 3.39159 22.0753 2.39939 24.211 2.39C25.5364 2.39212 26.8328 2.77761 27.944 3.5C28.8263 2.66762 30.034 2.27238 31.2377 2.42209C32.4414 2.5718 33.5155 3.25085 34.167 4.274C34.267 4.274 34.355 4.258 34.452 4.258C38.5297 4.27989 42.0185 7.1919 42.769 11.2C43.9409 11.4488 44.9448 12.199 45.5154 13.2524C46.086 14.3058 46.1659 15.5565 45.734 16.674C47.1081 18.941 46.8853 21.8314 45.18 23.861C44.7418 25.9083 43.5577 27.7194 41.858 28.942C42.2214 29.5883 42.5173 30.2702 42.741 30.977C42.8424 31.2821 42.8938 31.6015 42.893 31.923C42.891 33.0728 42.247 34.1251 41.224 34.65C41.1421 35.7073 40.9807 36.757 40.741 37.79C40.65 38.225 40.559 38.655 40.485 39.08C39.43 45.003 41.208 50.88 43.069 55.997H44.004C44.3478 55.9967 44.6673 55.8198 44.8501 55.5286C45.0329 55.2374 45.0532 54.8727 44.904 54.563C43.5478 51.5786 42.7027 48.3875 42.404 45.123C42.0072 41.7785 42.5094 38.3887 43.859 35.303C44.6349 33.6722 45.5948 32.1356 46.72 30.723V30.723Z" fill="white"/>
</svg>
