<svg width="34" height="35" viewBox="0 0 34 35" fill="none" xmlns="http://www.w3.org/2000/svg">
<path d="M28.7961 1.77222H5.20427C4.12101 1.77222 3.23828 2.65494 3.23828 3.7382V31.262C3.23828 32.3472 4.12101 33.228 5.20427 33.228H28.7961C29.8813 33.228 30.7621 32.3472 30.7621 31.262V3.7382C30.7621 2.65494 29.8813 1.77222 28.7961 1.77222ZM11.1022 29.296H7.17025V25.3641H11.1022V29.296ZM11.1022 21.4321H7.17025V17.5001H11.1022V21.4321ZM18.9662 29.296H15.0342V25.3641H18.9662V29.296ZM18.9662 21.4321H15.0342V17.5001H18.9662V21.4321ZM26.8301 29.296H22.8981V17.5001H26.8301V29.296ZM26.8301 12.5851C26.8301 13.1278 26.3897 13.5681 25.8471 13.5681H8.15325C7.61064 13.5681 7.17025 13.1278 7.17025 12.5851V6.68718C7.17025 6.14457 7.61064 5.70419 8.15325 5.70419H25.8471C26.3897 5.70419 26.8301 6.14457 26.8301 6.68718V12.5851Z" fill="#222836"/>
</svg>
