<svg width="56" height="56" fill="none" xmlns="http://www.w3.org/2000/svg"><circle cx="28" cy="28" r="27" stroke="#FFC50A" stroke-width="2"/><path fill-rule="evenodd" clip-rule="evenodd" d="M20.9 17.03c-.435.176-3.39 3.615-3.83 4.458-.082.158-.085.192-.043.53.297 2.39 1.823 5.44 4.125 8.243.805.98 2.232 2.47 3.216 3.358 2.977 2.685 5.966 4.223 8.467 4.354l.513.027.288-.14c.975-.476 4.088-2.84 4.313-3.275.055-.106.052-.122-.048-.241-.49-.58-4.594-3.201-5.014-3.201-.15 0-.476.263-1.245 1.01-.425.411-.815.772-.868.802-.122.07-.79.067-1.121-.004-2.514-.536-5.159-2.921-6.735-6.074-.486-.972-.89-2.142-.825-2.395.04-.158.462-.589 1.175-1.195.809-.69 1.04-.933 1.005-1.057-.058-.199-.572-1.2-1.003-1.951-.834-1.456-1.634-2.678-2.023-3.094-.191-.205-.205-.211-.347-.154zm7.071.051c-.032.148-.228 1.55-.228 1.637 0 .069.034.077.31.077 1.075 0 2.375.317 3.447.84 2.754 1.345 4.545 4.045 4.689 7.067.016.336.042.544.069.544.067 0 1.554-.204 1.66-.228.091-.02.093-.03.069-.399-.138-2.094-.805-3.938-2.014-5.568-.411-.554-1.474-1.616-2.03-2.027-1.627-1.206-3.494-1.882-5.552-2.01-.391-.025-.4-.024-.42.067zm-.736 5.19c-.06.446-.118.848-.128.893-.017.08.005.082.69.082.767 0 .944.03 1.536.268.897.358 1.75 1.194 2.121 2.078.247.586.293.84.293 1.602 0 .609.009.705.061.69.034-.01.439-.069.899-.132l.837-.115-.024-.698c-.014-.393-.052-.824-.089-.986-.29-1.29-.935-2.371-1.895-3.173a5.533 5.533 0 00-3.648-1.319h-.542l-.11.81z" fill="#000"/></svg>