<svg width="52" height="52" viewBox="0 0 52 52" fill="none" xmlns="http://www.w3.org/2000/svg">
<circle cx="26" cy="26" r="26" fill="url(#paint0_linear_1078_9437)"/>
<path fill-rule="evenodd" clip-rule="evenodd" d="M18.7579 14.9205C18.3256 15.0946 15.3922 18.5082 14.956 19.3445C14.8738 19.5022 14.871 19.536 14.9126 19.8705C15.2077 22.2432 16.7229 25.2707 19.0079 28.0534C19.8064 29.026 21.2233 30.5054 22.2002 31.3867C25.1549 34.0523 28.1227 35.5785 30.6049 35.7087L31.1144 35.7355L31.3997 35.5962C32.3675 35.1237 35.458 32.7776 35.6815 32.3457C35.7359 32.2406 35.7326 32.2241 35.6332 32.1062C35.1482 31.5302 31.0738 28.929 30.6567 28.929C30.5071 28.929 30.1845 29.1905 29.4208 29.9308C28.999 30.3397 28.6114 30.6983 28.5594 30.7276C28.4376 30.7963 27.7757 30.794 27.446 30.7237C24.9502 30.1913 22.3254 27.8241 20.7607 24.6944C20.2784 23.7296 19.8781 22.568 19.9413 22.3165C19.9807 22.1596 20.4009 21.7323 21.1078 21.1303C21.911 20.4463 22.1411 20.2043 22.1055 20.0812C22.0483 19.884 21.5379 18.891 21.11 18.1444C20.2819 16.6997 19.4885 15.4861 19.1025 15.0733C18.9123 14.8701 18.8983 14.8639 18.7579 14.9205ZM25.7768 14.9708C25.7446 15.1167 25.5507 16.5094 25.5507 16.5948C25.5507 16.6634 25.5839 16.6717 25.858 16.6717C26.925 16.6717 28.2159 16.9865 29.2802 17.5062C32.0133 18.8409 33.7915 21.5212 33.9341 24.5208C33.95 24.8542 33.9761 25.0604 34.0026 25.0604C34.0688 25.0604 35.5454 24.8581 35.6503 24.8346C35.7413 24.8143 35.7428 24.8053 35.7188 24.4382C35.5822 22.3595 34.9204 20.5293 33.7202 18.9114C33.3117 18.3607 32.2566 17.3066 31.7054 16.8985C30.0892 15.7017 28.236 15.0309 26.1936 14.9032C25.8055 14.8789 25.7967 14.8803 25.7768 14.9708ZM25.0464 20.1229C24.986 20.5652 24.9289 20.9638 24.9193 21.0086C24.9026 21.0875 24.9235 21.09 25.6034 21.09C26.3654 21.09 26.5413 21.1206 27.1288 21.3557C28.0193 21.7119 28.866 22.5414 29.2343 23.4186C29.4788 24.0008 29.5248 24.2523 29.5248 25.009C29.5248 25.6134 29.5333 25.7086 29.5859 25.694C29.6195 25.6846 30.0208 25.6256 30.4777 25.5629L31.3084 25.4488L31.2847 24.7557C31.2714 24.3653 31.233 23.9382 31.197 23.7776C30.9093 22.4966 30.2684 21.4235 29.3155 20.6274C28.2732 19.7566 27.0613 19.3186 25.6945 19.3186H25.1561L25.0464 20.1229Z" fill="#222836"/>
<defs>
<linearGradient id="paint0_linear_1078_9437" x1="60.2803" y1="59.5111" x2="-13.271" y2="8.94705" gradientUnits="userSpaceOnUse">
<stop stop-color="#FFA904"/>
<stop offset="0.526959" stop-color="#FFC50A"/>
<stop offset="1" stop-color="#FFD50A"/>
</linearGradient>
</defs>
</svg>
