<svg width="190" height="52" viewBox="0 0 190 52" fill="none" xmlns="http://www.w3.org/2000/svg">
<rect x="0.230957" width="189" height="52" rx="26" fill="url(#paint0_linear_1078_17739)"/>
<path fill-rule="evenodd" clip-rule="evenodd" d="M30.1579 17.525C29.8054 17.6671 27.4131 20.4509 27.0574 21.1329C26.9903 21.2615 26.9881 21.2891 27.022 21.5619C27.2627 23.4968 28.4983 25.9658 30.3617 28.2352C31.013 29.0283 32.1684 30.2348 32.9651 30.9535C35.3747 33.1274 37.795 34.3719 39.8193 34.4782L40.2348 34.5L40.4675 34.3864C41.2567 34.0011 43.7771 32.0878 43.9594 31.7356C44.0037 31.6499 44.001 31.6365 43.92 31.5402C43.5244 31.0705 40.2017 28.9492 39.8616 28.9492C39.7396 28.9492 39.4764 29.1625 38.8536 29.7662C38.5096 30.0997 38.1936 30.3921 38.1512 30.416C38.0519 30.472 37.512 30.4702 37.2432 30.4128C35.2078 29.9787 33.0673 28.0482 31.7912 25.4958C31.3979 24.709 31.0714 23.7618 31.123 23.5566C31.1551 23.4287 31.4978 23.0802 32.0743 22.5892C32.7293 22.0314 32.917 21.834 32.8879 21.7337C32.8412 21.5729 32.425 20.763 32.076 20.1542C31.4007 18.9761 30.7537 17.9863 30.4389 17.6497C30.2838 17.4839 30.2724 17.4789 30.1579 17.525ZM35.8819 17.566C35.8556 17.685 35.6975 18.8208 35.6975 18.8905C35.6975 18.9464 35.7246 18.9532 35.9481 18.9532C36.8183 18.9532 37.871 19.2099 38.739 19.6338C40.9679 20.7222 42.418 22.908 42.5343 25.3543C42.5473 25.6262 42.5686 25.7943 42.5902 25.7943C42.6442 25.7943 43.8483 25.6293 43.9339 25.6102C44.0081 25.5936 44.0094 25.5863 43.9897 25.2869C43.8784 23.5917 43.3387 22.0991 42.3599 20.7797C42.0267 20.3306 41.1663 19.471 40.7168 19.1381C39.3987 18.1622 37.8874 17.6151 36.2218 17.511C35.9053 17.4912 35.8982 17.4923 35.8819 17.566ZM35.2863 21.7677C35.237 22.1284 35.1904 22.4534 35.1826 22.49C35.169 22.5544 35.186 22.5564 35.7405 22.5564C36.3619 22.5564 36.5054 22.5814 36.9845 22.773C37.7107 23.0636 38.4012 23.74 38.7016 24.4554C38.901 24.9302 38.9384 25.1353 38.9384 25.7524C38.9384 26.2453 38.9454 26.323 38.9883 26.311C39.0157 26.3034 39.343 26.2552 39.7156 26.2041L40.393 26.111L40.3737 25.5458C40.3628 25.2275 40.3316 24.8791 40.3022 24.7482C40.0676 23.7035 39.5449 22.8283 38.7677 22.1791C37.9178 21.469 36.9295 21.1118 35.8148 21.1118H35.3757L35.2863 21.7677Z" fill="#222836"/>
<path d="M55.2185 30V20.2H63.1845V30H61.6445V21.614H56.7585V30H55.2185ZM65.6228 30V20.2H72.5948V21.614H67.1628V24.064H71.5868V25.478H67.1628V28.586H72.7768V30H65.6228ZM74.5915 30V20.2H78.8055C79.8135 20.2 80.6115 20.466 81.1995 20.998C81.7875 21.5207 82.0815 22.202 82.0815 23.042C82.0815 23.9007 81.7875 24.6007 81.1995 25.142C80.6115 25.6833 79.8135 25.954 78.8055 25.954H76.1315V30H74.5915ZM76.1315 24.54H78.6795C79.2675 24.54 79.7202 24.414 80.0375 24.162C80.3642 23.91 80.5275 23.546 80.5275 23.07C80.5275 22.594 80.3642 22.2347 80.0375 21.992C79.7202 21.74 79.2675 21.614 78.6795 21.614H76.1315V24.54ZM83.8611 30V20.2H90.8331V21.614H85.4011V24.064H89.8251V25.478H85.4011V28.586H91.0151V30H83.8611ZM95.7522 30.182C94.3709 30.182 93.2275 29.902 92.3222 29.342V27.83C92.7422 28.1007 93.2415 28.32 93.8202 28.488C94.4082 28.656 94.9775 28.74 95.5282 28.74C96.3682 28.74 97.0262 28.586 97.5022 28.278C97.9782 27.97 98.2162 27.55 98.2162 27.018C98.2162 26.5513 97.9969 26.1827 97.5582 25.912C97.1289 25.632 96.5502 25.492 95.8222 25.492H94.6042V24.078H96.0042C96.6109 24.078 97.0729 23.966 97.3902 23.742C97.7169 23.5087 97.8802 23.182 97.8802 22.762C97.8802 22.342 97.6889 22.02 97.3062 21.796C96.9329 21.572 96.4195 21.46 95.7662 21.46C94.6835 21.46 93.6755 21.698 92.7422 22.174V20.76C93.6942 20.2653 94.7302 20.018 95.8502 20.018C96.9142 20.018 97.7729 20.2607 98.4262 20.746C99.0795 21.2313 99.4062 21.8753 99.4062 22.678C99.4062 23.21 99.2475 23.644 98.9302 23.98C98.6222 24.316 98.2722 24.5587 97.8802 24.708C98.3935 24.8667 98.8415 25.156 99.2242 25.576C99.6069 25.9867 99.7982 26.5093 99.7982 27.144C99.7982 28.0213 99.4342 28.7493 98.7062 29.328C97.9782 29.8973 96.9935 30.182 95.7522 30.182ZM101.771 30V20.2H106.223C107.101 20.2 107.801 20.4147 108.323 20.844C108.846 21.264 109.107 21.852 109.107 22.608C109.107 23.112 108.981 23.5413 108.729 23.896C108.487 24.2413 108.179 24.484 107.805 24.624C108.412 24.7453 108.911 25.0347 109.303 25.492C109.695 25.94 109.891 26.5233 109.891 27.242C109.891 28.0633 109.593 28.7307 108.995 29.244C108.407 29.748 107.605 30 106.587 30H101.771ZM103.311 28.586H106.307C106.914 28.586 107.385 28.4507 107.721 28.18C108.057 27.9 108.225 27.5127 108.225 27.018C108.225 26.5233 108.057 26.15 107.721 25.898C107.395 25.6367 106.923 25.506 106.307 25.506H103.311V28.586ZM103.311 24.148H105.957C106.471 24.148 106.867 24.0407 107.147 23.826C107.437 23.6113 107.581 23.294 107.581 22.874C107.581 22.034 107.04 21.614 105.957 21.614H103.311V24.148ZM116.304 28.74C117.284 28.74 118.101 28.3947 118.754 27.704C119.407 27.0133 119.734 26.1453 119.734 25.1C119.734 24.0547 119.407 23.1867 118.754 22.496C118.101 21.8053 117.284 21.46 116.304 21.46C115.333 21.46 114.521 21.8053 113.868 22.496C113.215 23.1867 112.888 24.0547 112.888 25.1C112.888 26.1453 113.215 27.0133 113.868 27.704C114.521 28.3947 115.333 28.74 116.304 28.74ZM119.874 28.726C118.922 29.6967 117.732 30.182 116.304 30.182C114.876 30.182 113.686 29.6967 112.734 28.726C111.782 27.746 111.306 26.5373 111.306 25.1C111.306 23.6627 111.782 22.4587 112.734 21.488C113.686 20.508 114.876 20.018 116.304 20.018C117.732 20.018 118.922 20.508 119.874 21.488C120.835 22.4587 121.316 23.6627 121.316 25.1C121.316 26.5373 120.835 27.746 119.874 28.726ZM123.4 30V20.2H124.94V24.064H130.05V20.2H131.59V30H130.05V25.478H124.94V30H123.4ZM134.023 30V20.2H135.563V27.396L140.953 20.2H142.297V30H140.757V22.776L135.339 30H134.023ZM143.972 20.2H151.994V21.614H148.746V30H147.206V21.614H143.972V20.2ZM153.67 30V20.2H155.21V23.588H157.744C158.882 23.588 159.778 23.8867 160.432 24.484C161.085 25.0813 161.412 25.856 161.412 26.808C161.412 27.7507 161.08 28.5207 160.418 29.118C159.764 29.706 158.873 30 157.744 30H153.67ZM155.21 28.586H157.66C158.35 28.586 158.887 28.432 159.27 28.124C159.652 27.8067 159.844 27.368 159.844 26.808C159.844 26.2387 159.652 25.7953 159.27 25.478C158.887 25.1607 158.35 25.002 157.66 25.002H155.21V28.586Z" fill="#222836"/>
<defs>
<linearGradient id="paint0_linear_1078_17739" x1="219.326" y1="59.5111" x2="164.977" y2="-76.2905" gradientUnits="userSpaceOnUse">
<stop stop-color="#FFA904"/>
<stop offset="0.526959" stop-color="#FFC50A"/>
<stop offset="1" stop-color="#FFD50A"/>
</linearGradient>
</defs>
</svg>
