<svg width="24" height="30" viewBox="0 0 24 30" fill="none" xmlns="http://www.w3.org/2000/svg">
<path d="M14.4805 0.833374H9.52213C8.7381 0.833398 7.98157 1.12238 7.3972 1.64508C6.81282 2.16778 6.44158 2.88753 6.35447 3.66671H3.85547C3.01009 3.66671 2.19934 4.00253 1.60157 4.6003C1.00379 5.19808 0.667969 6.00883 0.667969 6.85421V25.9792C0.667969 26.8246 1.00379 27.6353 1.60157 28.2331C2.19934 28.8309 3.01009 29.1667 3.85547 29.1667H20.1471C20.5657 29.1667 20.9802 29.0843 21.3669 28.9241C21.7537 28.7639 22.105 28.5291 22.401 28.2331C22.697 27.9371 22.9318 27.5857 23.092 27.199C23.2522 26.8123 23.3346 26.3978 23.3346 25.9792V6.85421C23.3346 6.43562 23.2522 6.02113 23.092 5.6344C22.9318 5.24768 22.697 4.89629 22.401 4.6003C22.105 4.30432 21.7537 4.06953 21.3669 3.90934C20.9802 3.74915 20.5657 3.66671 20.1471 3.66671H17.6481C17.561 2.88753 17.1898 2.16778 16.6054 1.64508C16.021 1.12238 15.2645 0.833398 14.4805 0.833374V0.833374ZM9.52213 2.95837H14.4805C14.7623 2.95837 15.0325 3.07032 15.2318 3.26957C15.431 3.46883 15.543 3.73908 15.543 4.02087C15.543 4.30267 15.431 4.57292 15.2318 4.77218C15.0325 4.97143 14.7623 5.08337 14.4805 5.08337H9.52213C9.24034 5.08337 8.97009 4.97143 8.77083 4.77218C8.57158 4.57292 8.45963 4.30267 8.45963 4.02087C8.45963 3.73908 8.57158 3.46883 8.77083 3.26957C8.97009 3.07032 9.24034 2.95837 9.52213 2.95837ZM19.1271 13.6259L11.3355 21.4175C11.1362 21.6165 10.8662 21.7283 10.5846 21.7283C10.3031 21.7283 10.033 21.6165 9.8338 21.4175L6.29213 17.8759C6.18774 17.7786 6.10402 17.6613 6.04594 17.531C5.98787 17.4006 5.95665 17.2599 5.95413 17.1173C5.95161 16.9746 5.97786 16.8329 6.03129 16.7006C6.08473 16.5683 6.16427 16.4481 6.26516 16.3472C6.36606 16.2463 6.48624 16.1668 6.61854 16.1134C6.75084 16.0599 6.89255 16.0337 7.03521 16.0362C7.17787 16.0387 7.31856 16.0699 7.4489 16.128C7.57923 16.1861 7.69653 16.2698 7.7938 16.3742L10.5846 19.165L17.6255 12.1242C17.7227 12.0198 17.84 11.9361 17.9704 11.878C18.1007 11.8199 18.2414 11.7887 18.3841 11.7862C18.5267 11.7837 18.6684 11.8099 18.8007 11.8634C18.933 11.9168 19.0532 11.9963 19.1541 12.0972C19.255 12.1981 19.3345 12.3183 19.388 12.4506C19.4414 12.5829 19.4677 12.7246 19.4651 12.8673C19.4626 13.0099 19.4314 13.1506 19.3733 13.281C19.3153 13.4113 19.2315 13.5286 19.1271 13.6259V13.6259Z" fill="#222836"/>
</svg>
