<svg width="32" height="31" viewBox="0 0 32 31" fill="none" xmlns="http://www.w3.org/2000/svg">
<path d="M28.9505 8.03965H20.7204V3.58727C20.7204 1.95473 19.3846 0.619019 17.7521 0.619019H14.7839C13.1513 0.619019 11.8156 1.95473 11.8156 3.58727V8.03965H3.58544C1.9529 8.03965 0.617188 9.37537 0.617188 11.0079V27.3333C0.617188 28.9658 1.9529 30.3016 3.58544 30.3016H28.9505C30.5831 30.3016 31.9188 28.9658 31.9188 27.3333V11.0079C31.9188 9.37537 30.5831 8.03965 28.9505 8.03965ZM11.0061 15.4603C12.2379 15.4603 13.2323 16.4547 13.2323 17.6865C13.2323 18.9183 12.2379 19.9127 11.0061 19.9127C9.77425 19.9127 8.77989 18.9183 8.77989 17.6865C8.77989 16.4547 9.77425 15.4603 11.0061 15.4603ZM15.4585 24.3651H6.5537V23.7269C6.5537 22.8364 7.08798 22.0201 7.91909 21.6639C8.86893 21.2484 9.90782 21.0258 11.0061 21.0258C12.1043 21.0258 13.1432 21.2484 14.0931 21.6639C14.9093 22.0201 15.4585 22.8216 15.4585 23.7269V24.3651ZM17.7521 11.0079H14.7839V3.58727H17.7521V11.0079ZM25.7124 22.8809H20.3493C19.7408 22.8809 19.2362 22.3763 19.2362 21.7678C19.2362 21.1593 19.7408 20.6547 20.3493 20.6547H25.7124C26.3209 20.6547 26.8255 21.1593 26.8255 21.7678C26.8255 22.3763 26.3209 22.8809 25.7124 22.8809ZM23.2839 18.4285H20.3493C19.7408 18.4285 19.2362 17.9239 19.2362 17.3154C19.2362 16.707 19.7408 16.2024 20.3493 16.2024H23.2839C23.8923 16.2024 24.3969 16.707 24.3969 17.3154C24.3969 17.9239 23.8923 18.4285 23.2839 18.4285Z" fill="#222836"/>
</svg>
