<svg width="50" height="50" fill="none" xmlns="http://www.w3.org/2000/svg"><path d="M49.26 10.478l.006-.015-27.084-8.334-.005.015a1.013 1.013 0 00-.302-.06H11.458c-.027 0-.05.013-.078.015-.045.003-.084.017-.129.026a1.009 1.009 0 00-.368.154c-.023.016-.053.014-.076.032L.391 10.645l.01.012a1.02 1.02 0 00-.401.801v4.167c0 .576.466 1.042 1.042 1.042h9.375V38.11l-1.778 1.78a1.04 1.04 0 00-.306.736v6.25c0 .576.466 1.042 1.042 1.042h14.583c.576 0 1.042-.466 1.042-1.042v-6.25c0-.277-.11-.541-.305-.736l-1.778-1.779V16.667H37.5v4.166a1.042 1.042 0 00-.834 1.667l2.959 3.945c-.014.07-.042.134-.042.207 0 .671-.262 1.303-.736 1.778a4.567 4.567 0 00-1.347 3.251v.61a3.128 3.128 0 003.125 3.126 3.128 3.128 0 003.125-3.125 1.041 1.041 0 10-2.083 0 1.043 1.043 0 01-2.083 0v-.61c0-.672.262-1.304.736-1.779a4.567 4.567 0 001.347-3.251c0-.073-.028-.138-.042-.207l2.96-3.945a1.041 1.041 0 00-.835-1.667v-4.166h5.208c.576 0 1.042-.466 1.042-1.042v-4.167c0-.468-.314-.85-.74-.98zm-38.843-.061H4.012l6.405-5.124v5.124zm2.083 1.041V4.741l7.255 3.288-7.255 4.933v-1.504zm0 5.088l7.255 3.288-7.255 4.934v-8.222zm0 11.806l7.255 3.289-7.255 4.932v-8.22zm8.333 9.148h-5.99l5.99-4.073V37.5zm0-7.657l-7.254-3.289 7.254-4.933v8.222zm0-18.385v6.578l-7.254-3.288 7.254-4.932v1.642zm0-5.227L16.28 4.167h4.554V6.23zm20.834 14.602h-2.084v-4.166h2.084v4.166zm-18.75-10.416V4.536l19.112 5.88H22.917z" fill="#222836"/></svg>