<svg width="57" height="43" viewBox="0 0 57 43" fill="none" xmlns="http://www.w3.org/2000/svg">
<path d="M54.2212 10.4072C54.2212 10.4072 51.9157 10.4072 51.1472 10.4072C50.8017 10.4072 50.8538 9.89374 50.8538 9.89374V8.35278C50.8538 6.32981 49.2079 4.68391 47.1847 4.68391H22.0834C21.9148 4.68391 21.711 4.34533 21.3451 3.63384C21.2907 3.52807 21.236 3.42179 21.1801 3.31618C19.9007 0.891855 18.2403 0.383057 17.0726 0.383057H10.542C8.89111 0.383057 7.90581 1.34191 6.74512 3.23333C6.66947 3.35652 6.59515 3.48154 6.52118 3.60656C6.14711 4.23754 5.86526 4.68391 5.64785 4.68391H3.73935C1.71621 4.68391 0.0703125 6.32981 0.0703125 8.35278V38.8539C0.0703125 40.6468 1.36323 42.1422 3.0652 42.4597C3.27106 42.532 3.49684 42.5727 3.73935 42.5727H22.6196C23.5939 42.5727 23.1097 41.9437 22.863 41.6152C19.0254 36.4984 19.4313 29.1859 24.0823 24.5348C26.5479 22.0694 29.831 20.7116 33.326 20.7116C36.8216 20.7116 40.1044 22.0693 42.5697 24.5348C44.6717 26.6369 45.9631 29.2765 46.3044 32.1682C46.5939 34.6235 46.1501 37.1473 45.0501 39.3826C44.9521 39.5816 44.731 39.9627 45.0433 40.275L47.1173 42.3491C47.1173 42.3491 47.3401 42.5725 47.5898 42.5725C47.8167 42.5725 48.4977 42.5725 48.4977 42.5725C49.7083 42.5725 50.8725 41.5971 51.0846 40.4053L56.0368 12.5745C56.2491 11.3826 55.432 10.4072 54.2212 10.4072ZM47.6251 10.4072C38.0844 10.4072 9.4625 10.4072 9.4625 10.4072C8.25193 10.4072 7.08772 11.3826 6.87566 12.5745L3.19323 33.2689C3.19323 33.2689 3.00528 33.9614 3.00528 32.6772C3.00528 26.5959 3.00528 8.35262 3.00528 8.35262C3.00528 7.95478 3.34135 7.61888 3.73935 7.61888H5.64785C7.55401 7.61888 8.4516 6.10503 9.04576 5.1035C9.11203 4.99137 9.17881 4.87906 9.24643 4.76826C9.83724 3.80573 10.299 3.31769 10.86 3.31769H17.0726C17.2679 3.31769 17.8624 3.31769 18.5842 4.68559C18.6353 4.78232 18.6853 4.87956 18.735 4.97614C19.2763 6.02855 20.0944 7.61888 22.0834 7.61888H47.1846C47.5826 7.61888 47.9185 7.95478 47.9185 8.35262V9.8201C47.9186 9.82027 47.9643 10.4072 47.6251 10.4072Z" fill="white"/>
</svg>
