<svg width="15" height="16" viewBox="0 0 15 16" fill="none" xmlns="http://www.w3.org/2000/svg">
<path fill-rule="evenodd" clip-rule="evenodd" d="M2.78593 0.52209C2.47489 0.647416 0.364055 3.10375 0.0501982 3.70553C-0.00895979 3.81896 -0.0109541 3.84331 0.0189916 4.08403C0.231339 5.7913 1.32161 7.96985 2.96581 9.97222C3.54043 10.6721 4.55996 11.7366 5.26291 12.3707C7.38905 14.2888 9.52457 15.387 11.3107 15.4807L11.6773 15.5L11.8827 15.3998C12.579 15.0598 14.8029 13.3716 14.9637 13.0608C15.0029 12.9852 15.0005 12.9733 14.929 12.8885C14.5799 12.474 11.6481 10.6022 11.348 10.6022C11.2404 10.6022 11.0082 10.7904 10.4587 11.3231C10.1551 11.6173 9.87624 11.8754 9.83884 11.8965C9.7512 11.9459 9.27489 11.9443 9.03767 11.8937C7.24178 11.5106 5.35304 9.80719 4.22713 7.55513C3.88004 6.86087 3.59202 6.02508 3.63751 5.84405C3.66588 5.7312 3.96824 5.42373 4.4769 4.9905C5.05481 4.49831 5.22044 4.32416 5.19478 4.23564C5.1536 4.0937 4.78636 3.37916 4.47843 2.84193C3.88256 1.8024 3.31166 0.929071 3.03388 0.632091C2.89703 0.485813 2.887 0.48136 2.78593 0.52209ZM7.83653 0.558278C7.81336 0.663269 7.67384 1.66544 7.67384 1.72689C7.67384 1.77623 7.69774 1.78221 7.89496 1.78221C8.66275 1.78221 9.59165 2.00875 10.3575 2.38273C12.3242 3.34315 13.6037 5.27177 13.7063 7.43024C13.7178 7.67014 13.7366 7.8185 13.7556 7.8185C13.8033 7.8185 14.8657 7.67292 14.9413 7.65605C15.0067 7.6414 15.0078 7.63495 14.9905 7.37082C14.8923 5.87502 14.416 4.55802 13.5524 3.39384C13.2584 2.99761 12.4992 2.23909 12.1026 1.94542C10.9396 1.08426 9.60614 0.601529 8.13649 0.509666C7.85718 0.492201 7.8509 0.493198 7.83653 0.558278ZM7.31097 4.26559C7.26753 4.5839 7.22641 4.87068 7.21955 4.90291C7.2075 4.95973 7.22251 4.96152 7.71176 4.96152C8.26011 4.96152 8.3867 4.98355 8.80943 5.15269C9.45022 5.40902 10.0594 6.00591 10.3245 6.63715C10.5004 7.05602 10.5335 7.23705 10.5335 7.78152C10.5335 8.21643 10.5396 8.28496 10.5775 8.27441C10.6017 8.26767 10.8905 8.22522 11.2192 8.18006L11.817 8.09796L11.7999 7.59926C11.7903 7.31837 11.7627 7.01101 11.7368 6.89547C11.5298 5.97368 11.0686 5.20147 10.3829 4.62861C9.63292 4.00207 8.76086 3.68686 7.77734 3.68686H7.38993L7.31097 4.26559Z" fill="white"/>
</svg>
