<svg width="18" height="23" viewBox="0 0 18 23" fill="none" xmlns="http://www.w3.org/2000/svg">
<rect width="18" height="23" fill="#E5E5E5"/>
<rect width="1920" height="2367" transform="translate(-445 -441)" fill="white"/>
<rect x="-13" y="-11" width="44" height="44" rx="22" stroke="#FFC50A" stroke-width="2"/>
<path d="M17 9C17 13.418 9 21 9 21C9 21 1 13.418 1 9C1 6.87827 1.84285 4.84344 3.34315 3.34315C4.84344 1.84285 6.87827 1 9 1C11.1217 1 13.1566 1.84285 14.6569 3.34315C16.1571 4.84344 17 6.87827 17 9V9Z" stroke="#222836" stroke-width="1.5"/>
<path d="M9 10C9.26522 10 9.51957 9.89464 9.70711 9.70711C9.89464 9.51957 10 9.26522 10 9C10 8.73478 9.89464 8.48043 9.70711 8.29289C9.51957 8.10536 9.26522 8 9 8C8.73478 8 8.48043 8.10536 8.29289 8.29289C8.10536 8.48043 8 8.73478 8 9C8 9.26522 8.10536 9.51957 8.29289 9.70711C8.48043 9.89464 8.73478 10 9 10V10Z" fill="black" stroke="#222836" stroke-width="2" stroke-linecap="round" stroke-linejoin="round"/>
</svg>
