<svg width="190" height="47" viewBox="0 0 190 47" fill="none" xmlns="http://www.w3.org/2000/svg">
<g opacity="0.4">
<path d="M1.358 32V22.2H4.606C6.18333 22.2 7.462 22.6527 8.442 23.558C9.43133 24.4633 9.926 25.644 9.926 27.1C9.926 28.556 9.43133 29.7367 8.442 30.642C7.462 31.5473 6.18333 32 4.606 32H1.358ZM2.492 30.964H4.48C5.80533 30.964 6.85067 30.6187 7.616 29.928C8.38133 29.228 8.764 28.2853 8.764 27.1C8.764 25.9147 8.38133 24.9767 7.616 24.286C6.85067 23.586 5.80533 23.236 4.48 23.236H2.492V30.964ZM15.3065 32.168C14.2518 32.168 13.3652 31.8367 12.6465 31.174C11.9278 30.502 11.5685 29.648 11.5685 28.612C11.5685 27.5853 11.8858 26.736 12.5205 26.064C13.1645 25.3827 13.9998 25.042 15.0265 25.042C15.5585 25.042 16.0345 25.154 16.4545 25.378C16.8838 25.5927 17.2198 25.8773 17.4625 26.232C17.7052 26.5867 17.8872 26.9647 18.0085 27.366C18.1392 27.7673 18.2045 28.1733 18.2045 28.584V28.892H12.7025C12.7772 29.592 13.0665 30.1473 13.5705 30.558C14.0838 30.9687 14.7372 31.174 15.5305 31.174C16.3145 31.174 17.0425 30.964 17.7145 30.544V31.524C17.1452 31.9533 16.3425 32.168 15.3065 32.168ZM12.7165 27.996H17.0845C17.0565 27.5013 16.8652 27.0533 16.5105 26.652C16.1652 26.2413 15.6518 26.036 14.9705 26.036C14.3172 26.036 13.7852 26.232 13.3745 26.624C12.9732 27.0067 12.7538 27.464 12.7165 27.996ZM22.3945 32.168C21.8252 32.168 21.2792 32.1027 20.7565 31.972C20.2432 31.832 19.8512 31.664 19.5805 31.468V30.348C19.8512 30.5533 20.2385 30.7447 20.7425 30.922C21.2559 31.09 21.7925 31.174 22.3525 31.174C22.9125 31.174 23.3512 31.0853 23.6685 30.908C23.9859 30.7307 24.1445 30.4787 24.1445 30.152C24.1445 30.04 24.1259 29.942 24.0885 29.858C24.0605 29.774 24.0045 29.704 23.9205 29.648C23.8459 29.5827 23.7665 29.5267 23.6825 29.48C23.6079 29.4333 23.4959 29.3913 23.3465 29.354C23.2065 29.3073 23.0805 29.27 22.9685 29.242C22.8659 29.214 22.7212 29.1767 22.5345 29.13C22.3479 29.0833 22.1939 29.046 22.0725 29.018C21.2699 28.8127 20.6725 28.5653 20.2805 28.276C19.8979 27.9773 19.7065 27.534 19.7065 26.946C19.7065 26.358 19.9445 25.896 20.4205 25.56C20.9059 25.2147 21.5872 25.042 22.4645 25.042C23.4819 25.042 24.3079 25.2427 24.9425 25.644V26.722C24.1959 26.2647 23.3839 26.036 22.5065 26.036C21.3959 26.036 20.8405 26.3487 20.8405 26.974C20.8405 27.338 21.1159 27.618 21.6665 27.814C21.8532 27.8793 22.2499 27.982 22.8565 28.122C23.6219 28.29 24.2145 28.528 24.6345 28.836C25.0639 29.144 25.2785 29.592 25.2785 30.18C25.2785 30.796 25.0079 31.2813 24.4665 31.636C23.9345 31.9907 23.2439 32.168 22.3945 32.168ZM27.3473 32V25.21H28.4533V32H27.3473ZM27.3613 23.46C27.2213 23.3107 27.1513 23.1287 27.1513 22.914C27.1513 22.6993 27.2213 22.522 27.3613 22.382C27.5106 22.2327 27.6926 22.158 27.9073 22.158C28.1219 22.158 28.2993 22.2327 28.4393 22.382C28.5886 22.522 28.6633 22.6993 28.6633 22.914C28.6633 23.1287 28.5886 23.3107 28.4393 23.46C28.2993 23.6 28.1219 23.67 27.9073 23.67C27.6926 23.67 27.5106 23.6 27.3613 23.46ZM36.441 31.538V30.866C35.853 31.65 34.9897 32.042 33.851 32.042C32.8617 32.042 32.0497 31.7013 31.415 31.02C30.7803 30.3387 30.463 29.5127 30.463 28.542C30.463 27.5713 30.7803 26.7453 31.415 26.064C32.0497 25.3827 32.8617 25.042 33.851 25.042C34.9897 25.042 35.853 25.434 36.441 26.218V25.21H37.547V31.524C37.547 32.6067 37.1923 33.4327 36.483 34.002C35.7737 34.5713 34.8917 34.856 33.837 34.856C32.801 34.856 31.9237 34.6507 31.205 34.24V33.176C31.961 33.6333 32.801 33.862 33.725 33.862C34.5277 33.862 35.181 33.6707 35.685 33.288C36.189 32.9147 36.441 32.3313 36.441 31.538ZM36.441 29.62V27.464C36.245 27.0347 35.937 26.6893 35.517 26.428C35.1063 26.1667 34.6443 26.036 34.131 26.036C33.403 26.036 32.7963 26.2787 32.311 26.764C31.835 27.2493 31.597 27.842 31.597 28.542C31.597 29.2607 31.835 29.858 32.311 30.334C32.7963 30.81 33.403 31.048 34.131 31.048C34.6443 31.048 35.1063 30.9173 35.517 30.656C35.937 30.3947 36.245 30.0493 36.441 29.62ZM40.9734 32H39.8534V25.21H40.9734V26.232C41.2441 25.896 41.6081 25.616 42.0654 25.392C42.5321 25.1587 43.0547 25.042 43.6334 25.042C44.4827 25.042 45.1221 25.2893 45.5514 25.784C45.9901 26.2787 46.2094 26.974 46.2094 27.87V32H45.0894V28.108C45.0894 27.7067 45.0287 27.366 44.9074 27.086C44.7954 26.7967 44.6414 26.5867 44.4454 26.456C44.2494 26.3253 44.0534 26.232 43.8574 26.176C43.6707 26.12 43.4654 26.092 43.2414 26.092C42.8027 26.092 42.3641 26.232 41.9254 26.512C41.4867 26.7827 41.1694 27.0953 40.9734 27.45V32ZM52.0897 22.2H53.2097V26.26C53.8351 25.448 54.6937 25.042 55.7857 25.042C56.7751 25.042 57.5871 25.392 58.2217 26.092C58.8564 26.7827 59.1737 27.6227 59.1737 28.612C59.1737 29.592 58.8564 30.432 58.2217 31.132C57.5871 31.8227 56.7751 32.168 55.7857 32.168C54.6751 32.168 53.8164 31.762 53.2097 30.95V32H52.0897V22.2ZM53.2097 27.506V29.704C53.4057 30.124 53.7137 30.474 54.1337 30.754C54.5631 31.034 55.0251 31.174 55.5197 31.174C56.2477 31.174 56.8497 30.9313 57.3257 30.446C57.8017 29.9513 58.0397 29.34 58.0397 28.612C58.0397 27.884 57.8017 27.2727 57.3257 26.778C56.8497 26.2833 56.2477 26.036 55.5197 26.036C55.0064 26.036 54.5397 26.176 54.1197 26.456C53.7091 26.7267 53.4057 27.0767 53.2097 27.506ZM61.3424 34.856C60.8104 34.856 60.4418 34.7907 60.2364 34.66V33.638C60.5071 33.7873 60.8198 33.862 61.1744 33.862C61.5944 33.862 61.9444 33.694 62.2244 33.358C62.5138 33.0313 62.8124 32.4947 63.1204 31.748L60.1104 25.21H61.3424L63.6804 30.446L65.9344 25.21H67.1384L63.8064 32.756C63.4891 33.456 63.1344 33.9787 62.7424 34.324C62.3598 34.6787 61.8931 34.856 61.3424 34.856Z" fill="#FAFAFA"/>
<path fill-rule="evenodd" clip-rule="evenodd" d="M105.687 0.00837538C100.903 0.204666 96.3293 0.993177 91.489 2.45635C90.0008 2.90622 87.768 3.66882 87.7207 3.74334C87.7074 3.76435 87.6603 3.88589 87.616 4.01345C87.5718 4.14102 87.4219 4.57208 87.283 4.97135C85.5818 9.86163 84.5111 14.836 84.1516 19.5206C83.9555 22.0771 83.9495 24.8072 84.1347 27.2576C84.4706 31.7017 85.3229 35.9355 86.8396 40.6938C87.121 41.5764 87.694 43.2043 87.7398 43.2509C87.7864 43.2983 88.989 43.7262 90.0477 44.072C99.1116 47.0329 107.594 47.7332 116.32 46.241C119.655 45.6707 123.47 44.6495 126.876 43.4154L127.274 43.2713L127.415 42.8937C127.627 42.3252 128.187 40.6536 128.435 39.8488C129.934 34.9763 130.748 30.4129 130.967 25.6505C131.011 24.7074 131.011 22.3059 130.968 21.3374C130.738 16.2134 129.785 11.1925 128.034 5.88558C127.687 4.83328 127.308 3.76932 127.265 3.72667C127.219 3.68048 125.799 3.18044 124.789 2.85466C119.737 1.22568 115.269 0.362885 110.276 0.0522791C109.707 0.0168911 106.279 -0.0159125 105.687 0.00837538ZM125.617 19.9182C125.617 24.6907 125.629 24.3948 125.399 25.1461C125.052 26.2786 124.277 27.2079 123.254 27.7196C122.54 28.0763 121.534 28.2563 120.656 28.1846C118.527 28.0107 117.062 26.7249 116.617 24.6399C116.511 24.1407 116.51 23.1548 116.615 22.6635C116.699 22.2744 116.881 21.7338 117.025 21.4446C117.419 20.6571 118.176 19.9102 118.959 19.5364C120.256 18.9171 121.966 18.9374 123.249 19.5873C123.338 19.6326 123.419 19.6697 123.429 19.6697C123.439 19.6697 123.447 18.7525 123.447 17.6314V15.5932L124.532 15.6019L125.617 15.6107V19.9182ZM98.0115 20.3074L97.5432 20.7797L97.6527 20.9288C97.9357 21.3142 98.1934 21.8851 98.332 22.4341C98.7507 24.092 98.2852 25.875 97.1445 26.983L96.8951 27.2252L97.1549 27.4816C97.817 28.1352 98.2391 28.9603 98.4217 29.9581C98.4974 30.372 98.4951 31.2093 98.417 31.6479C98.1197 33.3182 97.0813 34.5647 95.5585 35.0794C95.0209 35.2612 94.607 35.3235 93.941 35.323C93.5292 35.3227 93.2522 35.3056 93.0463 35.2676C92.0744 35.0886 91.2931 34.6975 90.6772 34.0815C89.9176 33.3219 89.4697 32.2775 89.3953 31.0929L89.375 30.7699H90.4735H91.5719V30.9492C91.5719 31.3379 91.7281 31.8903 91.9404 32.2524C92.002 32.3573 92.1641 32.5557 92.3008 32.6932C92.7301 33.1249 93.2281 33.3224 93.8944 33.3249C94.4125 33.3268 94.643 33.2755 95.0675 33.0637C95.3946 32.9006 95.7865 32.5013 95.9692 32.145C96.1953 31.7042 96.2789 31.3381 96.2803 30.7819C96.2828 29.7453 95.7427 28.8186 94.9019 28.4173C94.5985 28.2725 94.3597 28.2241 93.8416 28.2024C92.4534 28.1442 91.5066 27.7641 90.673 26.9305C90.0336 26.2909 89.661 25.5704 89.4622 24.589C89.3702 24.1348 89.3786 23.0872 89.4779 22.629C89.8285 21.012 90.8496 19.8303 92.3184 19.3415C92.8992 19.1482 93.2419 19.0951 93.9078 19.0951C94.5499 19.0951 94.9053 19.1473 95.4369 19.3196L95.7731 19.4286L96.3479 18.8532L96.9226 18.2778L97.7012 19.0564L98.4798 19.835L98.0115 20.3074ZM104.693 19.154C105.158 19.2353 105.548 19.3625 105.969 19.5693C107.003 20.0782 107.775 20.9631 108.143 22.0616C108.664 23.6165 108.374 25.4076 107.408 26.6092C106.578 27.6401 105.344 28.189 103.848 28.1919C102.994 28.1936 102.385 28.061 101.69 27.7221C101.214 27.4898 100.85 27.2243 100.506 26.8586C99.9339 26.2501 99.5672 25.5105 99.3854 24.5978C99.2874 24.1057 99.2813 23.2269 99.3726 22.7512C99.5555 21.7983 99.9692 20.9824 100.583 20.3642C101.287 19.6549 102.195 19.2315 103.285 19.1045C103.601 19.0677 104.35 19.094 104.693 19.154ZM114.288 19.1094C115.162 19.1967 116.155 19.5879 116.673 20.0493L116.824 20.1833L116.079 20.9263L115.333 21.6693L115.157 21.5347C114.943 21.3706 114.647 21.2197 114.383 21.1399C114.111 21.0574 113.441 21.056 113.145 21.1373C112.493 21.3155 112.016 21.7229 111.701 22.3702C111.425 22.9362 111.441 22.7493 111.421 25.634L111.403 28.2019H110.309H109.216L109.206 26.0647C109.195 23.8218 109.218 23.2211 109.333 22.6484C109.595 21.3494 110.326 20.3005 111.403 19.6785C112.219 19.2066 113.242 19.0049 114.288 19.1094ZM93.4273 21.1083C92.4968 21.3038 91.8341 22.006 91.6202 23.0229C91.5583 23.3174 91.558 23.9732 91.6198 24.2667C91.8113 25.1773 92.3525 25.8251 93.1414 26.0878C93.3879 26.1699 93.4545 26.1775 93.9244 26.1775C94.3955 26.1775 94.4605 26.17 94.7102 26.0869C95.4971 25.825 96.0576 25.1468 96.2302 24.2477C96.2996 23.8865 96.2902 23.3226 96.2093 22.9832C96.1217 22.6162 95.8975 22.1609 95.668 21.8843C95.3935 21.5533 94.9691 21.2721 94.5539 21.1459C94.3059 21.0706 93.7026 21.0504 93.4273 21.1083ZM103.484 21.0829C102.542 21.2334 101.888 21.8282 101.591 22.8022C101.509 23.0708 101.5 23.1497 101.499 23.6293C101.497 24.2358 101.538 24.4508 101.743 24.8884C101.985 25.4077 102.301 25.7348 102.788 25.9699C103.116 26.1284 103.424 26.1959 103.825 26.1967C104.235 26.1975 104.583 26.1221 104.925 25.9589C105.79 25.5451 106.318 24.4418 106.186 23.322C106.066 22.3047 105.447 21.4883 104.565 21.1841C104.332 21.104 104.215 21.084 103.931 21.0764C103.74 21.0712 103.538 21.0741 103.484 21.0829ZM120.564 21.1087C119.626 21.3075 118.951 22.0389 118.757 23.066C118.683 23.4597 118.706 24.1173 118.806 24.4683C118.94 24.9345 119.245 25.4341 119.546 25.6781C119.96 26.0138 120.37 26.1652 120.931 26.1894C121.687 26.2219 122.227 26.028 122.703 25.5525C123.186 25.0701 123.423 24.4393 123.421 23.6459C123.42 23.1671 123.352 22.8523 123.164 22.456C122.852 21.797 122.339 21.3406 121.691 21.1455C121.441 21.0704 120.838 21.0507 120.564 21.1087Z" fill="white"/>
<path fill-rule="evenodd" clip-rule="evenodd" d="M177.912 4.59248L176.792 5.176L176.61 6.29526C175.999 10.0707 175.703 13.7677 175.743 17.1439L175.768 19.1971L175.297 19.3807C174.319 19.7628 173.282 20.5851 172.538 21.5676C171.216 23.3148 170.943 25.4193 171.876 26.6845C172.317 27.2838 172.759 27.5069 173.409 27.4596C174.216 27.401 175.295 26.5764 176.157 25.3601L176.593 24.745L176.821 25.4151C176.947 25.7837 177.193 26.381 177.369 26.7426C178.293 28.6462 179.467 29.7432 181.031 30.1649L181.5 30.2913L181.672 30.1303C181.88 29.9361 181.891 29.855 181.708 29.855C181.633 29.855 181.391 29.7879 181.17 29.7057C180.084 29.3025 179.079 27.6086 178.592 25.36C177.701 21.2551 177.797 14.402 178.862 6.06602C178.976 5.1722 179.088 4.33979 179.11 4.21614C179.133 4.09249 179.125 3.99533 179.092 4.00017C179.059 4.00501 178.528 4.27153 177.912 4.59248ZM161.287 9.09642L160.141 9.48915L160.024 10.8031C159.96 11.5257 159.854 12.6966 159.789 13.405L159.67 14.6931L157.683 15.1841C156.009 15.5979 154.094 16.1353 152.92 16.5214L152.644 16.612L152.453 17.4419C152.348 17.8983 152.269 18.3223 152.277 18.384C152.29 18.4786 152.419 18.4482 153.091 18.1921C154.788 17.5457 155.9 17.1675 157.64 16.6452C159.057 16.2201 159.451 16.1248 159.469 16.2025C159.481 16.2569 159.427 17.196 159.348 18.2894C158.878 24.8448 158.76 29.3744 159.004 31.5839C159.129 32.714 159.419 33.2708 160.051 33.5955C160.372 33.7601 160.979 33.7694 161.5 33.6177C162.354 33.3688 163.635 32.5584 164.683 31.6043C165.106 31.2198 165.123 31.1909 165.038 31.0287C164.989 30.9347 164.939 30.8462 164.927 30.8321C164.914 30.8179 164.731 30.9706 164.52 31.1715C163.346 32.2871 162.024 32.8448 161.33 32.517C160.998 32.3599 160.959 32.2779 160.818 31.4299C160.722 30.852 160.701 30.2548 160.703 28.2299C160.705 25.8341 160.748 24.8876 160.98 22.1098C161.117 20.4701 161.623 15.5969 161.66 15.5599C161.714 15.5066 165.074 14.7783 167.155 14.3689C169.178 13.9711 171.677 13.5538 173.024 13.389C173.6 13.3186 173.728 13.2769 174.031 13.0637C174.222 12.9292 174.41 12.7897 174.448 12.7536C174.611 12.5996 170.514 12.9243 167.572 13.2986C166.377 13.4506 162.3 14.0955 161.87 14.2003C161.7 14.2419 161.689 14.3626 162.093 11.875C162.326 10.44 162.537 8.9727 162.537 8.78474C162.537 8.66324 162.587 8.65065 161.287 9.09642ZM154.446 9.72918C152.308 9.97537 149.289 10.7936 146.759 11.8123C142.968 13.3392 140.802 14.7367 139.736 16.345C139.054 17.3739 138.827 18.4966 139.135 19.3088C139.538 20.3672 140.831 21.138 142.857 21.5268C143.157 21.5844 144.733 21.7999 146.358 22.0058C150.291 22.5038 151.338 22.7385 152.632 23.4129C154.071 24.1628 154.876 25.4485 154.727 26.7576C154.575 28.0953 153.503 29.8027 151.945 31.187C150.008 32.9094 147.854 33.8625 146.52 33.5881C145.716 33.4227 144.996 32.9222 144.79 32.3851C144.658 32.0403 144.722 31.6788 145.001 31.1989C145.245 30.78 146.041 30.0678 146.888 29.5105C147.733 28.9548 149.718 27.9626 150.973 27.4681C151.566 27.2345 151.965 27.023 152.357 26.7341C152.66 26.5108 152.891 26.3282 152.871 26.3282C152.751 26.3282 150.424 27.1535 149.529 27.5129C148.346 27.9886 146.548 28.8621 145.67 29.3873C143.866 30.467 142.505 31.8193 142.118 32.9161C141.937 33.4293 141.933 34.2075 142.109 34.5921C142.365 35.1512 143.147 35.695 144.012 35.9167C144.606 36.069 145.753 36.0069 146.599 35.7764C149.217 35.0639 152.622 32.5532 154.722 29.7859C156.334 27.6633 157.127 26.1421 157.342 24.7647C157.667 22.6869 155.784 20.9816 152.322 20.2183C151.004 19.9277 148.447 19.5986 146.875 19.5173C144.277 19.3828 142.306 19.0386 141.368 18.5557C141.059 18.3963 140.671 18.0446 140.552 17.8154C140.39 17.5046 140.424 16.9352 140.628 16.5274C140.85 16.0831 141.618 15.3496 142.398 14.8355C144.354 13.5468 147.815 12.2892 150.821 11.775C153.479 11.3201 154.897 11.5616 154.897 12.4695C154.897 12.7186 154.728 13.0173 154.271 13.5774C153.954 13.9653 153.839 14.1745 153.728 14.564L153.588 15.0583L153.788 14.9161C154.076 14.7122 154.993 13.6951 155.534 12.98C157.095 10.9151 157.043 9.82496 155.375 9.70505C155.131 9.68748 154.713 9.69834 154.446 9.72918ZM181.324 17.8172C181.095 17.885 180.751 18.0005 180.56 18.0737L180.212 18.2069V19V19.7931L180.386 19.7766C180.589 19.7573 182.117 19.215 182.244 19.117C182.301 19.0729 182.331 18.8532 182.331 18.4746C182.331 17.9584 182.315 17.8881 182.176 17.7916C181.984 17.6576 181.849 17.6616 181.324 17.8172ZM187.748 18.41C187.446 18.7164 187.434 18.7212 186.984 18.7212C185.36 18.7212 183.998 19.7969 183.605 21.3908C183.437 22.0706 183.437 23.5565 183.605 24.2881C183.786 25.0748 184.151 25.7987 184.587 26.2321C184.878 26.5226 185.04 26.6208 185.418 26.7371C186.185 26.973 186.763 26.903 187.656 26.4664C188.658 25.9758 189.352 25.0271 189.805 23.5274C189.973 22.9725 189.994 22.7888 189.999 21.8332C190.005 20.8905 189.986 20.6989 189.842 20.2434C189.535 19.2685 189.225 18.8141 188.571 18.3794C188.339 18.225 188.128 18.0988 188.102 18.0988C188.076 18.0988 187.917 18.2389 187.748 18.41ZM181.174 20.0917L180.261 20.4143L180.21 21.6906C180.145 23.3327 180.202 24.8588 180.348 25.3946C180.765 26.9271 181.835 27.9043 183.31 28.099C183.625 28.1406 183.65 28.1331 183.65 27.9968C183.65 27.9156 183.606 27.8496 183.552 27.8496C183.378 27.8496 183.024 27.4972 182.847 27.1484C182.636 26.7347 182.368 25.6297 182.252 24.7031C182.162 23.9727 182.143 20.7071 182.227 20.1033C182.264 19.8361 182.253 19.7597 182.181 19.7638C182.13 19.7667 181.677 19.9142 181.174 20.0917ZM186.433 20.107C186.569 20.176 186.722 20.2815 186.771 20.3413C186.898 20.4934 187.004 20.4774 187.192 20.2772C187.282 20.1821 187.375 20.1043 187.399 20.1043C187.531 20.1043 188.036 21.4214 188.203 22.2007C188.336 22.8213 188.334 24.177 188.2 24.6897C188.07 25.187 187.79 25.7442 187.641 25.8009C186.922 26.0758 185.916 24.9084 185.355 23.1471C184.87 21.6273 184.853 20.6484 185.303 20.1506C185.544 19.8834 185.96 19.8673 186.433 20.107ZM175.835 20.2945C175.858 20.4752 175.892 20.763 175.911 20.9342C175.929 21.1053 176.028 21.7817 176.129 22.4372C176.312 23.6141 176.313 23.6341 176.191 24.0278C175.824 25.2109 175.324 25.8441 174.755 25.8441C173.987 25.8441 173.386 24.5306 173.46 23.0126C173.514 21.8958 173.89 21.0398 174.562 20.5022C174.768 20.3373 175.553 19.9841 175.746 19.9696C175.772 19.9676 175.812 20.1138 175.835 20.2945ZM164.593 21.0313C163.407 21.3628 163.519 21.2466 163.299 22.3676C163.092 23.4198 163.046 24.7409 163.188 25.5489C163.358 26.5126 163.588 27.0199 164.043 27.4344C164.48 27.832 164.62 27.8814 165.171 27.8316C165.808 27.7741 166.294 27.4924 167.081 26.7258C167.462 26.355 167.79 26.0524 167.812 26.0534C167.833 26.0543 167.955 26.2091 168.083 26.3973C168.728 27.3445 170.057 28.2691 170.462 28.053C170.582 27.9891 170.574 27.9615 170.346 27.6456C170.015 27.1871 169.775 26.5735 169.601 25.7425C169.481 25.17 169.457 24.8073 169.458 23.6658C169.46 22.9051 169.492 22.0882 169.529 21.8505C169.572 21.5849 169.573 21.4182 169.533 21.4182C169.42 21.4182 167.991 21.8426 167.941 21.8908C167.915 21.9161 167.828 22.2636 167.748 22.663C167.343 24.6774 166.729 26.2151 166.046 26.9251C165.366 27.6319 164.968 27.071 164.959 25.3946C164.953 24.2754 165.165 22.99 165.698 20.9169C165.725 20.8123 165.72 20.7301 165.687 20.7343C165.654 20.7385 165.162 20.8721 164.593 21.0313Z" fill="white"/>
</g>
</svg>
