<svg width="34" height="34" viewBox="0 0 34 34" fill="none" xmlns="http://www.w3.org/2000/svg">
<path d="M29.75 27.625H26.5625C26.2747 27.625 26.0257 27.5199 25.8154 27.3096C25.6051 27.0993 25.5 26.8503 25.5 26.5625V15.9375C25.5 15.6497 25.6051 15.4007 25.8154 15.1904C26.0257 14.9801 26.2747 14.875 26.5625 14.875H27.625C27.625 11.599 26.7119 9.00911 24.8857 7.10547C23.0596 5.20182 20.431 4.25 17 4.25C13.569 4.25 10.9404 5.20182 9.11426 7.10547C7.28809 9.00911 6.375 11.599 6.375 14.875H7.4375C7.72526 14.875 7.97428 14.9801 8.18457 15.1904C8.39486 15.4007 8.5 15.6497 8.5 15.9375V26.5625C8.5 26.8503 8.39486 27.0993 8.18457 27.3096C7.97428 27.5199 7.72526 27.625 7.4375 27.625H6.375C6.375 28.7982 6.79004 29.7998 7.62012 30.6299C8.4502 31.46 9.45182 31.875 10.625 31.875H12.75C12.75 31.2773 12.9548 30.7738 13.3643 30.3643C13.7738 29.9548 14.2773 29.75 14.875 29.75H17C17.5977 29.75 18.1012 29.9548 18.5107 30.3643C18.9202 30.7738 19.125 31.2718 19.125 31.8584C19.125 32.445 18.9202 32.9486 18.5107 33.3691C18.1012 33.7897 17.5977 34 17 34H10.625C8.85417 34 7.34896 33.3802 6.10938 32.1406C4.86979 30.901 4.25 29.3958 4.25 27.625C3.07682 27.625 2.0752 27.0052 1.24512 25.7656C0.415039 24.526 0 23.0208 0 21.25C0 20.099 0.193685 19.0365 0.581055 18.0625C0.968424 17.0885 1.48307 16.3249 2.125 15.7715V14.875C2.125 12.8607 2.5179 10.9349 3.30371 9.09766C4.08952 7.26042 5.14648 5.67773 6.47461 4.34961C7.80273 3.02148 9.38542 1.96452 11.2227 1.17871C13.0599 0.392904 14.9857 0 17 0C19.0143 0 20.9401 0.392904 22.7773 1.17871C24.6146 1.96452 26.1973 3.02148 27.5254 4.34961C28.8535 5.67773 29.9105 7.26042 30.6963 9.09766C31.4821 10.9349 31.875 12.8607 31.875 14.875V15.7715C32.5169 16.3249 33.0316 17.0885 33.4189 18.0625C33.8063 19.0365 34 20.099 34 21.25C34 23.0208 33.585 24.526 32.7549 25.7656C31.9248 27.0052 30.9232 27.625 29.75 27.625Z" fill="#222836"/>
</svg>
