<svg width="57" height="56" viewBox="0 0 57 56" fill="none" xmlns="http://www.w3.org/2000/svg">
<path d="M28.0703 14C31.4531 14 34.1953 11.2577 34.1953 7.875C34.1953 4.49226 31.4531 1.75 28.0703 1.75C24.6876 1.75 21.9453 4.49226 21.9453 7.875C21.9453 11.2577 24.6876 14 28.0703 14Z" fill="white"/>
<path d="M37.6953 29.75V23.625C37.6953 18.3094 33.3859 14 28.0703 14C22.7547 14 18.4453 18.3094 18.4453 23.625V29.75C18.4453 31.6829 20.0124 33.25 21.9453 33.25H22.8203V51.625C22.8203 53.0749 23.9954 54.25 25.4453 54.25C26.8952 54.25 28.0703 53.0749 28.0703 51.625C28.0703 53.0749 29.2454 54.25 30.6953 54.25C32.1452 54.25 33.3203 53.0749 33.3203 51.625V33.25H34.1953C36.1282 33.25 37.6953 31.6829 37.6953 29.75Z" fill="white"/>
<path d="M5.32031 44.6249C3.87306 44.6249 2.69531 45.8027 2.69531 47.2499V50.75C2.69531 52.1972 3.87306 53.375 5.32031 53.375H13.1953C14.6426 53.375 15.8203 52.1972 15.8203 50.75V45.8622L21.0703 40.6122V38.1377L14.5831 44.6249H5.32031ZM4.44531 46.3749H6.19531V48.1249H4.44531V46.3749ZM14.0703 51.625H4.44531V49.8749H14.0703V51.625ZM14.0703 48.1249H7.94531V46.3749H14.0703V48.1249Z" fill="white"/>
<path d="M36.6991 16.2339L41.5571 11.375H50.8198C52.2671 11.375 53.4448 10.1973 53.4448 8.75V5.25C53.4448 3.80275 52.2671 2.625 50.8198 2.625H42.9448C41.4976 2.625 40.3198 3.80275 40.3198 5.25V10.1378L35.4609 14.9966C35.9046 15.3764 36.3184 15.7903 36.6991 16.2339ZM51.6948 9.625H49.9448V7.875H51.6948V9.625ZM42.0698 4.375H51.6948V6.125H42.0698V4.375ZM42.0698 7.875H48.1948V9.625H42.0698V7.875Z" fill="white"/>
<path d="M53.4453 48.125V33.25H51.6953V48.125H49.9453V35H48.1953V48.125H46.4453V40.25H44.6953V48.125H42.9453V37.625H41.1953V48.125H39.4453V39.375H37.6953V48.125H35.9453V49.875H55.1953V48.125H53.4453Z" fill="white"/>
<path d="M53.4453 51.625H55.1953V53.375H53.4453V51.625Z" fill="white"/>
<path d="M35.9453 51.625H51.6953V53.375H35.9453V51.625Z" fill="white"/>
<path d="M10.5703 18.3749C12.8269 18.3749 14.8596 17.415 16.2972 15.889L13.4587 13.7601C12.6861 14.4453 11.6816 14.8749 10.5703 14.8749C8.15794 14.8749 6.19531 12.9123 6.19531 10.4999C6.19531 8.38764 7.70119 6.62014 9.69531 6.21326V2.67651C5.76394 3.11401 2.69531 6.45389 2.69531 10.4999C2.69531 14.8416 6.22856 18.3749 10.5703 18.3749V18.3749Z" fill="white"/>
<path d="M14.9453 10.4999C14.9453 11.1684 14.7826 11.7958 14.5131 12.3628L17.3481 14.489C18.0402 13.3174 18.4453 11.9568 18.4453 10.4999C18.4453 6.45389 15.3767 3.11401 11.4453 2.67651V6.21326C13.4394 6.62014 14.9453 8.38764 14.9453 10.4999V10.4999Z" fill="white"/>
<path d="M10.5703 13.125C12.0201 13.125 13.1953 11.9497 13.1953 10.5C13.1953 9.05025 12.0201 7.875 10.5703 7.875C9.12057 7.875 7.94531 9.05025 7.94531 10.5C7.94531 11.9497 9.12057 13.125 10.5703 13.125Z" fill="white"/>
</svg>
