<svg width="180" height="64" viewBox="0 0 180 64" fill="none" xmlns="http://www.w3.org/2000/svg">
<path d="M1.69221 37.5581V22.1744H8.41709C10.0727 22.1744 11.3766 22.5993 12.329 23.449C13.2959 24.2988 13.7794 25.4196 13.7794 26.8115C13.7794 28.1887 13.2959 29.3095 12.329 30.1739C11.3766 31.0383 10.0727 31.4705 8.41709 31.4705H4.85686V37.5581H1.69221ZM4.85686 28.7674H8.19733C8.95919 28.7674 9.55256 28.6062 9.97744 28.2839C10.4023 27.9469 10.6148 27.4708 10.6148 26.8554C10.6148 26.2401 10.4023 25.7712 9.97744 25.4489C9.55256 25.1119 8.95919 24.9435 8.19733 24.9435H4.85686V28.7674ZM11.2899 37.5581L17.8829 22.0865H20.9157L27.5088 37.5581H24.1463L22.6299 33.9979H16.1248L14.6084 37.5581H11.2899ZM17.1138 31.3826H21.619L19.3774 26.0423L17.1138 31.3826ZM27.7109 37.5581V22.1744H38.8751V25.0094H30.8756V27.4708H34.3479C36.1353 27.4708 37.5492 27.9396 38.5894 28.8773C39.6443 29.815 40.1717 31.031 40.1717 32.5254C40.1717 34.0198 39.6443 35.2359 38.5894 36.1736C37.5492 37.0966 36.1353 37.5581 34.3479 37.5581H27.7109ZM30.8756 34.7671H34.1061C35.0292 34.7671 35.7397 34.5693 36.2379 34.1737C36.736 33.7781 36.9851 33.2067 36.9851 32.4595C36.9851 31.7123 36.7287 31.1336 36.2159 30.7233C35.7178 30.3131 35.0145 30.108 34.1061 30.108H30.8756V34.7671ZM44.6889 33.4704C45.5972 34.4228 46.7327 34.8989 48.0952 34.8989C49.4578 34.8989 50.5859 34.4228 51.4797 33.4704C52.388 32.5181 52.8422 31.3167 52.8422 29.8662C52.8422 28.4158 52.388 27.2144 51.4797 26.2621C50.5859 25.3097 49.4578 24.8336 48.0952 24.8336C46.7327 24.8336 45.5972 25.3097 44.6889 26.2621C43.7951 27.2144 43.3483 28.4158 43.3483 29.8662C43.3483 31.3167 43.7951 32.5181 44.6889 33.4704ZM53.7872 35.5582C52.2782 37.0966 50.3808 37.8658 48.0952 37.8658C45.8097 37.8658 43.905 37.0966 42.3813 35.5582C40.8722 34.0052 40.1177 32.1079 40.1177 29.8662C40.1177 27.6246 40.8722 25.7346 42.3813 24.1962C43.8904 22.6432 45.795 21.8667 48.0952 21.8667C50.3955 21.8667 52.3001 22.6432 53.8092 24.1962C55.3183 25.7346 56.0728 27.6246 56.0728 29.8662C56.0728 32.1079 55.3109 34.0052 53.7872 35.5582ZM54.9287 22.1744H67.8291V25.0094H62.9502V37.5581H59.7856V25.0094H54.9287V22.1744ZM64.8296 37.5581L71.4226 22.0865H74.4554L81.0485 37.5581H77.686L76.1696 33.9979H69.6645L68.1481 37.5581H64.8296ZM70.6535 31.3826H75.1587L72.9171 26.0423L70.6535 31.3826ZM81.2506 37.5581V22.1744H92.5467V25.0094H84.4153V27.9762H90.9643V30.7673H84.4153V34.7231H92.7884V37.5581H81.2506ZM93.4766 37.5581V22.1744H96.6193L101.081 28.5476L105.542 22.1744H108.663V37.5581H105.542V27.0312L102.004 31.976H100.245L96.6413 27.0312V37.5581H93.4766Z" fill="white"/>
<path d="M129.768 38.5351V34.9148L134.938 30.2363C136.16 29.1038 136.999 28.2034 137.455 27.535C137.911 26.8481 138.139 26.1519 138.139 25.4464C138.139 24.778 137.893 24.2489 137.4 23.859C136.908 23.4506 136.251 23.2463 135.431 23.2463C133.734 23.2463 132.066 23.9333 130.424 25.3071V20.2944C131.938 19.1991 133.78 18.6514 135.95 18.6514C137.847 18.6514 139.507 19.2176 140.929 20.3501C142.352 21.4826 143.063 22.9771 143.063 24.8337C143.063 26.2261 142.762 27.4514 142.16 28.5097C141.577 29.5494 140.528 30.7654 139.014 32.1578L136.689 34.2743H143.665V38.5351H129.768Z" fill="white"/>
<path d="M152.675 38.5351V33.9123H143.456V30.4034L152.593 19.0412H157.463V30.0135H160.116V33.9123H157.463V38.5351H152.675ZM148.654 30.0135H152.675V25.1122L148.654 30.0135Z" fill="white"/>
<path d="M143.372 1.90674V9.23232H145.465V1.90674H143.372Z" fill="white"/>
<path d="M117.209 31.2095L124.535 31.2095L124.535 29.1164L117.209 29.1164L117.209 31.2095Z" fill="white"/>
<path d="M164.303 31.2095L171.628 31.2095L171.628 29.1164L164.303 29.1164L164.303 31.2095Z" fill="white"/>
<path fill-rule="evenodd" clip-rule="evenodd" d="M144.419 54.915C130.171 54.915 118.62 43.3644 118.62 29.1162C118.62 14.8679 130.171 3.31738 144.419 3.31738C158.667 3.31738 170.218 14.8679 170.218 29.1162C170.218 38.0897 165.636 45.9932 158.685 50.6152L159.775 52.8387C167.539 47.8028 172.675 39.0592 172.675 29.1162C172.675 13.5109 160.024 0.860352 144.419 0.860352C128.814 0.860352 116.163 13.5109 116.163 29.1162C116.163 44.7214 128.814 57.372 144.419 57.372V54.915Z" fill="#FFC50A"/>
<path d="M164.049 55.0132L151.535 54.3678L157.635 44.2104L160.471 48.9874L161.726 51.1004L164.049 55.0132Z" fill="#FFC50A"/>
</svg>
