<svg width="34" height="34" viewBox="0 0 34 34" fill="none" xmlns="http://www.w3.org/2000/svg">
<path d="M32.0114 28.633L21.0547 17.6758C20.952 17.5727 20.8423 17.4814 20.7293 17.3958L22.6699 15.3524C22.7691 15.2525 22.863 15.1474 22.9494 15.0393C25.5257 16.0112 28.5487 15.4648 30.6195 13.3943C32.1299 11.8834 32.8916 9.79414 32.7073 7.66188C32.6873 7.42059 32.5275 7.21197 32.3002 7.12961C32.0723 7.0464 31.8171 7.10314 31.6457 7.27393L28.1341 10.7853L24.5788 9.88906L23.5705 6.22153L27.0812 2.71061C27.2535 2.5389 27.3098 2.28343 27.2268 2.05589C27.1442 1.82773 26.9356 1.66922 26.6936 1.64798C24.5616 1.4642 22.4721 2.22548 20.9612 3.73641C18.8921 5.80543 18.3444 8.82685 19.3152 11.4021C19.2096 11.4914 19.1045 11.5863 19.0015 11.6879L16.1452 14.431L10.9002 9.18649C10.8348 9.12079 10.7649 9.06299 10.6929 9.00872C10.7544 8.90074 10.8143 8.78958 10.8702 8.67419C11.9779 8.8874 14.003 6.7303 15.7229 5.01104L10.7124 0C8.47186 2.24087 6.83581 3.74473 7.04817 4.85247C6.53594 5.10272 6.07933 5.40873 5.75483 5.73365L5.04902 6.43925C4.59078 6.89813 4.31441 7.46879 4.21575 8.06345C4.14729 8.14164 4.07764 8.224 4.0084 8.31208L3.74537 8.64265C3.73803 8.65076 3.71538 8.6833 3.7091 8.69163L3.4707 9.02537C3.32158 9.22432 3.19122 9.44042 3.06518 9.64896C3.01867 9.72638 2.97132 9.80395 2.92297 9.88129C2.91528 9.89463 2.90773 9.90776 2.90088 9.92096L2.79495 10.1205C2.66693 10.3606 2.53404 10.6092 2.42034 10.8827L2.40199 10.9262C2.2679 11.2447 2.12894 11.5745 2.03197 11.9241L1.98504 12.0753C1.94665 12.1997 1.90762 12.3237 1.87177 12.472L1.77438 12.9542C1.70176 13.2558 1.67734 13.5533 1.6561 13.8167L1.64191 13.9898C1.60606 14.263 1.6165 14.5206 1.62624 14.7479C1.62956 14.8241 1.63252 14.8988 1.63478 14.9995C1.63732 15.0414 1.63775 15.0823 1.63902 15.1226C1.64149 15.2241 1.64424 15.3395 1.66386 15.4608L1.72498 15.8521C1.7381 15.9278 1.74918 16.0013 1.75963 16.0717C1.78299 16.2306 1.80698 16.395 1.85434 16.551L2.11066 17.4404C2.18971 17.7107 2.44646 17.8897 2.72741 17.8701C2.87611 17.8597 3.00978 17.7954 3.10929 17.6957C3.19814 17.6068 3.25968 17.49 3.27845 17.3583L3.41135 16.4541C3.42116 16.3823 3.452 16.2772 3.4839 16.166C3.50662 16.0889 3.52871 16.0102 3.54579 15.943L3.64029 15.6056C3.65179 15.5599 3.67409 15.5154 3.69371 15.4698C3.71249 15.4274 3.73126 15.3838 3.74798 15.3408C3.77967 15.2691 3.80952 15.1974 3.83888 15.1238C3.89711 14.9794 3.95215 14.8436 4.03621 14.7103C4.07277 14.6488 4.10671 14.5877 4.14136 14.5253C4.22895 14.3685 4.31215 14.2204 4.41103 14.0977C4.41724 14.0904 4.42288 14.0823 4.42938 14.0737L4.65232 13.7663C4.69798 13.7085 4.74929 13.6538 4.79919 13.5988C4.83461 13.56 4.87011 13.5209 4.91493 13.4696C5.04655 13.3113 5.20111 13.1733 5.35023 13.0374L5.43012 12.9657C5.54064 12.8631 5.66852 12.7665 5.80303 12.6645C5.85808 12.6233 5.91193 12.5824 5.96486 12.5422C6.03282 12.4982 6.0986 12.4542 6.16338 12.4106C6.28477 12.3286 6.38986 12.2577 6.51131 12.1945L6.77561 12.0441L7.04302 11.913C7.13625 11.8648 7.22806 11.8277 7.31268 11.7935C7.36293 11.7726 7.41262 11.7524 7.4587 11.7324C7.50563 11.7162 7.55087 11.6986 7.59364 11.6828C7.65094 11.6619 7.70042 11.6418 7.7676 11.6243L7.83973 11.6081C7.91835 11.7353 8.01052 11.8563 8.12111 11.9668L13.3094 17.1553L2.2336 27.7936C2.22923 27.7978 2.22507 27.8024 2.22104 27.8062C0.8428 29.1844 0.618375 31.203 1.99683 32.5817C3.37528 33.9599 5.26554 33.6065 6.64343 32.2288C6.6495 32.2229 6.65472 32.2175 6.66008 32.2112L16.4309 21.9228C16.4882 21.9903 16.545 22.0583 16.6086 22.1221L27.5646 33.0789C28.7923 34.307 30.7837 34.307 32.0114 33.0789C33.2387 31.8517 33.2387 29.8602 32.0114 28.633ZM5.21353 31.0924C4.70603 31.6005 3.88285 31.6005 3.37493 31.0924C2.8675 30.5848 2.8675 29.7621 3.37493 29.2545C3.88236 28.7472 4.7056 28.7468 5.21353 29.2545C5.72053 29.7622 5.72053 30.5848 5.21353 31.0924Z" fill="#222836"/>
</svg>
