<svg width="61" height="61" viewBox="0 0 61 61" fill="none" xmlns="http://www.w3.org/2000/svg">
<g clip-path="url(#clip0_1140_2844)">
<path d="M44.2758 44.4713C47.4678 44.4713 49.6998 42.0824 49.6998 38.6483C49.6998 35.2142 47.4678 32.8999 44.2758 32.8999H38.1498C37.9013 32.8999 37.6998 33.1158 37.6998 33.382V41.6842H35.7498C35.5013 41.6842 35.2998 41.9001 35.2998 42.1664V43.9892C35.2998 44.2554 35.5013 44.4713 35.7498 44.4713H37.6998V45.757H35.7498C35.5013 45.757 35.2998 45.9729 35.2998 46.2392V47.8463C35.2998 48.1126 35.5013 48.3285 35.7498 48.3285H37.6998V50.4178C37.6998 50.684 37.9013 50.8999 38.1498 50.8999H40.3458C40.5943 50.8999 40.7958 50.684 40.7958 50.4178V48.3285H46.8498C47.0983 48.3285 47.2998 48.1126 47.2998 47.8463V46.2392C47.2998 45.9729 47.0983 45.757 46.8498 45.757H40.7958V44.4713H44.2758ZM40.7958 35.6621H43.7478C45.4998 35.6621 46.5558 36.8317 46.5558 38.6483C46.5558 40.4898 45.4998 41.6842 43.6998 41.6842H40.7958V35.6621Z" fill="#222836"/>
<g clip-path="url(#clip1_1140_2844)">
<path fill-rule="evenodd" clip-rule="evenodd" d="M41.75 56.75C45.7282 56.75 49.5436 55.1696 52.3566 52.3566C55.1696 49.5436 56.75 45.7282 56.75 41.75C56.75 37.7718 55.1696 33.9564 52.3566 31.1434C49.5436 28.3304 45.7282 26.75 41.75 26.75C37.7718 26.75 33.9564 28.3304 31.1434 31.1434C28.3304 33.9564 26.75 37.7718 26.75 41.75C26.75 45.7282 28.3304 49.5436 31.1434 52.3566C33.9564 55.1696 37.7718 56.75 41.75 56.75V56.75ZM60.5 41.75C60.5 46.7228 58.5246 51.4919 55.0083 55.0083C51.4919 58.5246 46.7228 60.5 41.75 60.5C36.7772 60.5 32.0081 58.5246 28.4917 55.0083C24.9754 51.4919 23 46.7228 23 41.75C23 36.7772 24.9754 32.0081 28.4917 28.4917C32.0081 24.9754 36.7772 23 41.75 23C46.7228 23 51.4919 24.9754 55.0083 28.4917C58.5246 32.0081 60.5 36.7772 60.5 41.75V41.75Z" fill="#FFC50A"/>
<path d="M0.500094 0.500211C0.498952 13.0002 0.499842 25.5002 0.499842 38.0001C6.85359 38.0001 13.2073 38.0001 19.5611 38.0001C19.7786 36.7101 20.1048 35.4576 20.5286 34.2501H11.7498L4.1001 34.1001L4.24984 26.7501V11.7501V4.25013H11.7498H49.2498L56.9001 4.10005L56.7498 11.7501V24.9801C58.1748 26.2551 59.4386 27.7101 60.4998 29.3076C60.4998 19.7052 60.4998 10.1027 60.4998 0.500211C40.4999 0.499604 20.5 0.499604 0.500094 0.500211Z" fill="#FFC50A"/>
<path fill-rule="evenodd" clip-rule="evenodd" d="M0.500252 0.500211C0.50005 2.71093 0.500119 4.92164 0.500188 7.13235L0.500252 11.3C0.980249 11.78 3.20008 11.8001 4.25 11.7501C6.23912 11.7501 8.14678 10.96 9.5533 9.55343C10.9598 8.14691 11.75 6.23925 11.75 4.25013C11.7824 3.20004 11.6178 0.979878 10.7003 0.499954L0.500252 0.500211ZM49.7 0.499942C49.22 0.979857 49.2 3.20003 49.25 4.25013C49.25 6.23925 50.0402 8.14691 51.4467 9.55343C52.8532 10.96 54.7609 11.7501 56.75 11.7501C57.8 12.0001 60.02 12.0338 60.5 12.0338V0.500211L49.7 0.499942ZM0.5 38.0001L0.50005 26.7501C0.980089 26.6302 3.20003 26.7002 4.25 26.7501C6.23912 26.7501 8.14678 27.5403 9.5533 28.9468C10.9598 30.3533 11.75 32.261 11.75 34.2501C11.7999 35.2002 11.7798 37.2802 11.3 38.0001H0.5Z" fill="#222836"/>
<path d="M37.9925 19.5612L38 19.2499C37.9992 17.9584 37.665 16.689 37.0295 15.5645C36.3941 14.4401 35.4791 13.4988 34.3731 12.8319C33.2672 12.1649 32.0077 11.7948 30.7167 11.7575C29.4257 11.7202 28.1469 12.0169 27.0043 12.6189C25.8616 13.2209 24.8938 14.1077 24.1945 15.1936C23.4952 16.2794 23.0881 17.5274 23.0128 18.8167C22.9374 20.1061 23.1963 21.393 23.7643 22.5529C24.3323 23.7129 25.1903 24.7064 26.255 25.4374C29.4941 22.3522 33.5816 20.3058 37.9925 19.5612Z" fill="#222836"/>
</g>
</g>
<defs>
<clipPath id="clip0_1140_2844">
<rect width="60" height="60" fill="white" transform="translate(0.5 0.5)"/>
</clipPath>
<clipPath id="clip1_1140_2844">
<rect width="60" height="60" fill="white" transform="translate(0.5 0.5)"/>
</clipPath>
</defs>
</svg>
