<svg width="32" height="26" viewBox="0 0 32 26" fill="none" xmlns="http://www.w3.org/2000/svg">
<path d="M30.168 22.9167H1.83464C1.05547 22.9167 0.417969 23.5542 0.417969 24.3333C0.417969 25.1125 1.05547 25.75 1.83464 25.75H30.168C30.9471 25.75 31.5846 25.1125 31.5846 24.3333C31.5846 23.5542 30.9471 22.9167 30.168 22.9167ZM4.66797 21.5H27.3346C28.893 21.5 30.1538 20.225 30.1538 18.6667L30.168 3.08333C30.168 1.525 28.893 0.25 27.3346 0.25H4.66797C3.10964 0.25 1.83464 1.525 1.83464 3.08333V18.6667C1.83464 20.225 3.10964 21.5 4.66797 21.5ZM11.1705 7.40417C11.5786 6.79617 12.1164 6.28621 12.7453 5.91099C13.3741 5.53576 14.0783 5.30461 14.8072 5.23416C15.536 5.16371 16.2715 5.25572 16.9605 5.50356C17.6496 5.75141 18.2751 6.14892 18.7921 6.6675C20.4638 8.33917 20.6905 10.9175 19.458 12.8442L21.668 15.04C22.0788 15.4508 22.0788 16.1308 21.668 16.5417C21.2571 16.9525 20.5771 16.9525 20.1663 16.5417L17.9705 14.3458C15.7463 15.7625 12.6438 15.2525 11.0713 12.7733C10.0371 11.1583 10.0938 8.99083 11.1705 7.40417Z" fill="#222836"/>
</svg>
