<svg width="57" height="56" viewBox="0 0 57 56" fill="none" xmlns="http://www.w3.org/2000/svg">
<g clip-path="url(#clip0_664_25046)">
<path d="M40.3145 24.1238C41.799 23.8063 43.1683 22.5792 43.3914 19.8578C43.5753 17.6304 43.004 16.483 42.1606 15.8982C44.502 6.35488 38.0442 4.48666 38.0442 4.48666C38.0442 4.48666 33.2179 -3.70089 23.8021 2.04474C22.6044 2.77535 20.7423 4.17529 19.6329 5.62059C17.8517 7.51578 16.6393 10.5964 16.4493 15.5857C15.2995 16.0245 14.396 17.1351 14.6203 19.8566C14.8557 22.7018 16.3402 23.913 17.902 24.1606C20.0105 29.2957 24.1735 33.5274 29.1003 33.5274C34.038 33.5274 38.2097 29.2761 40.3145 24.1238ZM29.1003 31.1333C23.4037 31.1333 18.8165 23.3981 18.8165 16.9929C18.8165 16.1152 18.8447 15.3013 18.8986 14.5461C27.2308 14.9102 32.1588 11.5697 34.841 8.67177C37.3847 11.2069 38.7061 14.4088 39.3816 16.7858C39.3816 16.8544 39.3828 16.9218 39.3828 16.9917C39.384 23.3981 34.7981 31.1333 29.1003 31.1333Z" fill="white"/>
<path d="M25.8362 40.8177L26.4957 38.0877C26.5717 37.7727 26.7348 37.503 26.9554 37.2958C26.888 37.248 26.8218 37.1978 26.7568 37.1451L20.8653 32.2673L17.2797 33.1058C11.208 34.534 6.92969 39.6618 6.92969 45.5435V53.2664C6.92969 54.7865 8.28182 55.9989 9.89996 55.9989H25.0774L27.3918 42.8061C26.3523 42.7926 25.591 41.8328 25.8362 40.8177Z" fill="white"/>
<path d="M40.7018 33.1058L37.1651 32.2673L31.2798 37.1451C31.2148 37.1978 31.151 37.248 31.0836 37.2958C31.3055 37.503 31.4685 37.7727 31.5458 38.0877L32.2041 40.8177C32.4505 41.8315 31.6892 42.7926 30.6484 42.8073L32.9629 56.0001H48.1403C49.7585 56.0001 50.9892 54.7889 50.9892 53.2676V45.5447C50.9917 39.6618 46.7735 34.534 40.7018 33.1058Z" fill="white"/>
</g>
<defs>
<clipPath id="clip0_664_25046">
<rect width="56" height="56" fill="white" transform="translate(0.960938)"/>
</clipPath>
</defs>
</svg>
