<svg width="26" height="26" viewBox="0 0 26 26" fill="none" xmlns="http://www.w3.org/2000/svg">
<path d="M1 0C0.449 0 0 0.449 0 1V17C0 17.551 0.449 18 1 18H17C17.551 18 18 17.551 18 17V1C18 0.449 17.551 0 17 0H1ZM2 2H16V14H2V2ZM19 2.906V4.937L20.813 5.25L19 15.75V17C19 18.104 18.103 19 17 19H6.406L19.094 21.188C19.3551 21.2333 19.6235 21.1731 19.8402 21.0207C20.057 20.8683 20.2043 20.636 20.25 20.375L22.938 4.594C22.9607 4.46464 22.9577 4.33206 22.9291 4.20387C22.9005 4.07567 22.8469 3.95437 22.7714 3.84691C22.6959 3.73944 22.6 3.64792 22.489 3.57759C22.3781 3.50725 22.2544 3.45948 22.125 3.437L19 2.907V2.906ZM23.406 7.907L23.063 9.875L23.781 10.031L21.031 21.719L20.625 21.625C20.402 21.8448 20.1294 22.0077 19.8302 22.1001C19.5311 22.1925 19.2141 22.2117 18.906 22.156L5.063 19.781L4.78 20.97C4.72108 21.2308 4.76657 21.5042 4.90674 21.7319C5.04692 21.9595 5.27063 22.1232 5.53 22.188L21.093 25.845C21.3538 25.9039 21.6272 25.8584 21.8549 25.7183C22.0825 25.5781 22.2462 25.3544 22.311 25.095L25.938 9.53C26.065 8.994 25.758 8.439 25.22 8.311L23.407 7.905L23.406 7.907Z" fill="#222836"/>
</svg>
