<svg width="12" height="22" viewBox="0 0 12 22" fill="none" xmlns="http://www.w3.org/2000/svg">
<path d="M6 21C4.44908 21.0376 2.94653 20.4587 1.82179 19.3902C0.697047 18.3217 0.0419018 16.8508 0 15.3V5.12999C0.028834 4.0089 0.500645 2.94489 1.31216 2.17085C2.12368 1.39682 3.20879 0.975818 4.33 0.999993C5.45292 0.973132 6.54061 1.39294 7.3543 2.16726C8.16799 2.94158 8.64118 4.00713 8.67 5.12999V15.31C8.62841 15.9886 8.32954 16.6257 7.83432 17.0915C7.33911 17.5573 6.68485 17.8167 6.005 17.8167C5.32515 17.8167 4.6709 17.5573 4.17568 17.0915C3.68047 16.6257 3.38159 15.9886 3.34 15.31V5.91999C3.34 5.65478 3.44536 5.40042 3.63289 5.21289C3.82043 5.02535 4.07478 4.91999 4.34 4.91999C4.60522 4.91999 4.85957 5.02535 5.04711 5.21289C5.23464 5.40042 5.34 5.65478 5.34 5.91999V15.31C5.35994 15.4723 5.43857 15.6217 5.56106 15.7301C5.68356 15.8385 5.84145 15.8983 6.005 15.8983C6.16855 15.8983 6.32644 15.8385 6.44894 15.7301C6.57143 15.6217 6.65006 15.4723 6.67 15.31V5.12999C6.63891 4.5384 6.37577 3.98294 5.93768 3.58417C5.49958 3.18539 4.9219 2.97548 4.33 2.99999C3.73979 2.97817 3.16467 3.1893 2.72876 3.58779C2.29285 3.98629 2.0311 4.5402 2 5.12999V15.3C2.04163 16.3204 2.48597 17.2828 3.23569 17.9763C3.98541 18.6698 4.97942 19.0379 6 19C7.02058 19.0379 8.01459 18.6698 8.76431 17.9763C9.51403 17.2828 9.95837 16.3204 10 15.3V5.12999C10 4.86478 10.1054 4.61042 10.2929 4.42289C10.4804 4.23535 10.7348 4.12999 11 4.12999C11.2652 4.12999 11.5196 4.23535 11.7071 4.42289C11.8946 4.61042 12 4.86478 12 5.12999V15.3C11.9581 16.8508 11.303 18.3217 10.1782 19.3902C9.05347 20.4587 7.55092 21.0376 6 21Z" fill="white"/>
</svg>
