<svg width="11" height="17" viewBox="0 0 11 17" fill="none" xmlns="http://www.w3.org/2000/svg">
<path d="M5.37793 16.8333C4.0855 16.8647 2.83337 16.3823 1.89609 15.4918C0.958802 14.6014 0.412848 13.3757 0.37793 12.0833V3.60833C0.401958 2.67408 0.795134 1.78741 1.4714 1.14238C2.14766 0.497352 3.05193 0.146515 3.98626 0.166661C4.92203 0.144277 5.82843 0.494116 6.50651 1.13938C7.18459 1.78465 7.57891 2.67261 7.60293 3.60833V12.0917C7.56827 12.6571 7.31921 13.1881 6.90653 13.5763C6.49385 13.9644 5.94864 14.1806 5.3821 14.1806C4.81555 14.1806 4.27034 13.9644 3.85766 13.5763C3.44498 13.1881 3.19592 12.6571 3.16126 12.0917V4.26666C3.16126 4.04565 3.24906 3.83369 3.40534 3.67741C3.56162 3.52112 3.77358 3.43333 3.9946 3.43333C4.21561 3.43333 4.42757 3.52112 4.58385 3.67741C4.74013 3.83369 4.82793 4.04565 4.82793 4.26666V12.0917C4.84455 12.2269 4.91007 12.3515 5.01215 12.4418C5.11423 12.5321 5.24581 12.5819 5.3821 12.5819C5.51838 12.5819 5.64997 12.5321 5.75204 12.4418C5.85412 12.3515 5.91964 12.2269 5.93626 12.0917V3.60833C5.91036 3.11534 5.69107 2.65245 5.32599 2.32014C4.96092 1.98783 4.47951 1.8129 3.98626 1.83333C3.49442 1.81515 3.01516 1.99108 2.6519 2.32316C2.28863 2.65524 2.07051 3.11684 2.0446 3.60833V12.0833C2.07929 12.9337 2.44957 13.7356 3.07434 14.3136C3.69911 14.8915 4.52744 15.1982 5.37793 15.1667C6.22841 15.1982 7.05675 14.8915 7.68152 14.3136C8.30629 13.7356 8.67657 12.9337 8.71126 12.0833V3.60833C8.71126 3.38731 8.79906 3.17535 8.95534 3.01907C9.11162 2.86279 9.32358 2.77499 9.5446 2.77499C9.76561 2.77499 9.97757 2.86279 10.1339 3.01907C10.2901 3.17535 10.3779 3.38731 10.3779 3.60833V12.0833C10.343 13.3757 9.79706 14.6014 8.85977 15.4918C7.92248 16.3823 6.67036 16.8647 5.37793 16.8333Z" fill="#222836"/>
</svg>
