<svg width="43" height="56" viewBox="0 0 43 56" fill="none" xmlns="http://www.w3.org/2000/svg">
<path d="M21.9617 0C8.34092 0 0.960938 5.59881 0.960938 5.59881V29.3997C0.962926 40.9989 21.9617 56 21.9617 56C21.9617 56 42.9624 40.9989 42.9624 29.3997V5.59881C42.9624 5.59881 35.5824 0 21.9617 0ZM14.7368 16.4664C14.7368 12.478 17.9794 9.23525 21.9597 9.23525C25.9479 9.23525 29.1866 12.478 29.1866 16.4664V21.2083H26.5106V16.4664C26.5106 13.9533 24.4687 11.9173 21.9577 11.9173C19.4546 11.9173 17.4128 13.9533 17.4128 16.4664V21.2083H14.7348V16.4664H14.7368ZM32.0078 37.4619C32.0078 38.1975 31.4034 38.8059 30.6737 38.8059H13.2596C12.524 38.8059 11.9196 38.1975 11.9196 37.4619V24.0713C11.9196 23.3337 12.526 22.7273 13.2596 22.7273H30.6737C31.4034 22.7273 32.0078 23.3337 32.0078 24.0713V37.4619Z" fill="white"/>
</svg>
