<svg width="30" height="26" viewBox="0 0 30 26" fill="none" xmlns="http://www.w3.org/2000/svg">
<path d="M12.1654 18.6667V17.25H4.26287C3.1583 17.25 2.26286 18.1454 2.26286 19.25V23.75C2.26286 24.8546 3.1583 25.75 4.26286 25.75H25.7487C26.8533 25.75 27.7487 24.8546 27.7487 23.75V19.25C27.7487 18.1454 26.8533 17.25 25.7487 17.25H17.832V18.6667H12.1654ZM29.1654 7.91667C29.1654 6.8121 28.2699 5.91667 27.1654 5.91667H20.6654V3.08333L17.832 0.25H12.1654L9.33203 3.08333V5.91667H2.83203C1.72746 5.91667 0.832031 6.8121 0.832031 7.91667V13.8333C0.832031 14.9379 1.72746 15.8333 2.83203 15.8333H12.1654V13H17.832V15.8333H27.1654C28.2699 15.8333 29.1654 14.9379 29.1654 13.8333V7.91667ZM17.832 5.91667H12.1654V3.08333H17.832V5.91667Z" fill="#222836"/>
</svg>
