<svg width="20" height="20" viewBox="0 0 20 20" fill="none" xmlns="http://www.w3.org/2000/svg">
<path d="M8.99011 2.58575C9.19629 2.16756 9.59733 1.9584 9.99844 1.95825C10.3998 1.95811 10.8013 2.16727 11.0076 2.58575L12.9726 6.56659L17.3668 7.20492C18.2893 7.33909 18.6576 8.47325 17.9901 9.12408L14.8101 12.2241L15.5609 16.5991C15.7193 17.5183 14.7543 18.2191 13.9284 17.7858L9.99844 15.7191L6.06927 17.7858C5.24427 18.2191 4.27927 17.5191 4.43594 16.5991L5.18677 12.2241L2.00761 9.12408C1.34011 8.47409 1.70844 7.33909 2.63094 7.20492L7.02511 6.56659L8.99011 2.58575Z" fill="#FFC50A"/>
</svg>
