<svg width="20" height="20" viewBox="0 0 20 20" fill="none" xmlns="http://www.w3.org/2000/svg">
<path d="M8.99011 2.58575C9.40261 1.74909 10.5951 1.74909 11.0076 2.58575L12.9726 6.56659L17.3668 7.20492C18.2893 7.33909 18.6576 8.47325 17.9901 9.12408L14.8101 12.2241L15.5609 16.5991C15.7193 17.5183 14.7543 18.2191 13.9284 17.7858L9.99844 15.7191L6.06927 17.7858C5.24427 18.2191 4.27927 17.5191 4.43594 16.5991L5.18677 12.2241L2.00761 9.12408C1.34011 8.47409 1.70844 7.33909 2.63094 7.20492L7.02511 6.56659L8.99011 2.58575ZM9.99844 3.36575L8.11677 7.17909C8.03603 7.34252 7.91679 7.48389 7.7693 7.59102C7.62181 7.69815 7.4505 7.76784 7.27011 7.79409L3.06177 8.40575L6.10677 11.3741C6.37177 11.6324 6.49261 12.0049 6.43011 12.3699L5.71177 16.5616L9.47511 14.5824C9.63662 14.4975 9.81637 14.4531 9.99886 14.4531C10.1813 14.4531 10.3611 14.4975 10.5226 14.5824L14.2859 16.5608L13.5676 12.3699C13.5367 12.1902 13.55 12.0056 13.6064 11.8321C13.6627 11.6586 13.7604 11.5014 13.8909 11.3741L16.9359 8.40575L12.7276 7.79409C12.5472 7.76784 12.3759 7.69815 12.2284 7.59102C12.0809 7.48389 11.9617 7.34252 11.8809 7.17909L9.99844 3.36575Z" fill="#FFC50A"/>
</svg>
