<svg width="60" height="61" viewBox="0 0 60 61" fill="none" xmlns="http://www.w3.org/2000/svg">
<path fill-rule="evenodd" clip-rule="evenodd" d="M9.58854 4.1857C8.14431 4.49499 6.46945 5.46249 5.50007 6.54741C3.36357 8.9386 2.99944 12.3243 4.55749 15.3095C4.83292 15.8372 9.16976 20.2661 24.2778 35.4485C34.9298 46.1529 44.006 55.1723 44.4469 55.4916C47.531 57.7244 51.6243 57.2627 54.2159 54.3897C56.5037 51.8537 56.7642 48.1008 54.8503 45.2516C54.3717 44.5392 49.3839 39.4648 34.75 24.8022C16.6846 6.7016 15.2257 5.27153 14.4445 4.89794C13.9816 4.67659 13.2555 4.40653 12.831 4.29781C12.1234 4.11646 10.2189 4.05074 9.58854 4.1857ZM20.2614 7.28108L23.4442 10.4622L35.1633 10.4609C46.259 10.4596 46.9425 10.4462 48.012 10.209C50.6315 9.62798 52.3316 8.60736 54.6843 6.20369C55.6279 5.23958 56.4001 4.37185 56.4001 4.27546C56.4001 4.12907 53.156 4.1001 36.7394 4.1001H17.0785L20.2614 7.28108ZM11.9559 9.10812C13.8233 9.89064 14.2246 12.2194 12.7202 13.5443C11.6927 14.4495 10.2914 14.4327 9.26584 13.5033C8.78037 13.0633 8.35745 12.1658 8.35913 11.5787C8.36392 9.7749 10.3279 8.42589 11.9559 9.10812ZM27.4817 14.5139L28.9074 15.9441L32.1325 16.7444L35.3576 17.5447L35.5948 18.7788C35.8667 20.1925 36.1328 20.5974 36.7903 20.5974C37.2942 20.5974 37.423 20.486 38.7798 18.8762C39.367 18.1795 39.8895 17.6097 39.9411 17.6097C39.9925 17.6097 40.1717 18.3843 40.3391 19.3308C40.7202 21.4851 40.7667 21.6093 41.2717 21.8223C41.9261 22.0984 42.2596 21.8804 43.5723 20.3194C44.4197 19.3117 44.8119 18.9322 44.8778 19.0562C44.9298 19.1537 45.103 19.9933 45.2631 20.9221C45.5845 22.7876 45.7992 23.1954 46.4602 23.1954C47.0234 23.1954 47.1682 23.0772 48.5011 21.528L49.7312 20.0983L49.8607 20.5962C50.0995 21.5145 50.7724 21.8862 51.4941 21.4987C51.992 21.2314 52.0225 20.8156 51.6772 18.9931C51.4025 17.5429 51.3033 17.2408 51.0207 16.9926C50.3664 16.418 50.0453 16.5998 48.4992 18.4215C47.8474 19.1895 47.2968 19.818 47.2757 19.818C47.2546 19.818 47.0765 18.9597 46.8802 17.9107C46.4823 15.7854 46.2734 15.4014 45.5159 15.4014C45.0677 15.4014 44.9882 15.4739 43.3435 17.3829C42.1963 18.7143 42.3341 18.8151 41.8832 16.3137C41.5596 14.5182 41.3224 14.1024 40.6222 14.1024C40.1528 14.1024 40.0136 14.2257 38.5826 15.9081L37.4335 17.2592L37.2698 16.6924C37.1799 16.3807 37.0261 16.0452 36.9279 15.9468C36.8299 15.8485 34.3436 15.1641 31.4029 14.4258L26.056 13.0837L27.4817 14.5139ZM49.6164 25.8871C49.5779 26.0142 49.3361 26.9015 49.0792 27.8592L48.612 29.6002L49.4631 30.4604L50.3139 31.3206L50.3255 34.4349L50.3369 37.5493L51.3614 38.5083L52.3858 39.4675V35.394V31.3206L53.2376 30.4596L54.0893 29.5985L53.5823 27.6635L53.0754 25.7284L51.3808 25.6923C49.8509 25.6596 49.6794 25.6785 49.6164 25.8871ZM9.39741 31.7172C8.48254 31.9639 7.68409 32.4382 6.95764 33.167C6.51296 33.6131 6.41934 33.7737 6.55815 33.8517C6.65799 33.9077 11.955 36.2738 18.3293 39.1095C24.7036 41.9454 29.9771 44.3003 30.0484 44.3428C30.3502 44.5227 29.1639 43.2986 25.5164 39.6669L21.642 35.8091L17.0986 33.7956C14.5996 32.6882 12.2956 31.722 11.9783 31.6486C11.1841 31.465 10.2396 31.4901 9.39741 31.7172ZM21.7777 37.1133C22.1238 37.4969 22.0894 38.2985 21.7093 38.7044C20.9145 39.553 19.5636 39.0113 19.5964 37.857C19.6284 36.7255 21.0045 36.2563 21.7777 37.1133ZM10.8187 41.3213C8.86014 42.129 7.17311 42.843 7.06978 42.9076C6.91879 43.0022 7.00089 43.1529 7.48752 43.6748C8.8244 45.1085 10.8855 45.7231 12.6964 45.2282C13.2335 45.0813 19.9968 42.3499 20.1138 42.2326C20.1894 42.1566 14.8233 39.8232 14.6061 39.8376C14.4817 39.8458 12.7773 40.5135 10.8187 41.3213ZM49.4434 46.8449C50.0647 47.0179 50.7713 47.6377 51.1125 48.3085C51.4894 49.0496 51.4017 50.1329 50.9069 50.8492C50.4981 51.4409 49.4586 52.0335 48.8318 52.0323C48.0547 52.0309 47.4088 51.7549 46.8701 51.194C45.8283 50.1089 45.8281 48.6025 46.8694 47.5578C47.6306 46.7941 48.4482 46.5677 49.4434 46.8449ZM10.7787 50.6693C9.68928 50.9697 8.74101 51.5236 7.81358 52.4012C7.04465 53.1289 6.80781 53.4681 6.20049 54.7114C5.78884 55.554 5.5068 56.2962 5.53153 56.4714L5.57427 56.7744L24.1285 56.8073L42.6827 56.8403L39.4733 53.6614L36.264 50.4826L30.4045 50.4785C25.7738 50.4752 24.5449 50.5086 24.5449 50.6381C24.5449 50.7283 24.806 51.415 25.1251 52.1644C25.4443 52.9138 25.7065 53.6337 25.7078 53.7643C25.7092 53.8948 25.5401 54.1724 25.3319 54.3813L24.9533 54.761H19.2357H13.5181L13.1396 54.3813L12.7611 54.0016V52.238V50.4743L12.0813 50.4859C11.7073 50.4924 11.1212 50.5749 10.7787 50.6693Z" fill="#FFC50A"/>
<path fill-rule="evenodd" clip-rule="evenodd" d="M27.4817 14.5139L28.9074 15.9441L32.1325 16.7444L35.3576 17.5447L35.5948 18.7788C35.8667 20.1925 36.1328 20.5974 36.7903 20.5974C37.2942 20.5974 37.423 20.486 38.7798 18.8762C39.367 18.1795 39.8895 17.6097 39.9411 17.6097C39.9925 17.6097 40.1717 18.3843 40.3391 19.3308C40.7202 21.4851 40.7667 21.6093 41.2717 21.8223C41.9261 22.0984 42.2596 21.8804 43.5723 20.3194C44.4197 19.3117 44.8119 18.9322 44.8778 19.0562C44.9298 19.1537 45.103 19.9933 45.2631 20.9221C45.5845 22.7876 45.7992 23.1954 46.4602 23.1954C47.0234 23.1954 47.1682 23.0772 48.5011 21.528L49.7312 20.0983L49.8607 20.5962C50.0995 21.5145 50.7724 21.8862 51.4941 21.4987C51.992 21.2314 52.0225 20.8156 51.6772 18.9931C51.4025 17.5429 51.3033 17.2408 51.0207 16.9926C50.3664 16.418 50.0453 16.5998 48.4992 18.4215C47.8474 19.1895 47.2968 19.818 47.2757 19.818C47.2546 19.818 47.0765 18.9597 46.8802 17.9106C46.4823 15.7854 46.2734 15.4014 45.5159 15.4014C45.0677 15.4014 44.9882 15.4739 43.3435 17.3829C43.2518 17.4893 43.1684 17.5878 43.0922 17.6778C42.7316 18.1035 42.5332 18.3376 42.3959 18.3061C42.2281 18.2675 42.1514 17.8321 41.981 16.8643C41.9515 16.6969 41.9192 16.5136 41.8832 16.3137C41.5596 14.5182 41.3224 14.1024 40.6222 14.1024C40.1528 14.1024 40.0136 14.2257 38.5826 15.9081L37.4335 17.2592L37.2698 16.6924C37.1799 16.3807 37.0261 16.0452 36.9279 15.9468C36.8299 15.8485 34.3436 15.1641 31.4029 14.4258L26.056 13.0837L27.4817 14.5139ZM49.6164 25.8871C49.5779 26.0142 49.3361 26.9015 49.0792 27.8592L48.612 29.6002L49.4631 30.4604L50.3139 31.3206L50.3255 34.4349L50.3369 37.5493L51.3614 38.5083L52.3858 39.4675V35.394V31.3206L53.2376 30.4596L54.0893 29.5985L53.5823 27.6635L53.0754 25.7284L51.3808 25.6923C49.8509 25.6596 49.6794 25.6785 49.6164 25.8871ZM9.39741 31.7172C8.48254 31.9639 7.68409 32.4382 6.95764 33.167C6.51296 33.6131 6.41934 33.7737 6.55815 33.8517C6.65799 33.9077 11.955 36.2738 18.3293 39.1095C24.7036 41.9453 29.9771 44.3003 30.0484 44.3428C30.3502 44.5227 29.1639 43.2986 25.5164 39.6669L21.642 35.8091L17.0986 33.7956C14.5996 32.6882 12.2956 31.722 11.9783 31.6486C11.1841 31.465 10.2396 31.4901 9.39741 31.7172ZM21.7777 37.1133C22.1238 37.4969 22.0894 38.2985 21.7093 38.7044C20.9145 39.553 19.5636 39.0113 19.5964 37.857C19.6284 36.7255 21.0045 36.2563 21.7777 37.1133ZM10.8187 41.3213C8.86014 42.129 7.17311 42.843 7.06978 42.9077C6.91879 43.0022 7.00089 43.1529 7.48752 43.6748C8.8244 45.1085 10.8855 45.7231 12.6964 45.2282C13.2335 45.0813 19.9968 42.3499 20.1138 42.2326C20.1894 42.1566 14.8233 39.8232 14.6061 39.8376C14.4817 39.8458 12.7773 40.5135 10.8187 41.3213ZM10.7787 50.6693C9.68928 50.9697 8.74101 51.5236 7.81358 52.4012C7.04465 53.1289 6.80781 53.4681 6.20049 54.7114C5.78884 55.554 5.5068 56.2962 5.53153 56.4714L5.57427 56.7744L24.1285 56.8073L42.6827 56.8403L39.4733 53.6614L36.264 50.4826L30.4045 50.4785C25.7738 50.4752 24.5449 50.5086 24.5449 50.6381C24.5449 50.7283 24.806 51.415 25.1251 52.1644C25.4443 52.9138 25.7065 53.6337 25.7078 53.7643C25.7092 53.8948 25.5401 54.1724 25.3319 54.3813L24.9533 54.761H19.2357H13.5181L13.1396 54.3813L12.7611 54.0016V52.238V50.4743L12.0813 50.4859C11.7073 50.4924 11.1212 50.5749 10.7787 50.6693Z" fill="#222836"/>
</svg>
