<svg width="57" height="56" viewBox="0 0 57 56" fill="none" xmlns="http://www.w3.org/2000/svg">
<g clip-path="url(#clip0_664_25072)">
<path d="M29.2789 22.0958C30.2032 22.0958 31.0841 22.2891 31.8849 22.6366C31.9449 21.3299 32.3954 20.1215 33.1179 19.1212C32.6091 19.0148 32.0844 18.9583 31.5471 18.9583H26.4563C25.9201 18.9583 25.3954 19.0143 24.8906 19.1194C25.6606 20.1878 26.1207 21.4917 26.1282 22.9035C27.0639 22.3891 28.1374 22.0958 29.2789 22.0958Z" fill="white"/>
<path d="M28.9997 18.5489C32.3132 18.5489 34.9993 15.8628 34.9993 12.5492C34.9993 9.23571 32.3132 6.54956 28.9997 6.54956C25.6861 6.54956 23 9.23571 23 12.5492C23 15.8628 25.6861 18.5489 28.9997 18.5489Z" fill="white"/>
<path d="M38.4259 28.7865C41.4794 28.7865 43.9534 26.3114 43.9534 23.259C43.9534 20.2054 41.4794 17.7314 38.4259 17.7314C35.4009 17.7314 32.9481 20.1614 32.9023 23.1755C34.6452 24.2684 35.8673 26.117 36.0902 28.2629C36.8002 28.5956 37.5896 28.7865 38.4259 28.7865Z" fill="white"/>
<path d="M19.5789 17.731C16.5247 17.731 14.0508 20.2055 14.0508 23.2585C14.0508 26.3115 16.5247 28.7854 19.5789 28.7854C20.6604 28.7854 21.6658 28.4693 22.5187 27.9326C22.7902 26.1657 23.7374 24.6206 25.0904 23.5689C25.0961 23.4654 25.1058 23.3631 25.1058 23.2585C25.1058 20.2055 22.6307 17.731 19.5789 17.731Z" fill="white"/>
<path d="M42.0156 17.6132C43.7585 18.7061 44.9806 20.5547 45.203 22.7011C45.9123 23.0332 46.7023 23.2247 47.5386 23.2247C50.5921 23.2247 53.0661 20.7502 53.0661 17.6972C53.0661 14.6442 50.5921 12.1697 47.5386 12.1697C44.5142 12.1691 42.0614 14.5996 42.0156 17.6132Z" fill="white"/>
<path d="M29.2781 34.4937C32.3312 34.4937 34.8062 32.0187 34.8062 28.9656C34.8062 25.9125 32.3312 23.4375 29.2781 23.4375C26.225 23.4375 23.75 25.9125 23.75 28.9656C23.75 32.0187 26.225 34.4937 29.2781 34.4937Z" fill="white"/>
<path d="M40.7699 29.1631H36.1147C36.0638 31.0254 35.2693 32.7025 34.0117 33.9081C37.4803 34.9404 40.0188 38.1574 40.0188 41.9575V43.725C44.6146 43.5552 47.2635 42.2542 47.4378 42.165L47.8071 41.9775H47.8454V36.2408C47.8465 32.3378 44.6718 29.1631 40.7699 29.1631Z" fill="white"/>
<path d="M49.8815 23.6013H45.2274C45.1771 25.4636 44.382 27.1408 43.125 28.3463C46.5936 29.3786 49.1315 32.5951 49.1315 36.3952V38.1626C53.7267 37.9935 56.3762 36.6925 56.5505 36.6027L56.9198 36.4158H56.9592V30.6791C56.9592 26.7766 53.7845 23.6013 49.8815 23.6013Z" fill="white"/>
<path d="M24.5444 33.9076C23.2931 32.7078 22.5008 31.0398 22.4425 29.1895C22.2705 29.1769 22.0996 29.1626 21.9235 29.1626H17.2346C13.3316 29.1626 10.1562 32.3379 10.1562 36.2409V41.9782L10.1705 42.0668L10.5655 42.1914C13.5534 43.1249 16.2205 43.5536 18.5361 43.6896V41.9571C18.5373 38.1575 21.0747 34.9405 24.5444 33.9076Z" fill="white"/>
<path d="M31.6245 34.8701H26.9338C23.0308 34.8701 19.8555 38.0466 19.8555 41.9479V47.6852L19.8703 47.7749L20.2647 47.8984C23.9894 49.0616 27.2253 49.4503 29.8879 49.4503C35.0902 49.4503 38.1049 47.967 38.2912 47.8726L38.6605 47.6852H38.6993V41.9479C38.701 38.0454 35.5263 34.8701 31.6245 34.8701Z" fill="white"/>
<path d="M10.3836 23.4008C11.2198 23.4008 12.0092 23.2093 12.7192 22.8772C12.9421 20.7308 14.1637 18.8816 15.9065 17.7887C15.8608 14.7757 13.408 12.3452 10.3836 12.3452C7.32942 12.3452 4.85547 14.8197 4.85547 17.8733C4.85547 20.9263 7.32942 23.4008 10.3836 23.4008Z" fill="white"/>
<path d="M14.7952 28.523C13.5388 27.3174 12.7436 25.6397 12.6933 23.7769H8.03868C4.13569 23.7774 0.960938 26.9527 0.960938 30.8552V36.5925H1.00038L1.36964 36.7794C1.54456 36.8674 4.19285 38.1701 8.78864 38.3388V36.5713C8.78864 32.7718 11.326 29.5547 14.7952 28.523Z" fill="white"/>
<path d="M16.8498 17.1845C17.5128 16.9159 18.5246 16.5861 19.4906 16.5861C20.615 16.5861 21.7148 16.8753 22.6957 17.4258C22.914 17.2114 23.1141 16.9782 23.2959 16.7284C22.3641 15.5046 21.8554 14.0047 21.8554 12.4619C21.8554 11.4227 22.0875 10.3915 22.5299 9.4546C21.5227 8.54459 20.2377 8.04785 18.8721 8.04785C16.3868 8.04785 14.2232 9.73011 13.5898 12.0995C15.4465 13.1798 16.656 15.0684 16.8498 17.1845Z" fill="white"/>
<path d="M34.7539 16.4156C34.946 16.7208 35.1706 17.0083 35.4256 17.2759C36.3333 16.8231 37.3313 16.5853 38.3362 16.5853C39.3245 16.5853 40.2717 16.838 40.8925 17.0495C41.0868 14.7556 42.4741 12.7309 44.5508 11.7049C43.7894 9.52989 41.7282 8.04541 39.3943 8.04541C37.8852 8.04541 36.4562 8.66504 35.4244 9.75568C35.7868 10.62 35.9703 11.5283 35.9703 12.4594C35.9697 13.8856 35.5502 15.2449 34.7539 16.4156Z" fill="white"/>
</g>
<defs>
<clipPath id="clip0_664_25072">
<rect width="56" height="56" fill="white" transform="translate(0.960938)"/>
</clipPath>
</defs>
</svg>
