<svg width="60" height="61" viewBox="0 0 60 61" fill="none" xmlns="http://www.w3.org/2000/svg">
<g clip-path="url(#clip0_1140_1058)">
<path d="M41.5209 58.0293L32.4999 56.0246V36.5503C40.9656 35.3306 47.4999 28.0487 47.4999 19.25C47.4999 18.4858 47.4364 17.6765 47.307 16.783C47.3095 16.7097 47.3046 16.634 47.2924 16.5596L44.9852 1.55961C44.8925 0.950469 44.3676 0.5 43.7499 0.5H32.7489C32.1533 0.5 31.6406 0.921172 31.5234 1.50465L30.0243 9.00465C29.9511 9.37203 30.0464 9.75289 30.2831 10.0422C30.5199 10.3316 30.8764 10.5 31.2499 10.5H36.7284L31.9188 20.1154L32.4925 14.3744C32.5292 14.0229 32.4144 13.6725 32.1775 13.4113C31.9407 13.1488 31.6038 12.9999 31.2498 12.9999H25.1902L26.7723 1.92688C26.8236 1.56793 26.7161 1.20418 26.4793 0.930781C26.2426 0.6575 25.8959 0.5 25.5346 0.5H16.25C15.6323 0.5 15.1074 0.950469 15.0146 1.55961L12.7051 16.5596C12.6929 16.6365 12.688 16.7135 12.6929 16.7904C12.5635 17.6814 12.5 18.4884 12.5 19.2501C12.5 28.0488 19.0344 35.3307 27.5 36.5504V56.0246L18.479 58.0293C17.8564 58.1686 17.439 58.7532 17.5073 59.3867C17.5781 60.0202 18.1127 60.5 18.75 60.5H41.25C41.8872 60.5 42.4218 60.0202 42.4926 59.3867C42.5609 58.7532 42.1435 58.1684 41.5209 58.0293Z" fill="#FFC50A"/>
<path fill-rule="evenodd" clip-rule="evenodd" d="M32.4999 56.0246L41.5209 58.0293C42.1435 58.1684 42.5609 58.7532 42.4926 59.3867C42.4218 60.0202 41.8872 60.5 41.25 60.5H18.75C18.1127 60.5 17.5781 60.0202 17.5073 59.3867C17.439 58.7532 17.8564 58.1686 18.479 58.0293L27.5 56.0246V36.5504C19.0344 35.3307 12.5 28.0488 12.5 19.2501C12.5 18.4884 12.5635 17.6814 12.6929 16.7904C12.688 16.7135 12.6929 16.6365 12.7051 16.5596L15.0146 1.55961C15.1074 0.950469 15.6323 0.5 16.25 0.5H18.6002C17.6002 5.16152 15.843 15.0608 15.6002 17.3C15.0146 22.7 17.4485 33.5 30.0243 33.5C42.6002 33.5 44.2997 20.9 43.7499 17.3C43.3101 14.42 42.0807 4.9 41.5209 0.5H43.7499C44.3676 0.5 44.8925 0.950469 44.9852 1.55961L47.2924 16.5596C47.3046 16.634 47.3095 16.7097 47.307 16.783C47.4364 17.6765 47.4999 18.4858 47.4999 19.25C47.4999 28.0487 40.9656 35.3306 32.4999 36.5503V56.0246Z" fill="#222836"/>
</g>
<defs>
<clipPath id="clip0_1140_1058">
<rect width="60" height="60" fill="white" transform="translate(0 0.5)"/>
</clipPath>
</defs>
</svg>
