
<svg width="36" height="36" viewBox="0 0 36 36" fill="none" xmlns="http://www.w3.org/2000/svg">
<g clip-path="url(#clip0_1125_12977)">
<path d="M18 20.4575C20.4593 20.4575 26.2416 17.4977 26.2416 10.4056C26.2416 5.40073 25.6316 1.25094 20.0218 0.482088V0.133341C18.6766 -0.0444471 17.3234 -0.0444471 15.9781 0.133341V0.48219C10.3683 1.25104 9.7583 5.40083 9.7583 10.4057C9.7582 17.4977 15.5406 20.4575 18 20.4575ZM20.0218 1.69388C20.3773 1.74812 20.7017 1.81632 20.9968 1.89624L20.5153 6.20547H20.0217V1.69388H20.0218ZM15.9781 1.69388V6.20547H15.4845L15.0031 1.89624C15.2983 1.81621 15.6227 1.74812 15.9781 1.69388ZM10.9941 8.62365L11.0731 8.57798L11.113 8.79013C11.2815 9.6861 11.7071 10.9703 12.1254 11.0205C14.523 11.308 16.2799 11.4309 18 11.4309C19.7201 11.4309 21.4769 11.308 23.8744 11.0205C24.2931 10.9702 24.7185 9.6861 24.8868 8.79023L24.9267 8.57788L25.0057 8.62365C25.0333 9.21135 25.0418 9.80976 25.0418 10.4057C25.0418 13.8723 23.5111 16.0202 22.2269 17.2116C20.6089 18.7129 18.8125 19.2578 17.9998 19.2578C17.1871 19.2578 15.3906 18.7129 13.7726 17.2116C12.4884 16.0202 10.9578 13.8723 10.9578 10.4057C10.958 9.80976 10.9664 9.21135 10.9941 8.62365Z" fill="#222836"/>
<path fill-rule="evenodd" clip-rule="evenodd" d="M9.9947 6.48L10.9941 8.62365L11.0731 8.57798L11.113 8.79013C11.2815 9.6861 11.7071 10.9703 12.1254 11.0205C14.523 11.308 16.2799 11.4309 18 11.4309C19.7201 11.4309 21.4769 11.308 23.8744 11.0205C24.2931 10.9702 24.7185 9.6861 24.8868 8.79023L24.9267 8.57788L26.0053 6.48C25.5148 3.35273 24.0703 1.03696 20.0218 0.482088V0.133341C18.6766 -0.0444471 17.3234 -0.0444471 15.9781 0.133341V0.48219C11.9297 1.03706 10.4852 3.35278 9.9947 6.48ZM20.9968 1.89624C20.7017 1.81632 20.3773 1.74812 20.0218 1.69388L20.0217 6.20547H20.5153L20.9968 1.89624ZM15.9781 6.20547V1.69388C15.6227 1.74812 15.2983 1.81621 15.0031 1.89624L15.4845 6.20547H15.9781Z" fill="#222836"/>
<path d="M33.3009 30.7663C32.8801 28.1499 32.0139 24.7798 30.2765 23.5821C29.0901 22.7642 24.9507 20.5526 23.1831 19.6083L23.1526 19.592C22.9505 19.4839 22.7037 19.5058 22.5236 19.6471C21.5976 20.3741 20.5833 20.864 19.5088 21.1033C19.319 21.1456 19.1632 21.2805 19.0942 21.4622L18.0001 24.3463L16.9059 21.4622C16.8369 21.2805 16.6811 21.1456 16.4913 21.1033C15.4168 20.864 14.4025 20.3741 13.4765 19.6471C13.2963 19.5057 13.0495 19.4839 12.8476 19.592C11.101 20.5253 6.91091 22.782 5.72878 23.5787C3.72877 24.9261 2.8542 29.8025 2.69925 30.7664C2.68385 30.862 2.69272 30.9598 2.72504 31.051C2.7966 31.2531 4.63219 36.0001 18.0001 36.0001C31.3679 36.0001 33.2035 31.2531 33.2751 31.051C33.3073 30.9597 33.3163 30.8618 33.3009 30.7663ZM26.447 34.1992C24.4003 34.7204 21.6609 35.0865 17.9995 35.0865C14.338 35.0865 11.5989 34.7204 9.55185 34.1992C10.1774 28.859 9.58355 24.2307 9.26671 22.3364C9.58538 22.1595 9.91028 21.9809 10.233 21.804C11.4332 24.9766 11.6454 28.9943 11.6454 28.9943H17.4561H18.543H24.3534C24.3534 28.9943 24.566 24.973 25.7678 21.7997C26.0902 21.9758 26.4148 22.1538 26.7334 22.33C26.4168 24.2205 25.8208 28.8531 26.447 34.1992Z" fill="#222836"/>
<path d="M9.36014 22.32C10.0801 31.68 8.64014 34.92 8.64014 34.92C10.8001 35.64 12.8881 36 18.3601 36C23.8321 36 25.9201 35.28 27.3601 34.92C27.3601 34.92 25.5601 32.04 26.6401 22.32L25.5601 21.6C25.5601 21.6 24.8401 23.76 24.1201 28.8H11.8801C11.1601 23.4 10.4401 21.6 10.4401 21.6L9.36014 22.32Z" fill="white"/>
</g>
<defs>
<clipPath id="clip0_1125_12977">
<rect width="36" height="36" fill="white"/>
</clipPath>
</defs>
</svg>
