<svg width="61" height="61" viewBox="0 0 61 61" fill="none" xmlns="http://www.w3.org/2000/svg">
<path d="M30.4998 34.5958C34.5987 34.5958 44.2359 29.6628 44.2359 17.8427C44.2359 9.50121 43.2192 2.5849 33.8695 1.30348V0.722235C31.6275 0.425922 29.3721 0.425922 27.1301 0.722235V1.30365C17.7804 2.58507 16.7637 9.50139 16.7637 17.8429C16.7635 29.6628 26.4008 34.5958 30.4998 34.5958ZM33.8695 3.32314C34.462 3.41353 35.0026 3.52719 35.4945 3.6604L34.692 10.8424H33.8693V3.32314H33.8695ZM27.1301 3.32314V10.8424H26.3074L25.5049 3.6604C25.997 3.52702 26.5376 3.41353 27.1301 3.32314ZM18.8233 14.8728L18.9549 14.7966L19.0215 15.1502C19.3024 16.6435 20.0117 18.7838 20.7089 18.8676C24.7049 19.3467 27.633 19.5514 30.4998 19.5514C33.3666 19.5514 36.2947 19.3467 40.2906 18.8676C40.9884 18.7836 41.6974 16.6435 41.9779 15.1504L42.0443 14.7965L42.176 14.8728C42.222 15.8523 42.2361 16.8496 42.2361 17.8429C42.2361 23.6205 39.685 27.2004 37.5447 29.186C34.848 31.6882 31.8539 32.5964 30.4995 32.5964C29.145 32.5964 26.1509 31.6882 23.4542 29.186C21.3139 27.2004 18.7628 23.6205 18.7628 17.8429C18.7631 16.8496 18.7772 15.8523 18.8233 14.8728Z" fill="#FFC50A"/>
<path fill-rule="evenodd" clip-rule="evenodd" d="M17.1577 11.3L18.8233 14.8728L18.9549 14.7966L19.0215 15.1502C19.3024 16.6435 20.0117 18.7838 20.7089 18.8676C24.7049 19.3467 27.633 19.5514 30.4998 19.5514C33.3666 19.5514 36.2947 19.3467 40.2906 18.8676C40.9884 18.7836 41.6974 16.6435 41.9779 15.1504L42.0443 14.7965L43.8419 11.3C43.0245 6.08789 40.6171 2.22827 33.8695 1.30348V0.722235C31.6275 0.425922 29.3721 0.425922 27.1301 0.722235V1.30365C20.3826 2.22843 17.9751 6.08798 17.1577 11.3ZM35.4945 3.6604C35.0026 3.52719 34.462 3.41353 33.8695 3.32314L33.8693 10.8424H34.692L35.4945 3.6604ZM27.1301 10.8424V3.32314C26.5376 3.41353 25.997 3.52702 25.5049 3.6604L26.3074 10.8424H27.1301Z" fill="#222836"/>
<path d="M56.0013 51.7771C55.3001 47.4164 53.8564 41.7996 50.9607 39.8035C48.9834 38.4402 42.0844 34.7543 39.1384 33.1804L39.0874 33.1533C38.7507 32.9732 38.3393 33.0095 38.0391 33.2452C36.4959 34.4568 34.8053 35.2733 33.0145 35.6721C32.6982 35.7426 32.4385 35.9674 32.3235 36.2703L30.4999 41.0771L28.6763 36.2703C28.5613 35.9674 28.3017 35.7426 27.9853 35.6721C26.1945 35.2733 24.504 34.4568 22.9607 33.2452C22.6604 33.0093 22.249 32.9732 21.9124 33.1533C19.0015 34.7087 12.018 38.4699 10.0478 39.7977C6.71445 42.0434 5.25684 50.1708 4.99858 51.7772C4.97292 51.9366 4.98771 52.0995 5.04157 52.2516C5.16084 52.5884 8.22015 60.5001 30.4999 60.5001C52.7797 60.5001 55.839 52.5884 55.9583 52.2516C56.012 52.0994 56.0269 51.9363 56.0013 51.7771ZM44.5782 57.4986C41.1671 58.3673 36.6014 58.9775 30.4991 58.9775C24.3964 58.9775 19.8313 58.3673 16.4196 57.4986C17.4621 48.5983 16.4724 40.8844 15.9444 37.7273C16.4755 37.4325 17.017 37.1348 17.5549 36.8399C19.5552 42.1276 19.9089 48.8238 19.9089 48.8238H29.5933H31.4048H41.0889C41.0889 48.8238 41.4432 42.1215 43.4462 36.8327C43.9836 37.1263 44.5246 37.423 45.0555 37.7166C44.5278 40.8675 43.5345 48.5884 44.5782 57.4986Z" fill="#FFC50A"/>
<path d="M16.0999 37.7C17.2999 53.3 14.8999 58.7 14.8999 58.7C18.4999 59.9 21.9799 60.5 31.0999 60.5C40.2199 60.5 43.6999 59.3 46.0999 58.7C46.0999 58.7 43.0999 53.9 44.8999 37.7L43.0999 36.5C43.0999 36.5 41.8999 40.1 40.6999 48.5H20.2999C19.0999 39.5 17.8999 36.5 17.8999 36.5L16.0999 37.7Z" fill="#222836"/>
</svg>
