<svg width="60" height="61" viewBox="0 0 60 61" fill="none" xmlns="http://www.w3.org/2000/svg">
<g clip-path="url(#clip0_1140_1080)">
<path d="M1.75781 28.7422H26.4844C27.456 28.7422 28.2422 27.956 28.2422 26.9844V2.25781C28.2422 1.28621 27.456 0.5 26.4844 0.5H1.75781C0.786211 0.5 0 1.28621 0 2.25781V26.9844C0 27.956 0.786211 28.7422 1.75781 28.7422Z" fill="#FFC50A"/>
<path d="M40.5469 7.64844H33.5156C32.544 7.64844 31.7578 8.43465 31.7578 9.40625C31.7578 10.3779 32.544 11.1641 33.5156 11.1641H40.5469C43.4548 11.1641 45.8203 13.5296 45.8203 16.4375V21.7112L43.7106 18.8991C43.1252 18.1198 42.0249 17.9653 41.2507 18.5472C40.4731 19.1292 40.3152 20.2312 40.8988 21.0071L46.1722 28.0384C46.9193 29.0395 48.3743 28.8554 48.984 28.0384L54.2575 21.0071C54.8411 20.2312 54.6832 19.1292 53.9056 18.5472C53.1314 17.9687 52.031 18.1232 51.4457 18.8991L49.336 21.7112V16.4375C49.336 11.5914 45.3929 7.64844 40.5469 7.64844V7.64844Z" fill="#222836"/>
<path d="M45.8203 32.2578C38.0664 32.2578 31.7578 38.5664 31.7578 46.3203C31.7578 54.0743 38.0664 60.5 45.8203 60.5C53.5743 60.5 60 54.0743 60 46.3203C60 38.5664 53.5743 32.2578 45.8203 32.2578Z" fill="#FFC50A"/>
<path d="M16.2896 42.1009C16.8694 42.8769 17.9709 43.0367 18.7494 42.4528C19.5271 41.8708 19.685 40.7688 19.1014 39.9929L13.8279 32.9616C13.808 32.9348 13.7737 32.9265 13.7522 32.9013C13.4298 32.5163 12.9638 32.2578 12.422 32.2578C11.8803 32.2578 11.4142 32.5163 11.0918 32.9013C11.0704 32.9264 11.036 32.9348 11.0161 32.9616L5.74269 39.9929C5.1591 40.7688 5.31695 41.8708 6.0946 42.4528C6.8739 43.0364 7.97429 42.8785 8.55449 42.1009L10.6642 39.2888V44.5625C10.6642 49.4086 14.6072 53.3516 19.4533 53.3516H26.4845C27.4561 53.3516 28.2423 52.5654 28.2423 51.5938C28.2423 50.6221 27.4561 49.8359 26.4845 49.8359H19.4533C16.5454 49.8359 14.1798 47.4704 14.1798 44.5625V39.2888L16.2896 42.1009Z" fill="#222836"/>
</g>
<defs>
<clipPath id="clip0_1140_1080">
<rect width="60" height="60" fill="white" transform="translate(0 0.5)"/>
</clipPath>
</defs>
</svg>
