<svg width="19" height="20" fill="none" xmlns="http://www.w3.org/2000/svg"><path fill="#E5E5E5" d="M0 0h19v20H0z"/><path fill="#fff" d="M-499-4542H941V378H-499z"/><g opacity=".6" fill="#C072BC"><path d="M9.44 20a9.07 9.07 0 01-5.244-1.685 9.894 9.894 0 01-3.477-4.488A10.552 10.552 0 01.18 8.049a10.196 10.196 0 012.584-5.12A9.29 9.29 0 017.6.192a8.951 8.951 0 015.454.57c1.725.756 3.2 2.038 4.237 3.682A10.427 10.427 0 0118.88 10c0 2.652-.994 5.196-2.764 7.071C14.346 18.946 11.944 20 9.44 20zm0-18.667a7.86 7.86 0 00-4.545 1.46 8.579 8.579 0 00-3.013 3.89 9.145 9.145 0 00-.466 5.008 8.837 8.837 0 002.24 4.437A8.051 8.051 0 007.843 18.5a7.758 7.758 0 004.728-.493 8.303 8.303 0 003.671-3.192A9.036 9.036 0 0017.623 10c0-2.299-.863-4.503-2.397-6.128C13.69 2.246 11.61 1.333 9.44 1.333z"/><path d="M12.109 13.773l-3.115-3.3A.701.701 0 018.81 10V4.667h1.259v5.06l2.933 3.1-.894.946z"/></g></svg>