<svg width="15" height="20" fill="none" xmlns="http://www.w3.org/2000/svg"><g opacity=".6" fill="#C072BC"><path d="M7.333 0C3.291 0 0 3.29 0 7.333c0 7.114 6.92 12.521 6.92 12.521a.667.667 0 00.832 0s6.92-5.407 6.92-12.52C14.672 3.29 11.376 0 7.333 0zm0 1.334a5.993 5.993 0 016.005 6c0 5.819-5.27 10.416-6 11.039-.726-.62-6.004-5.218-6.004-11.04 0-3.322 2.677-6 6-6z"/><path d="M7.333 4.001a3.341 3.341 0 00-3.332 3.332 3.345 3.345 0 003.332 3.337 3.35 3.35 0 003.337-3.337 3.345 3.345 0 00-3.337-3.332zm0 1.334a1.99 1.99 0 012.003 1.998c0 1.113-.89 2.004-2.003 2.004a1.991 1.991 0 01-1.998-2.004c0-1.112.886-1.998 1.998-1.998z"/></g></svg>