<svg width="34" height="34" fill="none" xmlns="http://www.w3.org/2000/svg"><path fill="#E5E5E5" d="M0 0h34v34H0z"/><path fill="#fff" d="M-324-4687h1440V233H-324z"/><g opacity=".8" fill="#C072BC"><path d="M25.5 0h-17C3.825 0 0 3.825 0 8.5v17C0 30.173 3.825 34 8.5 34h17c4.674 0 8.5-3.827 8.5-8.5v-17C34 3.825 30.173 0 25.5 0zm5.666 25.5a5.673 5.673 0 01-5.667 5.667h-17A5.674 5.674 0 012.834 25.5v-17A5.673 5.673 0 018.5 2.833h17A5.672 5.672 0 0131.165 8.5v17z"/><path d="M26.208 9.916a2.125 2.125 0 100-4.25 2.125 2.125 0 000 4.25zM17 8.5a8.5 8.5 0 10.002 17A8.5 8.5 0 0017 8.5zm0 14.167a5.667 5.667 0 110-11.334 5.667 5.667 0 010 11.334z"/></g></svg>