<svg width="60" height="60" fill="none" xmlns="http://www.w3.org/2000/svg"><path d="M35.677 16.802a22.52 22.52 0 01.468 2.556 22.4 22.4 0 012.447-.873 14.874 14.874 0 00.186-3.69 15.73 15.73 0 00-.958.507c-.771.446-1.484.951-2.143 1.5zm5.78-6.647a24.696 24.696 0 015.286-.62c-.32-2.574-.896-4.372-.952-4.541a1.759 1.759 0 00-2.03-1.173c-.175.037-2.019.437-4.408 1.447a25.733 25.733 0 011.601 3.41c.187.492.354.984.503 1.477zM29.484 42.947c-.377.461-.766.901-1.167 1.322.297.803.661 1.598 1.107 2.37.182.315.375.62.576.917.201-.296.394-.602.577-.918.445-.771.81-1.565 1.106-2.37A22.605 22.605 0 0130 42.289c-.17.224-.341.444-.516.659zm4.136-31.343c.314.54.6 1.102.859 1.68a18.544 18.544 0 011.583-1.026c.657-.38 1.342-.718 2.05-1.018-.478-1.599-1.158-3.079-1.907-4.398-1.308.767-2.637 1.709-3.85 2.854a18.49 18.49 0 011.266 1.908zm-3.104 5.449c.377-.461.766-.901 1.167-1.321a15.427 15.427 0 00-1.106-2.37 15.043 15.043 0 00-.577-.918c-.201.296-.394.602-.577.918-.445.771-.81 1.565-1.106 2.37A22.796 22.796 0 0130 17.712c.17-.224.341-.444.516-.659zm11.818-1.174c0 .625-.033 1.253-.098 1.885a18.41 18.41 0 014.17.044c.385-1.623.536-3.244.547-4.761-1.517.01-3.138.161-4.762.546.095.766.143 1.529.143 2.286zM19.046 8.678c.433-1.14.97-2.281 1.601-3.41-2.39-1.01-4.233-1.41-4.407-1.447a1.744 1.744 0 00-1.24.198c-.363.21-.652.549-.791.974-.056.17-.631 1.967-.951 4.542 1.862.026 3.626.233 5.285.62.15-.493.316-.985.503-1.477zM44.698 22.18c.182-.316.35-.635.506-.958a15.14 15.14 0 00-1.083-.04c-.89 0-1.761.081-2.606.226a22.645 22.645 0 01-.873 2.447c.878.111 1.732.265 2.558.466a15.463 15.463 0 001.498-2.141zm-3.744 29.142a25.77 25.77 0 01-1.601 3.41c2.39 1.01 4.233 1.41 4.407 1.447a1.76 1.76 0 002.031-1.173c.056-.169.632-1.967.951-4.542a24.722 24.722 0 01-5.285-.619c-.15.492-.316.985-.503 1.477zM30 52.914a21.63 21.63 0 01-1.174 1.028 25.709 25.709 0 01-3.092 2.153c1.564 2.07 2.96 3.338 3.093 3.457a1.754 1.754 0 002.346 0c.132-.12 1.53-1.388 3.093-3.457a25.752 25.752 0 01-3.092-2.153A22.415 22.415 0 0130 52.914zm0-45.829a22.63 22.63 0 011.174-1.027 25.714 25.714 0 013.092-2.153c-1.564-2.07-2.96-3.338-3.093-3.457a1.755 1.755 0 00-2.346 0c-.132.12-1.53 1.388-3.093 3.457a25.807 25.807 0 013.092 2.153c.408.332.799.676 1.174 1.027zm-11.457 42.76a24.715 24.715 0 01-5.285.62c.32 2.574.895 4.372.95 4.541.14.426.429.765.792.974a1.754 1.754 0 001.24.199c.174-.037 2.018-.437 4.407-1.447a25.77 25.77 0 01-1.601-3.41 23.051 23.051 0 01-.503-1.477zm36.189-29.198c1.01-2.39 1.41-4.233 1.447-4.407a1.758 1.758 0 00-1.173-2.031c-.169-.056-1.966-.631-4.54-.951a25.686 25.686 0 01-.318 3.754c-.085.52-.186 1.03-.303 1.53.492.15.985.317 1.477.504 1.14.434 2.281.97 3.41 1.601zm-14.09 15.498a22.537 22.537 0 01.873 2.447 14.872 14.872 0 003.69.186 15.412 15.412 0 00-.507-.958c-.446-.77-.95-1.482-1.498-2.141-.826.2-1.68.355-2.558.466zM47.556 30a15.03 15.03 0 00-.917-.577 15.447 15.447 0 00-2.37-1.107A22.487 22.487 0 0142.289 30a22.981 22.981 0 011.98 1.683A14.935 14.935 0 0047.556 30zm.84-3.62c.656.377 1.292.8 1.908 1.265 1.145-1.213 2.087-2.542 2.854-3.85-1.319-.75-2.799-1.43-4.397-1.908a18.452 18.452 0 01-2.047 3.634c.578.26 1.14.544 1.682.858zm11.156 2.447c-.12-.133-1.388-1.53-3.457-3.093a25.744 25.744 0 01-2.153 3.092c-.332.408-.676.799-1.027 1.174.352.375.695.766 1.027 1.174a25.74 25.74 0 012.153 3.092c2.07-1.564 3.338-2.96 3.457-3.093a1.759 1.759 0 000-2.346zM5.268 39.353c-1.01 2.39-1.41 4.233-1.447 4.407a1.754 1.754 0 001.173 2.032c.169.055 1.966.63 4.54.95.018-1.293.123-2.55.318-3.754.085-.52.186-1.03.303-1.53a23.19 23.19 0 01-1.477-.504 25.65 25.65 0 01-3.41-1.601zm0-18.706a25.714 25.714 0 013.41-1.6c.492-.188.985-.355 1.477-.504a23.28 23.28 0 01-.303-1.531 25.749 25.749 0 01-.318-3.754c-2.574.32-4.371.895-4.54.95a1.75 1.75 0 00-.975.792c-.21.363-.29.801-.198 1.24.037.174.437 2.018 1.447 4.407zm6.336 12.973a18.636 18.636 0 01-1.908-1.265c-1.145 1.213-2.087 2.542-2.854 3.85 1.319.75 2.798 1.43 4.397 1.907a18.363 18.363 0 012.046-3.634 18.537 18.537 0 01-1.681-.857zm6.062 10.501c0-.625.033-1.253.098-1.885a18.55 18.55 0 01-1.885.098c-.757 0-1.52-.048-2.285-.142-.385 1.623-.536 3.244-.547 4.761 1.517-.01 3.138-.16 4.762-.546a18.634 18.634 0 01-.143-2.286zm16.813 2.594c-.26.579-.545 1.14-.858 1.681a18.678 18.678 0 01-1.266 1.908c1.213 1.145 2.542 2.087 3.85 2.854.75-1.32 1.43-2.799 1.908-4.398-.709-.3-1.394-.638-2.05-1.018a18.544 18.544 0 01-1.584-1.027zm-8.099 1.681a18.384 18.384 0 01-.859-1.68c-.514.37-1.042.714-1.583 1.026-.657.38-1.342.718-2.05 1.019.478 1.598 1.158 3.078 1.907 4.397 1.308-.768 2.637-1.709 3.85-2.854a18.607 18.607 0 01-1.266-1.908zm10.54-7.442a24.972 24.972 0 01-.776-.312 22.93 22.93 0 01-.468 2.556c.66.549 1.373 1.054 2.144 1.5.316.182.636.35.958.506a14.865 14.865 0 00-.186-3.689 22.723 22.723 0 01-1.672-.56zm17.812-1.601a25.715 25.715 0 01-3.41 1.601c-.492.187-.984.354-1.477.503.117.502.218 1.012.303 1.531.195 1.205.3 2.461.318 3.754 2.574-.32 4.371-.895 4.54-.95a1.758 1.758 0 001.173-2.032c-.037-.174-.437-2.018-1.447-4.407zm-4.427-6.998a18.69 18.69 0 01-1.908 1.266c-.543.313-1.105.598-1.682.858a18.501 18.501 0 012.047 3.633c1.598-.478 3.077-1.158 4.396-1.907-.767-1.308-1.709-2.637-2.853-3.85zm-6.184 9.979a18.55 18.55 0 01-1.885-.098 18.392 18.392 0 01-.044 4.171c1.623.385 3.244.535 4.76.546-.01-1.517-.16-3.138-.545-4.761a18.78 18.78 0 01-2.286.142zm-19.797.864a22.627 22.627 0 01-.469-2.556 22.751 22.751 0 01-2.447.873 14.874 14.874 0 00-.186 3.69 15.354 15.354 0 003.102-2.007zM23.08 19.046c.258.098.517.203.775.312a22.93 22.93 0 01.468-2.556 14.896 14.896 0 00-3.101-2.006 14.874 14.874 0 00.186 3.689c.557.163 1.115.35 1.671.561zm2.441-5.761a18.49 18.49 0 012.124-3.589c-1.214-1.145-2.542-2.087-3.85-2.854-.75 1.319-1.43 2.799-1.908 4.397a18.362 18.362 0 013.634 2.046zm-6.475 9.795a22.46 22.46 0 01-.561-1.672 15.392 15.392 0 00-2.606-.226c-.364 0-.726.014-1.083.04.156.323.324.642.506.958.446.77.95 1.483 1.498 2.141.826-.2 1.68-.355 2.557-.466a24.77 24.77 0 01-.311-.776zm-9.35 4.565a18.726 18.726 0 011.908-1.266 18.685 18.685 0 011.68-.857 18.734 18.734 0 01-1.026-1.584 18.737 18.737 0 01-1.02-2.05c-1.597.478-3.077 1.158-4.396 1.907.767 1.308 1.71 2.637 2.854 3.85zm6.183-9.979c.625 0 1.253.033 1.885.098a18.392 18.392 0 01.045-4.171c-1.624-.385-3.245-.535-4.762-.546.01 1.517.162 3.138.547 4.761a18.599 18.599 0 012.285-.142zm1.174 12.85c.215-.174.435-.346.658-.516a22.434 22.434 0 01-1.98-1.684A14.989 14.989 0 0012.444 30a14.935 14.935 0 003.287 1.684c.42-.401.86-.791 1.322-1.168zm-10.995.658c.332-.408.676-.799 1.028-1.174a22.418 22.418 0 01-1.028-1.174 25.755 25.755 0 01-2.153-3.092C1.836 27.298.567 28.694.45 28.827a1.755 1.755 0 000 2.346c.118.132 1.387 1.53 3.456 3.093a25.736 25.736 0 012.153-3.092zm12.427 7.418a22.772 22.772 0 01.872-2.447 23.003 23.003 0 01-2.557-.466 15.389 15.389 0 00-1.497 2.14c-.183.316-.35.636-.507.96a14.858 14.858 0 003.689-.187zM40.296 27.24a353.738 353.738 0 00-4.793-.418 354.46 354.46 0 001.969-4.216l.066-.145-.145.067a352.824 352.824 0 00-4.215 1.967c-.124-1.54-.258-3.086-.404-4.635l-.014-.158-.093.13c-.9 1.27-1.79 2.54-2.668 3.814a357.616 357.616 0 00-2.665-3.81l-.093-.13-.015.157c-.145 1.548-.28 3.093-.403 4.634-1.396-.663-2.8-1.318-4.213-1.966l-.145-.067.066.144a356.915 356.915 0 001.967 4.215c-1.54.124-3.084.258-4.632.403l-.158.015.128.092c1.269.9 2.54 1.789 3.812 2.666a353.644 353.644 0 00-3.94 2.758l.158.015c1.548.145 3.093.28 4.634.403-.663 1.396-1.319 2.8-1.967 4.213l-.067.145.144-.066a350.961 350.961 0 004.215-1.967c.124 1.54.259 3.084.403 4.632l.015.159.092-.13A354.42 354.42 0 0030 36.353a353.048 353.048 0 002.666 3.812l.092.13.015-.16c.145-1.548.28-3.093.404-4.634 1.397.664 2.802 1.32 4.216 1.968l.144.067-.066-.146a351.503 351.503 0 00-1.968-4.214c1.541-.124 3.086-.259 4.635-.404l.158-.015-.13-.092c-1.268-.9-2.538-1.789-3.81-2.666a342.383 342.383 0 003.94-2.76z" fill="#fff"/></svg>