<svg width="31" height="31" fill="none" xmlns="http://www.w3.org/2000/svg"><g filter="url(#filter0_d)" fill="#F7CA59"><path d="M29.304 6.064c-1.474-.063-4.93-.032-7.908 1.34.187.8.283 1.59.283 2.365 0 2.667-1.125 5.527-3.254 8.273a22.697 22.697 0 01-1.609 1.854c.644-.013 1.4-.058 2.21-.162 2.118-.273 5.067-1.022 7.087-3.043 1.116-1.116 2.55-3.25 3.043-7.087a21.1 21.1 0 00.148-3.54zM9.839 3.003a21.213 21.213 0 00-3.102-1.428 21.209 21.209 0 00-1.182 3.2c.956.213 1.942.515 2.9.937.35-.903.813-1.81 1.384-2.71zm2.667 16.892a22.673 22.673 0 01-1.608-1.853c-2.128-2.746-3.253-5.606-3.253-8.273 0-.775.095-1.566.282-2.366C4.95 6.033 1.494 6.002.02 6.064c-.034.765-.042 2.06.148 3.54.273 2.118 1.022 5.066 3.043 7.087 2.634 2.634 6.81 3.151 9.296 3.204zM23.769 4.774a21.21 21.21 0 00-1.183-3.2c-.697.255-1.849.722-3.101 1.429.57.9 1.033 1.806 1.384 2.709a15.733 15.733 0 012.9-.938z"/><path d="M14.661 19.54c1.447-1.33 5.26-5.262 5.26-9.77S16.11 1.33 14.661 0c-1.447 1.33-5.258 5.262-5.258 9.77 0 4.52 3.81 8.442 5.257 9.77zm9.641.513c-1.471.704-3.187 1.189-5.095 1.43-.893.113-1.717.16-2.416.173.337.432.678.935.964 1.495 1.02.91 2.07 1.466 3.121 1.651 2.446.432 4.968-1.123 6.077-1.929-.488-.723-1.41-1.928-2.65-2.82zM12.6 25.948c0 1.622 1.204 3.192 2.058 4.052.765-.769 2.066-2.33 2.066-4.052 0-1.719-1.296-3.276-2.062-4.047-.767.77-2.063 2.328-2.063 4.047zm-7.58-5.895c-1.24.892-2.162 2.097-2.65 2.82 1.109.806 3.631 2.36 6.077 1.93 1.052-.186 2.101-.742 3.121-1.652.286-.56.627-1.063.965-1.495a22.94 22.94 0 01-2.417-.172c-1.908-.242-3.624-.727-5.095-1.431z"/></g><defs><filter id="filter0_d" x="0" y="0" width="30.323" height="31" filterUnits="userSpaceOnUse" color-interpolation-filters="sRGB"><feFlood flood-opacity="0" result="BackgroundImageFix"/><feColorMatrix in="SourceAlpha" values="0 0 0 0 0 0 0 0 0 0 0 0 0 0 0 0 0 0 127 0"/><feOffset dx="1" dy="1"/><feColorMatrix values="0 0 0 0 0.752941 0 0 0 0 0.447059 0 0 0 0 0.737255 0 0 0 0.25 0"/><feBlend in2="BackgroundImageFix" result="effect1_dropShadow"/><feBlend in="SourceGraphic" in2="effect1_dropShadow" result="shape"/></filter></defs></svg>