<svg width="50" height="51" fill="none" xmlns="http://www.w3.org/2000/svg"><g filter="url(#filter0_d)" fill="#F7CA59"><path d="M48.84 10.107c-2.456-.105-8.216-.053-13.18 2.232.312 1.333.471 2.652.471 3.943 0 4.445-1.875 9.212-5.422 13.788a37.83 37.83 0 01-2.682 3.09 34.684 34.684 0 003.684-.27c3.53-.455 8.443-1.704 11.812-5.072 1.859-1.859 4.248-5.417 5.07-11.81.318-2.467.304-4.626.248-5.9zM16.398 5.004a35.362 35.362 0 00-5.17-2.38 35.345 35.345 0 00-1.97 5.333c1.594.356 3.237.86 4.833 1.562a26.198 26.198 0 012.307-4.515zm4.446 28.155a37.808 37.808 0 01-2.68-3.09c-3.548-4.575-5.423-9.342-5.423-13.787 0-1.291.16-2.61.471-3.944C8.25 10.054 2.49 10.003.032 10.108a35.175 35.175 0 00.246 5.9c.455 3.528 1.703 8.442 5.072 11.81 4.39 4.39 11.35 5.253 15.494 5.34zM39.615 7.957a35.349 35.349 0 00-1.971-5.332 35.343 35.343 0 00-5.17 2.38c.951 1.5 1.723 3.01 2.307 4.514a26.223 26.223 0 014.834-1.562z"/><path d="M24.435 32.565c2.412-2.216 8.765-8.769 8.765-16.283C33.2 8.77 26.85 2.218 24.436 0c-2.412 2.217-8.764 8.77-8.764 16.282 0 7.534 6.35 14.07 8.763 16.283zm16.07.857c-2.453 1.173-5.312 1.981-8.493 2.384a37.815 37.815 0 01-4.027.288c.563.719 1.13 1.557 1.607 2.49 1.7 1.517 3.449 2.444 5.203 2.753 4.075.719 8.278-1.872 10.128-3.215-.814-1.205-2.352-3.214-4.419-4.7zm-19.506 9.826c0 2.701 2.007 5.318 3.43 6.752 1.277-1.282 3.445-3.883 3.445-6.752 0-2.866-2.16-5.462-3.438-6.747C23.16 37.786 21 40.382 21 43.248zM8.368 33.422c-2.067 1.486-3.605 3.494-4.419 4.7 1.849 1.343 6.053 3.934 10.128 3.215 1.754-.309 3.503-1.236 5.203-2.753a15.6 15.6 0 011.607-2.49 37.998 37.998 0 01-4.027-.288c-3.18-.403-6.04-1.21-8.492-2.384z"/></g><defs><filter id="filter0_d" x="0" y="0" width="49.872" height="51" filterUnits="userSpaceOnUse" color-interpolation-filters="sRGB"><feFlood flood-opacity="0" result="BackgroundImageFix"/><feColorMatrix in="SourceAlpha" values="0 0 0 0 0 0 0 0 0 0 0 0 0 0 0 0 0 0 127 0"/><feOffset dx="1" dy="1"/><feColorMatrix values="0 0 0 0 0.752941 0 0 0 0 0.447059 0 0 0 0 0.737255 0 0 0 0.25 0"/><feBlend in2="BackgroundImageFix" result="effect1_dropShadow"/><feBlend in="SourceGraphic" in2="effect1_dropShadow" result="shape"/></filter></defs></svg>