<svg width="20" height="15" fill="none" xmlns="http://www.w3.org/2000/svg"><g opacity=".6" fill="#C072BC"><path d="M18.24 2.005a.469.469 0 00-.657-.096l-7.56 5.644a.157.157 0 01-.188 0L2.422 1.884a.469.469 0 10-.569.746l5.828 4.458-5.764 4.343a.471.471 0 10.564.757l5.974-4.51.81.625a1.094 1.094 0 001.316.01l.85-.635 6.044 4.51a.47.47 0 00.561-.752l-5.822-4.35 5.93-4.43a.469.469 0 00.095-.651z"/><path d="M17.656 0H2.344A2.344 2.344 0 000 2.344v9.375a2.343 2.343 0 002.344 2.344h15.312A2.343 2.343 0 0020 11.719V2.344A2.344 2.344 0 0017.656 0zm1.407 11.719a1.406 1.406 0 01-1.407 1.406H2.344a1.406 1.406 0 01-1.406-1.406V2.344A1.406 1.406 0 012.343.938h15.312a1.406 1.406 0 011.407 1.406v9.375z"/></g></svg>