<svg width="34" height="32" fill="none" xmlns="http://www.w3.org/2000/svg"><path fill="#E5E5E5" d="M0 0h34v32H0z"/><path fill="#fff" d="M-545-4688H895V232H-545z"/><g opacity=".8" fill="#C072BC"><path d="M8.878 2.167a6.788 6.788 0 013.476.95l.748.453.876-.18a13.896 13.896 0 016.654.265 13.543 13.543 0 015.706 3.317 12.912 12.912 0 013.36 5.558 12.58 12.58 0 01.191 6.434l-.18.776.384.704c.499.916.758 1.937.755 2.973 0 1.113-.3 2.207-.87 3.174a6.527 6.527 0 01-2.38 2.342 6.809 6.809 0 01-3.266.898 6.822 6.822 0 01-3.298-.78l-.71-.384-.808.16c-2.169.433-4.415.34-6.538-.268a13.552 13.552 0 01-5.633-3.22 12.93 12.93 0 01-3.395-5.408 12.584 12.584 0 01-.351-6.317l.169-.85-.483-.73c-.64-.97-1-2.088-1.04-3.238-.04-1.15.24-2.289.812-3.298a6.518 6.518 0 012.439-2.437 6.81 6.81 0 013.382-.894zm0-2.167a9.11 9.11 0 00-4.526 1.198 8.72 8.72 0 00-3.261 3.261A8.35 8.35 0 00.005 8.872 8.38 8.38 0 001.4 13.204a14.684 14.684 0 00.411 7.37 15.089 15.089 0 003.96 6.31 15.814 15.814 0 006.573 3.756 16.22 16.22 0 007.629.314 9.142 9.142 0 005.478.963 9 9 0 004.994-2.379 8.488 8.488 0 002.547-4.786 8.334 8.334 0 00-.902-5.312c.578-2.48.502-5.062-.221-7.506a15.06 15.06 0 00-3.921-6.484 15.798 15.798 0 00-6.658-3.87c-2.52-.73-5.19-.835-7.762-.307A9.063 9.063 0 008.878 0z"/><path d="M8.758 11.86c0-3.84 3.972-5.233 7.679-5.233 5.745 0 7.048 3.28 7.352 4.22.183.56-.345 2.17-1.931 2-1.587-.17-1.804-2.333-4.893-3.173-.949-.254-4.004.116-4.004 1.84 0 1.533 5.173 2.286 7.714 3.236 2.662 1 3.872 2.38 3.872 4.727 0 4.76-5.317 5.9-7.517 5.9-6.959 0-8.47-4.666-8.47-5.456a1.665 1.665 0 01.489-1.29 1.785 1.785 0 011.315-.521c2.397 0 1.476 4.094 6.073 4.094 3.61 0 3.972-1.617 3.972-2.41 0-2.284-6.3-3.077-6.3-3.077s-5.351-.813-5.351-4.857z"/></g></svg>