<svg width="18" height="18" fill="none" xmlns="http://www.w3.org/2000/svg"><g opacity=".6" fill="#C072BC"><path d="M13.191 18a8.894 8.894 0 01-2.077-.262c-2.347-.566-4.765-2.003-6.805-4.045C2.268 11.65.829 9.233.263 6.887-.333 4.42.093 2.31 1.46.942l.39-.39a1.89 1.89 0 012.67 0l2.244 2.243a1.888 1.888 0 010 2.67L5.437 6.788c.636 1.115 1.5 2.23 2.521 3.252 1.021 1.021 2.138 1.886 3.252 2.521l1.325-1.325a1.887 1.887 0 012.67 0l2.242 2.243a1.888 1.888 0 010 2.669l-.39.39C16.093 17.505 14.758 18 13.19 18zM3.184 1.342a.537.537 0 00-.384.16l-.391.39C1.385 2.916 1.086 4.578 1.567 6.57c.509 2.11 1.82 4.303 3.69 6.172 1.87 1.87 4.062 3.18 6.172 3.69 1.992.481 3.654.182 4.678-.842l.39-.39a.544.544 0 000-.77l-2.242-2.243a.545.545 0 00-.77 0l-1.68 1.68a.672.672 0 01-.783.121c-1.377-.712-2.764-1.748-4.014-2.997C5.76 9.74 4.725 8.354 4.011 6.978a.672.672 0 01.122-.784l1.68-1.68a.544.544 0 000-.769L3.569 1.502a.54.54 0 00-.385-.16z"/><path d="M13.909 9.926a.672.672 0 01-.672-.671A4.45 4.45 0 008.793 4.81a.672.672 0 010-1.343 5.794 5.794 0 015.787 5.787.672.672 0 01-.671.671z"/><path d="M16.747 9.926a.672.672 0 01-.671-.671c0-4.016-3.269-7.283-7.283-7.283a.672.672 0 010-1.343c4.757 0 8.626 3.87 8.626 8.626a.672.672 0 01-.672.671z"/></g></svg>