<svg width="40" height="34" fill="none" xmlns="http://www.w3.org/2000/svg"><path d="M31.162 33.999a1.417 1.417 0 01-.878-.312l-9.267-7.41a2.585 2.585 0 01-.184.227l-5.667 5.667a1.416 1.416 0 01-2.338-.51l-4.053-10.81L.77 16.84a1.417 1.417 0 01.127-2.58L37.737.094a1.417 1.417 0 011.852.882c.083.25.094.52.032.775l-7.084 31.172a1.417 1.417 0 01-.921 1.02c-.147.044-.3.063-.454.057zM19.218 21.247l11.066 8.855 5.993-26.41-31.37 12.057 5.668 2.834c.32.159.567.432.694.765l3.472 9.267 4.094-4.08-2.692-2.169a1.419 1.419 0 01-.567-1.12 1.416 1.416 0 01.496-1.104l9.919-8.502a1.418 1.418 0 012.333 1.187 1.415 1.415 0 01-.491.967l-8.615 7.453z" fill="#C072BC"/></svg>