<svg width="33" height="34" fill="none" xmlns="http://www.w3.org/2000/svg"><path opacity=".8" d="M15.283.003C12.555.04 6.688.487 3.405 3.495.968 5.917.117 9.489.018 13.912-.067 18.317-.166 26.59 7.81 28.845v3.428s-.054 1.374.852 1.658c1.12.354 1.757-.707 2.82-1.84l1.983-2.239c5.454.453 9.633-.594 10.115-.75 1.105-.354 7.34-1.148 8.36-9.423 1.048-8.544-.51-13.927-3.315-16.364l-.014-.003c-.85-.78-4.25-3.258-11.858-3.287 0 0-.561-.035-1.47-.022zm.094 2.404c.772-.004 1.247.028 1.247.028 6.432.014 9.507 1.955 10.23 2.607 2.366 2.024 3.581 6.88 2.692 14.014-.85 6.913-5.908 7.352-6.843 7.65-.397.127-4.08 1.034-8.715.736 0 0-3.456 4.167-4.532 5.243-.17.184-.369.241-.496.213-.184-.043-.24-.27-.227-.581l.029-5.694c-6.76-1.87-6.363-8.927-6.292-12.61.085-3.684.78-6.704 2.833-8.744C8.076 2.76 13.06 2.42 15.376 2.407h.001zm.51 3.683a.424.424 0 100 .849 7.977 7.977 0 015.71 2.252c1.544 1.502 2.296 3.514 2.324 6.149a.426.426 0 00.425.425v-.013a.425.425 0 00.425-.425 9.14 9.14 0 00-2.564-6.743C20.521 6.94 18.393 6.09 15.886 6.09h.001zm-5.601.978a1.353 1.353 0 00-.871.17h-.017a6.733 6.733 0 00-1.627 1.331c-.382.454-.596.906-.653 1.345-.033.257-.009.52.071.766l.028.014a19.439 19.439 0 001.7 3.684 21.791 21.791 0 003.287 4.492l.043.057.056.042.043.043.042.042a22.103 22.103 0 004.505 3.301c1.87 1.02 3.006 1.502 3.686 1.7v.014c.199.057.38.085.564.085a2.607 2.607 0 001.561-.669 6.399 6.399 0 001.318-1.626v-.014c.326-.61.213-1.191-.255-1.588a19.316 19.316 0 00-3.046-2.182c-.722-.396-1.46-.156-1.757.241l-.637.806c-.326.397-.92.34-.92.34l-.018.014c-4.42-1.133-5.596-5.608-5.596-5.608s-.056-.61.354-.921l.794-.638c.382-.311.651-1.048.24-1.77A19.158 19.158 0 0011 7.493a1.194 1.194 0 00-.714-.425zm6.337 1.26a.425.425 0 10.002.85 5.355 5.355 0 013.755 1.63 4.958 4.958 0 011.275 3.64.425.425 0 00.425.424l.014.017a.425.425 0 00.425-.426c.042-1.686-.482-3.103-1.516-4.236-1.034-1.133-2.48-1.771-4.32-1.898a.425.425 0 00-.06 0zm.694 2.294a.434.434 0 00-.19.828.433.433 0 00.164.038c1.403.07 2.083.779 2.168 2.238a.425.425 0 00.425.41h.014a.425.425 0 00.41-.452c-.098-1.899-1.133-2.963-2.974-3.062h-.017z" fill="#C072BC"/></svg>