<svg width="17" height="20" fill="none" xmlns="http://www.w3.org/2000/svg"><path fill="#E5E5E5" d="M0 0h17v20H0z"/><g clip-path="url(#clip0_0:1)"><path fill="#fff" d="M-829-52h1920v1570H-829z"/><g filter="url(#filter0_d_0:1)"><path fill="#fff" d="M-829-52h1920V73H-829z"/></g><rect x="-33.5" y="-19.5" width="434" height="59" rx="4.5" fill="#fff"/><path fill-rule="evenodd" clip-rule="evenodd" d="M8.251 6.5a1.751 1.751 0 101.75 1.751c0-.966-.785-1.751-1.75-1.751zm0 5a3.253 3.253 0 01-3.25-3.249A3.254 3.254 0 018.251 5a3.254 3.254 0 013.25 3.251 3.253 3.253 0 01-3.25 3.249z" fill="#131313"/><mask id="a" style="mask-type:alpha" maskUnits="userSpaceOnUse" x="0" y="0" width="17" height="20"><path fill-rule="evenodd" clip-rule="evenodd" d="M0 0h16.5v19.5H0V0z" fill="#fff"/></mask><g mask="url(#a)"><path fill-rule="evenodd" clip-rule="evenodd" d="M8.249 1.5c-3.722 0-6.75 3.057-6.75 6.813 0 4.779 5.624 9.435 6.75 9.683 1.126-.249 6.75-4.905 6.75-9.683 0-3.756-3.028-6.813-6.75-6.813zm0 18c-1.794 0-8.25-5.552-8.25-11.187C-.001 3.729 3.7 0 8.249 0c4.549 0 8.25 3.729 8.25 8.313 0 5.635-6.456 11.187-8.25 11.187z" fill="#131313"/></g></g><defs><clipPath id="clip0_0:1"><path fill="#fff" transform="translate(-829 -52)" d="M0 0h1920v1570H0z"/></clipPath><filter id="filter0_d_0:1" x="-879" y="-97" width="2020" height="225" filterUnits="userSpaceOnUse" color-interpolation-filters="sRGB"><feFlood flood-opacity="0" result="BackgroundImageFix"/><feColorMatrix in="SourceAlpha" values="0 0 0 0 0 0 0 0 0 0 0 0 0 0 0 0 0 0 127 0" result="hardAlpha"/><feOffset dy="5"/><feGaussianBlur stdDeviation="25"/><feColorMatrix values="0 0 0 0 0.145098 0 0 0 0 0.00392157 0 0 0 0 0 0 0 0 0.2 0"/><feBlend in2="BackgroundImageFix" result="effect1_dropShadow_0:1"/><feBlend in="SourceGraphic" in2="effect1_dropShadow_0:1" result="shape"/></filter></defs></svg>