<svg width="20" height="19" fill="none" xmlns="http://www.w3.org/2000/svg"><path fill="#E5E5E5" d="M0 0h20v19H0z"/><g clip-path="url(#clip0_0:1)"><path fill="#fff" d="M-1173-52H747v1570h-1920z"/><g filter="url(#filter0_d_0:1)"><path fill="#fff" d="M-1173-52H747V73h-1920z"/></g><rect x="-377.5" y="-19.5" width="434" height="59" rx="4.5" fill="#fff" stroke="#C7C7C7"/><mask id="a" style="mask-type:alpha" maskUnits="userSpaceOnUse" x="0" y="0" width="20" height="19"><path fill-rule="evenodd" clip-rule="evenodd" d="M0 0h19.223v18.799H0V0z" fill="#fff"/></mask><g mask="url(#a)"><path fill-rule="evenodd" clip-rule="evenodd" d="M9.612 1.448c-4.484 0-8.132 3.566-8.132 7.95 0 4.386 3.648 7.953 8.132 7.953 4.483 0 8.13-3.567 8.13-7.952s-3.647-7.951-8.13-7.951zm0 17.35c-5.3 0-9.612-4.216-9.612-9.4C0 4.217 4.312 0 9.612 0s9.611 4.216 9.611 9.399c0 5.183-4.31 9.4-9.61 9.4z" fill="#131313"/></g><mask id="b" style="mask-type:alpha" maskUnits="userSpaceOnUse" x="15" y="15" width="5" height="5"><path fill-rule="evenodd" clip-rule="evenodd" d="M15.041 15.16H20V20h-4.96v-4.84z" fill="#fff"/></mask><g mask="url(#b)"><path fill-rule="evenodd" clip-rule="evenodd" d="M19.26 20a.75.75 0 01-.524-.211l-3.478-3.392a.713.713 0 010-1.024.752.752 0 011.047-.002l3.478 3.393c.289.282.29.74 0 1.023a.742.742 0 01-.523.213z" fill="#131313"/></g></g><defs><clipPath id="clip0_0:1"><path fill="#fff" transform="translate(-1173 -52)" d="M0 0h1920v1570H0z"/></clipPath><filter id="filter0_d_0:1" x="-1223" y="-97" width="2020" height="225" filterUnits="userSpaceOnUse" color-interpolation-filters="sRGB"><feFlood flood-opacity="0" result="BackgroundImageFix"/><feColorMatrix in="SourceAlpha" values="0 0 0 0 0 0 0 0 0 0 0 0 0 0 0 0 0 0 127 0" result="hardAlpha"/><feOffset dy="5"/><feGaussianBlur stdDeviation="25"/><feColorMatrix values="0 0 0 0 0.145098 0 0 0 0 0.00392157 0 0 0 0 0 0 0 0 0.2 0"/><feBlend in2="BackgroundImageFix" result="effect1_dropShadow_0:1"/><feBlend in="SourceGraphic" in2="effect1_dropShadow_0:1" result="shape"/></filter></defs></svg>